<svg xmlns="http://www.w3.org/2000/svg" xmlns:xlink="http://www.w3.org/1999/xlink" width="80" zoomAndPan="magnify" viewBox="0 0 60 60" height="80" preserveAspectRatio="xMidYMid meet" version="1.2"><g id="a21ebbb315"><path style=" stroke:none;fill-rule:nonzero;fill:#fc8c06;fill-opacity:1;" d="M 42 30 C 42 30.789062 41.921875 31.566406 41.769531 32.339844 C 41.617188 33.113281 41.386719 33.863281 41.085938 34.59375 C 40.785156 35.320312 40.414062 36.011719 39.976562 36.667969 C 39.539062 37.320312 39.042969 37.929688 38.484375 38.484375 C 37.929688 39.042969 37.320312 39.539062 36.667969 39.976562 C 36.011719 40.414062 35.320312 40.785156 34.59375 41.085938 C 33.863281 41.386719 33.113281 41.617188 32.339844 41.769531 C 31.566406 41.921875 30.789062 42 30 42 C 29.210938 42 28.433594 41.921875 27.660156 41.769531 C 26.886719 41.617188 26.136719 41.386719 25.40625 41.085938 C 24.679688 40.785156 23.988281 40.414062 23.332031 39.976562 C 22.679688 39.539062 22.070312 39.042969 21.515625 38.484375 C 20.957031 37.929688 20.460938 37.320312 20.023438 36.667969 C 19.585938 36.011719 19.214844 35.320312 18.914062 34.59375 C 18.613281 33.863281 18.382812 33.113281 18.230469 32.339844 C 18.078125 31.566406 18 30.789062 18 30 C 18 29.210938 18.078125 28.433594 18.230469 27.660156 C 18.382812 26.886719 18.613281 26.136719 18.914062 25.40625 C 19.214844 24.679688 19.585938 23.988281 20.023438 23.332031 C 20.460938 22.679688 20.957031 22.070312 21.515625 21.515625 C 22.070312 20.957031 22.679688 20.460938 23.332031 20.023438 C 23.988281 19.585938 24.679688 19.214844 25.40625 18.914062 C 26.136719 18.613281 26.886719 18.382812 27.660156 18.230469 C 28.433594 18.078125 29.210938 18 30 18 C 30.789062 18 31.566406 18.078125 32.339844 18.230469 C 33.113281 18.382812 33.863281 18.613281 34.59375 18.914062 C 35.320312 19.214844 36.011719 19.585938 36.667969 20.023438 C 37.320312 20.460938 37.929688 20.957031 38.484375 21.515625 C 39.042969 22.070312 39.539062 22.679688 39.976562 23.332031 C 40.414062 23.988281 40.785156 24.679688 41.085938 25.40625 C 41.386719 26.136719 41.617188 26.886719 41.769531 27.660156 C 41.921875 28.433594 42 29.210938 42 30 Z M 42 30 "/><path style=" stroke:none;fill-rule:nonzero;fill:#fefffe;fill-opacity:1;" d="M 33.902344 33.960938 C 33.601562 33.960938 33.359375 34.203125 33.359375 34.503906 C 33.359375 34.804688 33.601562 35.050781 33.902344 35.050781 C 34.203125 35.050781 34.449219 34.804688 34.449219 34.503906 C 34.449219 34.203125 34.203125 33.960938 33.902344 33.960938 Z M 33.902344 33.960938 "/><path style=" stroke:none;fill-rule:nonzero;fill:#fefffe;fill-opacity:1;" d="M 27.246094 33.960938 C 26.945312 33.960938 26.699219 34.203125 26.699219 34.503906 C 26.699219 34.804688 26.945312 35.050781 27.246094 35.050781 C 27.546875 35.050781 27.789062 34.804688 27.789062 34.503906 C 27.789062 34.203125 27.546875 33.960938 27.246094 33.960938 Z M 27.246094 33.960938 "/><path style=" stroke:none;fill-rule:nonzero;fill:#fefffe;fill-opacity:1;" d="M 37.003906 27.074219 C 36.976562 27.035156 36.933594 27.015625 36.886719 27.015625 L 25.84375 27.015625 L 25.550781 25.070312 C 25.539062 25 25.480469 24.949219 25.40625 24.949219 L 23.113281 24.949219 C 23.03125 24.949219 22.96875 25.011719 22.96875 25.09375 C 22.96875 25.171875 23.03125 25.234375 23.113281 25.234375 L 25.285156 25.234375 L 25.832031 28.851562 L 27.933594 28.851562 C 28.011719 28.851562 28.078125 28.917969 28.078125 28.996094 C 28.078125 29.074219 28.011719 29.140625 27.933594 29.140625 L 25.875 29.140625 L 26.109375 30.6875 L 27.015625 30.6875 C 27.09375 30.6875 27.160156 30.753906 27.160156 30.832031 C 27.160156 30.910156 27.09375 30.976562 27.015625 30.976562 L 26.15625 30.976562 L 26.414062 32.691406 C 26.425781 32.761719 26.484375 32.8125 26.554688 32.8125 L 35.28125 32.8125 C 35.34375 32.8125 35.402344 32.769531 35.417969 32.710938 L 37.027344 27.199219 C 37.039062 27.15625 37.03125 27.109375 37.003906 27.074219 Z M 37.003906 27.074219 "/><path style=" stroke:none;fill-rule:nonzero;fill:#fefffe;fill-opacity:1;" d="M 25.585938 29.140625 L 25.542969 28.851562 L 24.488281 28.851562 C 24.410156 28.851562 24.347656 28.917969 24.347656 28.996094 C 24.347656 29.074219 24.410156 29.140625 24.488281 29.140625 Z M 25.585938 29.140625 "/><path style=" stroke:none;fill-rule:nonzero;fill:#fefffe;fill-opacity:1;" d="M 23.113281 30.6875 C 23.03125 30.6875 22.96875 30.753906 22.96875 30.832031 C 22.96875 30.910156 23.03125 30.976562 23.113281 30.976562 L 25.863281 30.976562 L 25.820312 30.6875 Z M 23.113281 30.6875 "/><path style=" stroke:none;fill-rule:nonzero;fill:#fefffe;fill-opacity:1;" d="M 33.082031 34.363281 L 28.066406 34.363281 C 28.074219 34.410156 28.078125 34.457031 28.078125 34.503906 C 28.078125 34.554688 28.074219 34.601562 28.066406 34.648438 L 33.082031 34.648438 C 33.074219 34.601562 33.070312 34.554688 33.070312 34.503906 C 33.070312 34.457031 33.074219 34.410156 33.082031 34.363281 Z M 33.082031 34.363281 "/><path style=" stroke:none;fill-rule:nonzero;fill:#fefffe;fill-opacity:1;" d="M 27.386719 33.6875 L 27.386719 33.097656 L 27.101562 33.097656 L 27.101562 33.6875 C 27.148438 33.679688 27.195312 33.671875 27.246094 33.671875 C 27.292969 33.671875 27.339844 33.679688 27.386719 33.6875 Z M 27.386719 33.6875 "/><path style=" stroke:none;fill-rule:nonzero;fill:#fefffe;fill-opacity:1;" d="M 34.046875 33.6875 L 34.046875 33.097656 L 33.757812 33.097656 L 33.757812 33.6875 C 33.804688 33.679688 33.855469 33.671875 33.902344 33.671875 C 33.953125 33.671875 34 33.679688 34.046875 33.6875 Z M 34.046875 33.6875 "/></g></svg>