<svg xmlns="http://www.w3.org/2000/svg" xmlns:xlink="http://www.w3.org/1999/xlink" width="80" zoomAndPan="magnify" viewBox="0 0 60 60" height="80" preserveAspectRatio="xMidYMid meet" version="1.2"><defs><clipPath id="4f6f456982"><path d="M 11 37 L 22 37 L 22 50.910156 L 11 50.910156 Z M 11 37 "/></clipPath><clipPath id="a26c8eaa02"><path d="M 47 28 L 52.324219 28 L 52.324219 45 L 47 45 Z M 47 28 "/></clipPath><clipPath id="7b2d26c33f"><path d="M 16 11.160156 L 38 11.160156 L 38 18 L 16 18 Z M 16 11.160156 "/></clipPath><clipPath id="feff9bbac9"><path d="M 10.324219 19 L 30 19 L 30 36 L 10.324219 36 Z M 10.324219 19 "/></clipPath><clipPath id="d068c0bdd4"><path d="M 10.324219 18 L 30 18 L 30 36 L 10.324219 36 Z M 10.324219 18 "/></clipPath><clipPath id="01dfd75375"><path d="M 26 47 L 30 47 L 30 50.910156 L 26 50.910156 Z M 26 47 "/></clipPath><clipPath id="32aca41588"><path d="M 25 46 L 30 46 L 30 50.910156 L 25 50.910156 Z M 25 46 "/></clipPath><clipPath id="e94849bc9d"><path d="M 39 47 L 44 47 L 44 50.910156 L 39 50.910156 Z M 39 47 "/></clipPath><clipPath id="4b3486b227"><path d="M 39 46 L 44 46 L 44 50.910156 L 39 50.910156 Z M 39 46 "/></clipPath></defs><g id="088d03da42"><g clip-rule="nonzero" clip-path="url(#4f6f456982)"><path style=" stroke:none;fill-rule:nonzero;fill:#403054;fill-opacity:1;" d="M 21.507812 50.070312 C 21.472656 50.070312 21.4375 50.0625 21.40625 50.042969 C 20.703125 49.667969 20.015625 49.242188 19.359375 48.789062 C 19.261719 48.71875 19.238281 48.585938 19.308594 48.488281 C 19.378906 48.390625 19.511719 48.367188 19.609375 48.4375 C 20.253906 48.882812 20.925781 49.296875 21.613281 49.667969 C 21.71875 49.722656 21.757812 49.855469 21.699219 49.957031 C 21.660156 50.03125 21.585938 50.070312 21.507812 50.070312 Z M 17.621094 47.363281 C 17.570312 47.363281 17.515625 47.347656 17.476562 47.308594 C 16.878906 46.785156 16.304688 46.21875 15.773438 45.628906 C 15.691406 45.539062 15.699219 45.40625 15.789062 45.324219 C 15.878906 45.246094 16.019531 45.253906 16.097656 45.34375 C 16.621094 45.921875 17.179688 46.476562 17.765625 46.988281 C 17.855469 47.070312 17.863281 47.203125 17.78125 47.292969 C 17.738281 47.339844 17.679688 47.363281 17.621094 47.363281 Z M 14.453125 43.859375 C 14.386719 43.859375 14.320312 43.828125 14.277344 43.765625 C 13.816406 43.121094 13.386719 42.441406 13.003906 41.746094 C 12.945312 41.644531 12.984375 41.511719 13.089844 41.457031 C 13.195312 41.398438 13.328125 41.4375 13.386719 41.542969 C 13.761719 42.222656 14.179688 42.886719 14.632812 43.519531 C 14.699219 43.617188 14.675781 43.75 14.578125 43.820312 C 14.542969 43.84375 14.496094 43.859375 14.453125 43.859375 Z M 12.179688 39.730469 C 12.09375 39.730469 12.011719 39.679688 11.976562 39.597656 C 11.675781 38.863281 11.417969 38.105469 11.207031 37.34375 C 11.175781 37.230469 11.242188 37.113281 11.359375 37.082031 C 11.472656 37.046875 11.59375 37.117188 11.625 37.230469 C 11.832031 37.976562 12.085938 38.71875 12.378906 39.4375 C 12.425781 39.546875 12.371094 39.671875 12.257812 39.714844 C 12.234375 39.726562 12.207031 39.730469 12.179688 39.730469 Z M 12.179688 39.730469 "/></g><g clip-rule="nonzero" clip-path="url(#a26c8eaa02)"><path style=" stroke:none;fill-rule:nonzero;fill:#403054;fill-opacity:1;" d="M 47.867188 44.496094 C 47.820312 44.496094 47.773438 44.480469 47.734375 44.449219 C 47.640625 44.378906 47.621094 44.242188 47.695312 44.148438 C 48.171875 43.535156 48.617188 42.886719 49.015625 42.222656 C 49.078125 42.117188 49.210938 42.085938 49.316406 42.144531 C 49.417969 42.207031 49.453125 42.339844 49.390625 42.441406 C 48.980469 43.121094 48.527344 43.78125 48.039062 44.410156 C 47.996094 44.464844 47.933594 44.496094 47.867188 44.496094 Z M 50.304688 40.457031 C 50.273438 40.457031 50.242188 40.453125 50.214844 40.4375 C 50.105469 40.390625 50.054688 40.261719 50.105469 40.15625 C 50.425781 39.449219 50.710938 38.714844 50.945312 37.976562 C 50.980469 37.867188 51.105469 37.800781 51.21875 37.839844 C 51.332031 37.875 51.394531 37.996094 51.359375 38.109375 C 51.117188 38.863281 50.832031 39.609375 50.503906 40.332031 C 50.464844 40.410156 50.386719 40.457031 50.304688 40.457031 Z M 51.738281 35.976562 C 51.726562 35.976562 51.710938 35.976562 51.699219 35.972656 C 51.582031 35.949219 51.503906 35.835938 51.527344 35.71875 C 51.675781 34.960938 51.777344 34.183594 51.839844 33.410156 C 51.847656 33.292969 51.953125 33.203125 52.070312 33.214844 C 52.191406 33.222656 52.28125 33.324219 52.273438 33.445312 C 52.210938 34.234375 52.105469 35.027344 51.953125 35.800781 C 51.933594 35.90625 51.839844 35.976562 51.738281 35.976562 Z M 52.101562 31.289062 C 51.984375 31.289062 51.886719 31.195312 51.882812 31.082031 C 51.855469 30.304688 51.777344 29.523438 51.660156 28.761719 C 51.640625 28.644531 51.722656 28.535156 51.84375 28.515625 C 51.960938 28.5 52.070312 28.578125 52.089844 28.695312 C 52.210938 29.476562 52.289062 30.273438 52.316406 31.066406 C 52.324219 31.183594 52.230469 31.28125 52.109375 31.289062 C 52.105469 31.289062 52.101562 31.289062 52.101562 31.289062 Z M 52.101562 31.289062 "/></g><g clip-rule="nonzero" clip-path="url(#7b2d26c33f)"><path style=" stroke:none;fill-rule:nonzero;fill:#403054;fill-opacity:1;" d="M 16.972656 17.371094 C 16.914062 17.371094 16.859375 17.351562 16.816406 17.308594 C 16.730469 17.222656 16.734375 17.085938 16.820312 17.003906 C 17.394531 16.453125 18.007812 15.929688 18.640625 15.449219 C 18.734375 15.375 18.871094 15.394531 18.945312 15.488281 C 19.019531 15.582031 19 15.714844 18.90625 15.789062 C 18.285156 16.261719 17.683594 16.773438 17.121094 17.3125 C 17.082031 17.351562 17.027344 17.371094 16.972656 17.371094 Z M 20.742188 14.507812 C 20.667969 14.507812 20.59375 14.46875 20.554688 14.402344 C 20.492188 14.300781 20.523438 14.167969 20.628906 14.109375 C 21.3125 13.699219 22.03125 13.328125 22.757812 13.003906 C 22.867188 12.953125 22.996094 13 23.046875 13.109375 C 23.097656 13.21875 23.046875 13.34375 22.9375 13.394531 C 22.226562 13.710938 21.523438 14.078125 20.851562 14.476562 C 20.816406 14.496094 20.777344 14.507812 20.742188 14.507812 Z M 25.070312 12.566406 C 24.976562 12.566406 24.890625 12.507812 24.863281 12.417969 C 24.828125 12.304688 24.890625 12.183594 25.003906 12.148438 C 25.765625 11.90625 26.546875 11.707031 27.332031 11.554688 C 27.449219 11.53125 27.566406 11.605469 27.589844 11.722656 C 27.613281 11.839844 27.535156 11.953125 27.417969 11.976562 C 26.648438 12.125 25.882812 12.320312 25.136719 12.554688 C 25.113281 12.5625 25.089844 12.566406 25.070312 12.566406 Z M 36.820312 12.300781 C 36.800781 12.300781 36.78125 12.300781 36.761719 12.292969 C 36.007812 12.09375 35.230469 11.933594 34.457031 11.816406 C 34.335938 11.800781 34.253906 11.691406 34.273438 11.574219 C 34.289062 11.457031 34.402344 11.375 34.519531 11.390625 C 35.3125 11.507812 36.105469 11.671875 36.875 11.878906 C 36.992188 11.910156 37.058594 12.027344 37.027344 12.144531 C 37.003906 12.238281 36.914062 12.300781 36.820312 12.300781 Z M 29.734375 11.660156 C 29.621094 11.660156 29.527344 11.574219 29.519531 11.460938 C 29.507812 11.34375 29.597656 11.238281 29.71875 11.230469 C 30.273438 11.1875 30.835938 11.164062 31.398438 11.164062 C 31.640625 11.164062 31.882812 11.167969 32.125 11.175781 C 32.242188 11.179688 32.335938 11.28125 32.332031 11.398438 C 32.328125 11.515625 32.226562 11.609375 32.109375 11.605469 C 31.875 11.597656 31.632812 11.59375 31.398438 11.59375 C 30.847656 11.59375 30.296875 11.613281 29.75 11.65625 C 29.746094 11.65625 29.738281 11.660156 29.734375 11.660156 Z M 29.734375 11.660156 "/></g><path style=" stroke:none;fill-rule:nonzero;fill:#bdf4ff;fill-opacity:1;" d="M 46.609375 31.855469 C 46.609375 32.84375 46.511719 33.820312 46.316406 34.789062 C 46.121094 35.757812 45.832031 36.699219 45.449219 37.609375 C 45.070312 38.523438 44.601562 39.386719 44.046875 40.207031 C 43.492188 41.03125 42.859375 41.789062 42.152344 42.488281 C 41.449219 43.183594 40.679688 43.808594 39.847656 44.355469 C 39.019531 44.90625 38.140625 45.367188 37.21875 45.746094 C 36.296875 46.125 35.34375 46.410156 34.363281 46.601562 C 33.386719 46.792969 32.394531 46.890625 31.398438 46.890625 C 30.398438 46.890625 29.410156 46.792969 28.429688 46.601562 C 27.449219 46.410156 26.5 46.125 25.578125 45.746094 C 24.652344 45.367188 23.777344 44.90625 22.945312 44.355469 C 22.117188 43.808594 21.347656 43.183594 20.640625 42.488281 C 19.933594 41.789062 19.304688 41.03125 18.75 40.207031 C 18.195312 39.386719 17.726562 38.523438 17.34375 37.609375 C 16.960938 36.699219 16.671875 35.757812 16.476562 34.789062 C 16.285156 33.820312 16.1875 32.84375 16.1875 31.855469 C 16.1875 30.867188 16.285156 29.890625 16.476562 28.921875 C 16.671875 27.953125 16.960938 27.015625 17.34375 26.101562 C 17.726562 25.191406 18.195312 24.324219 18.75 23.503906 C 19.304688 22.683594 19.933594 21.921875 20.640625 21.226562 C 21.347656 20.527344 22.117188 19.902344 22.945312 19.355469 C 23.777344 18.804688 24.652344 18.34375 25.578125 17.964844 C 26.5 17.585938 27.449219 17.300781 28.429688 17.109375 C 29.410156 16.917969 30.398438 16.820312 31.398438 16.820312 C 32.394531 16.820312 33.386719 16.917969 34.363281 17.109375 C 35.34375 17.300781 36.296875 17.585938 37.21875 17.964844 C 38.140625 18.34375 39.019531 18.804688 39.847656 19.355469 C 40.679688 19.902344 41.449219 20.527344 42.152344 21.226562 C 42.859375 21.921875 43.492188 22.683594 44.046875 23.503906 C 44.601562 24.324219 45.070312 25.191406 45.449219 26.101562 C 45.832031 27.015625 46.121094 27.953125 46.316406 28.921875 C 46.511719 29.890625 46.609375 30.867188 46.609375 31.855469 Z M 46.609375 31.855469 "/><path style=" stroke:none;fill-rule:nonzero;fill:#ffffff;fill-opacity:1;" d="M 49.792969 28.121094 L 32.664062 28.121094 C 32.078125 28.121094 31.605469 27.652344 31.605469 27.074219 L 31.605469 17.058594 C 31.605469 16.480469 32.078125 16.011719 32.664062 16.011719 L 49.792969 16.011719 C 50.375 16.011719 50.851562 16.480469 50.851562 17.058594 L 50.851562 27.074219 C 50.851562 27.652344 50.375 28.121094 49.792969 28.121094 Z M 49.792969 28.121094 "/><path style=" stroke:none;fill-rule:nonzero;fill:#403054;fill-opacity:1;" d="M 49.792969 28.335938 L 32.664062 28.335938 C 31.960938 28.335938 31.386719 27.773438 31.386719 27.074219 L 31.386719 17.058594 C 31.386719 16.363281 31.960938 15.796875 32.664062 15.796875 L 49.792969 15.796875 C 50.496094 15.796875 51.066406 16.363281 51.066406 17.058594 L 51.066406 27.074219 C 51.066406 27.773438 50.496094 28.335938 49.792969 28.335938 Z M 32.664062 16.226562 C 32.199219 16.226562 31.824219 16.601562 31.824219 17.058594 L 31.824219 27.074219 C 31.824219 27.535156 32.199219 27.90625 32.664062 27.90625 L 49.792969 27.90625 C 50.253906 27.90625 50.632812 27.535156 50.632812 27.074219 L 50.632812 17.058594 C 50.632812 16.601562 50.253906 16.226562 49.792969 16.226562 Z M 32.664062 16.226562 "/><path style=" stroke:none;fill-rule:nonzero;fill:#57dbff;fill-opacity:1;" d="M 44.859375 30.4375 L 43.347656 30.4375 L 42.652344 28.121094 L 39.804688 28.121094 L 39.109375 30.4375 L 37.4375 30.4375 C 37.09375 30.4375 36.8125 30.714844 36.8125 31.058594 L 36.8125 31.738281 L 45.488281 31.738281 L 45.488281 31.058594 C 45.488281 30.714844 45.207031 30.4375 44.859375 30.4375 Z M 44.859375 30.4375 "/><path style=" stroke:none;fill-rule:nonzero;fill:#403054;fill-opacity:1;" d="M 45.488281 31.953125 L 36.8125 31.953125 C 36.691406 31.953125 36.59375 31.855469 36.59375 31.738281 L 36.59375 31.058594 C 36.59375 30.597656 36.972656 30.222656 37.4375 30.222656 L 38.945312 30.222656 L 39.597656 28.0625 C 39.625 27.96875 39.707031 27.90625 39.804688 27.90625 L 42.652344 27.90625 C 42.75 27.90625 42.832031 27.96875 42.859375 28.0625 L 43.511719 30.222656 L 44.859375 30.222656 C 45.324219 30.222656 45.703125 30.597656 45.703125 31.058594 L 45.703125 31.738281 C 45.703125 31.855469 45.605469 31.953125 45.488281 31.953125 Z M 37.027344 31.523438 L 45.269531 31.523438 L 45.269531 31.058594 C 45.269531 30.832031 45.085938 30.652344 44.859375 30.652344 L 43.347656 30.652344 C 43.253906 30.652344 43.167969 30.589844 43.140625 30.496094 L 42.492188 28.335938 L 39.96875 28.335938 L 39.316406 30.496094 C 39.289062 30.589844 39.203125 30.652344 39.109375 30.652344 L 37.4375 30.652344 C 37.210938 30.652344 37.027344 30.832031 37.027344 31.058594 Z M 37.027344 31.523438 "/><path style=" stroke:none;fill-rule:nonzero;fill:#ffffff;fill-opacity:1;" d="M 34.222656 16.4375 L 48.335938 16.4375 L 48.335938 25.335938 L 34.222656 25.335938 Z M 34.222656 16.4375 "/><path style=" stroke:none;fill-rule:nonzero;fill:#403054;fill-opacity:1;" d="M 48.335938 25.550781 L 34.222656 25.550781 C 34.101562 25.550781 34.003906 25.453125 34.003906 25.335938 L 34.003906 16.4375 C 34.003906 16.320312 34.101562 16.222656 34.222656 16.222656 C 34.34375 16.222656 34.441406 16.320312 34.441406 16.4375 L 34.441406 25.121094 L 48.117188 25.121094 L 48.117188 16.4375 C 48.117188 16.320312 48.214844 16.222656 48.335938 16.222656 C 48.457031 16.222656 48.554688 16.320312 48.554688 16.4375 L 48.554688 25.335938 C 48.554688 25.453125 48.457031 25.550781 48.335938 25.550781 Z M 48.335938 25.550781 "/><path style=" stroke:none;fill-rule:nonzero;fill:#403054;fill-opacity:1;" d="M 41.28125 25.550781 L 34.222656 25.550781 C 34.101562 25.550781 34.003906 25.453125 34.003906 25.335938 L 34.003906 18.5 C 34.003906 18.382812 34.101562 18.285156 34.222656 18.285156 C 34.34375 18.285156 34.441406 18.382812 34.441406 18.5 L 34.441406 25.121094 L 41.28125 25.121094 C 41.398438 25.121094 41.496094 25.214844 41.496094 25.335938 C 41.496094 25.453125 41.398438 25.550781 41.28125 25.550781 Z M 41.28125 25.550781 "/><path style=" stroke:none;fill-rule:nonzero;fill:#57dbff;fill-opacity:1;" d="M 48.246094 26.695312 L 34.3125 26.695312 C 33.933594 26.695312 33.625 26.390625 33.625 26.015625 C 33.625 25.640625 33.933594 25.335938 34.3125 25.335938 L 48.246094 25.335938 C 48.625 25.335938 48.933594 25.640625 48.933594 26.015625 C 48.933594 26.390625 48.625 26.695312 48.246094 26.695312 Z M 48.246094 26.695312 "/><path style=" stroke:none;fill-rule:nonzero;fill:#403054;fill-opacity:1;" d="M 48.246094 26.910156 L 34.3125 26.910156 C 33.8125 26.910156 33.40625 26.507812 33.40625 26.015625 C 33.40625 25.519531 33.8125 25.121094 34.3125 25.121094 L 48.246094 25.121094 C 48.746094 25.121094 49.152344 25.519531 49.152344 26.015625 C 49.152344 26.507812 48.746094 26.910156 48.246094 26.910156 Z M 34.3125 25.550781 C 34.054688 25.550781 33.84375 25.757812 33.84375 26.015625 C 33.84375 26.273438 34.054688 26.480469 34.3125 26.480469 L 48.246094 26.480469 C 48.503906 26.480469 48.71875 26.273438 48.71875 26.015625 C 48.71875 25.757812 48.503906 25.550781 48.246094 25.550781 Z M 34.3125 25.550781 "/><path style=" stroke:none;fill-rule:nonzero;fill:#ffffff;fill-opacity:1;" d="M 48.457031 13.355469 L 34.101562 13.355469 C 33.839844 13.355469 33.625 13.566406 33.625 13.828125 L 33.625 15.546875 C 33.625 16.59375 34.480469 17.4375 35.539062 17.4375 C 36.59375 17.4375 37.453125 16.59375 37.453125 15.546875 L 37.453125 15.191406 L 48.933594 15.191406 L 48.933594 13.828125 C 48.933594 13.566406 48.71875 13.355469 48.457031 13.355469 Z M 48.457031 13.355469 "/><path style=" stroke:none;fill-rule:nonzero;fill:#403054;fill-opacity:1;" d="M 35.539062 17.652344 C 34.363281 17.652344 33.40625 16.707031 33.40625 15.546875 L 33.40625 13.828125 C 33.40625 13.449219 33.71875 13.140625 34.101562 13.140625 L 48.457031 13.140625 C 48.839844 13.140625 49.152344 13.449219 49.152344 13.828125 L 49.152344 15.191406 C 49.152344 15.3125 49.054688 15.40625 48.933594 15.40625 L 37.667969 15.40625 L 37.667969 15.546875 C 37.667969 16.707031 36.714844 17.652344 35.539062 17.652344 Z M 34.101562 13.570312 C 33.960938 13.570312 33.84375 13.6875 33.84375 13.828125 L 33.84375 15.546875 C 33.84375 16.472656 34.601562 17.222656 35.539062 17.222656 C 36.472656 17.222656 37.234375 16.472656 37.234375 15.546875 L 37.234375 15.191406 C 37.234375 15.074219 37.332031 14.976562 37.453125 14.976562 L 48.71875 14.976562 L 48.71875 13.828125 C 48.71875 13.6875 48.601562 13.570312 48.457031 13.570312 Z M 34.101562 13.570312 "/><path style=" stroke:none;fill-rule:nonzero;fill:#ffffff;fill-opacity:1;" d="M 45.105469 13.355469 L 41.28125 13.355469 L 41.28125 15.546875 C 41.28125 16.59375 42.136719 17.4375 43.195312 17.4375 C 44.25 17.4375 45.105469 16.59375 45.105469 15.546875 Z M 45.105469 13.355469 "/><path style=" stroke:none;fill-rule:nonzero;fill:#403054;fill-opacity:1;" d="M 43.191406 17.652344 C 42.019531 17.652344 41.0625 16.707031 41.0625 15.546875 L 41.0625 13.355469 C 41.0625 13.238281 41.160156 13.140625 41.28125 13.140625 L 45.105469 13.140625 C 45.226562 13.140625 45.324219 13.238281 45.324219 13.355469 L 45.324219 15.546875 C 45.324219 16.707031 44.367188 17.652344 43.191406 17.652344 Z M 41.496094 13.570312 L 41.496094 15.546875 C 41.496094 16.472656 42.257812 17.222656 43.191406 17.222656 C 44.128906 17.222656 44.890625 16.472656 44.890625 15.546875 L 44.890625 13.570312 Z M 41.496094 13.570312 "/><path style=" stroke:none;fill-rule:nonzero;fill:#ffe14d;fill-opacity:1;" d="M 37.453125 13.355469 L 37.453125 15.191406 C 37.453125 15.191406 37.453125 15.546875 37.453125 15.546875 C 37.453125 16.59375 38.308594 17.4375 39.367188 17.4375 C 40.421875 17.4375 41.28125 16.59375 41.28125 15.546875 L 41.28125 15.191406 C 41.28125 15.191406 41.28125 13.355469 41.28125 13.355469 Z M 37.453125 13.355469 "/><path style=" stroke:none;fill-rule:nonzero;fill:#403054;fill-opacity:1;" d="M 39.367188 17.652344 C 38.191406 17.652344 37.234375 16.707031 37.234375 15.546875 L 37.234375 13.355469 C 37.234375 13.238281 37.332031 13.140625 37.453125 13.140625 L 41.28125 13.140625 C 41.398438 13.140625 41.496094 13.238281 41.496094 13.355469 L 41.496094 15.546875 C 41.496094 16.707031 40.542969 17.652344 39.367188 17.652344 Z M 37.667969 13.570312 L 37.667969 15.546875 C 37.667969 16.472656 38.429688 17.222656 39.367188 17.222656 C 40.300781 17.222656 41.0625 16.472656 41.0625 15.546875 L 41.0625 13.570312 Z M 37.667969 13.570312 "/><path style=" stroke:none;fill-rule:nonzero;fill:#ffe14d;fill-opacity:1;" d="M 48.429688 13.355469 L 45.105469 13.355469 L 45.105469 15.546875 C 45.105469 16.59375 45.964844 17.4375 47.019531 17.4375 C 48.078125 17.4375 48.933594 16.59375 48.933594 15.546875 L 48.933594 13.855469 C 48.933594 13.578125 48.707031 13.355469 48.429688 13.355469 Z M 48.429688 13.355469 "/><path style=" stroke:none;fill-rule:nonzero;fill:#403054;fill-opacity:1;" d="M 47.019531 17.652344 C 45.84375 17.652344 44.890625 16.707031 44.890625 15.546875 L 44.890625 13.355469 C 44.890625 13.238281 44.988281 13.140625 45.105469 13.140625 L 48.429688 13.140625 C 48.828125 13.140625 49.152344 13.460938 49.152344 13.855469 L 49.152344 15.546875 C 49.152344 16.707031 48.195312 17.652344 47.019531 17.652344 Z M 45.324219 13.570312 L 45.324219 15.546875 C 45.324219 16.472656 46.085938 17.222656 47.019531 17.222656 C 47.957031 17.222656 48.71875 16.472656 48.71875 15.546875 L 48.71875 13.855469 C 48.71875 13.699219 48.589844 13.570312 48.429688 13.570312 Z M 45.324219 13.570312 "/><path style=" stroke:none;fill-rule:nonzero;fill:#403054;fill-opacity:1;" d="M 45.84375 25.550781 C 45.726562 25.550781 45.628906 25.453125 45.628906 25.335938 L 45.628906 19.570312 L 42.816406 19.570312 L 42.816406 25.335938 C 42.816406 25.453125 42.71875 25.550781 42.597656 25.550781 C 42.476562 25.550781 42.378906 25.453125 42.378906 25.335938 L 42.378906 19.355469 C 42.378906 19.238281 42.476562 19.140625 42.597656 19.140625 L 45.84375 19.140625 C 45.964844 19.140625 46.0625 19.238281 46.0625 19.355469 L 46.0625 25.335938 C 46.0625 25.453125 45.964844 25.550781 45.84375 25.550781 Z M 45.84375 25.550781 "/><path style=" stroke:none;fill-rule:nonzero;fill:#ffffff;fill-opacity:1;" d="M 36.511719 19.355469 L 39.757812 19.355469 L 39.757812 22.566406 L 36.511719 22.566406 Z M 36.511719 19.355469 "/><path style=" stroke:none;fill-rule:nonzero;fill:#403054;fill-opacity:1;" d="M 39.757812 22.78125 L 36.511719 22.78125 C 36.390625 22.78125 36.292969 22.683594 36.292969 22.566406 L 36.292969 19.355469 C 36.292969 19.238281 36.390625 19.140625 36.511719 19.140625 L 39.757812 19.140625 C 39.878906 19.140625 39.976562 19.238281 39.976562 19.355469 L 39.976562 22.566406 C 39.976562 22.683594 39.878906 22.78125 39.757812 22.78125 Z M 36.730469 22.351562 L 39.539062 22.351562 L 39.539062 19.570312 L 36.730469 19.570312 Z M 36.730469 22.351562 "/><g clip-rule="nonzero" clip-path="url(#feff9bbac9)"><path style=" stroke:none;fill-rule:nonzero;fill:#ffffff;fill-opacity:1;" d="M 18.683594 19.179688 L 21.140625 19.179688 L 29.152344 21.269531 C 29.230469 21.289062 29.285156 21.351562 29.285156 21.425781 L 29.285156 22.695312 C 29.285156 22.785156 29.203125 22.859375 29.105469 22.859375 L 28.035156 22.859375 L 28.035156 35.449219 L 11.789062 35.449219 L 11.789062 22.859375 L 10.722656 22.859375 C 10.621094 22.859375 10.539062 22.785156 10.539062 22.695312 L 10.539062 21.425781 C 10.539062 21.351562 10.59375 21.289062 10.671875 21.269531 Z M 18.683594 19.179688 "/></g><g clip-rule="nonzero" clip-path="url(#d068c0bdd4)"><path style=" stroke:none;fill-rule:nonzero;fill:#403054;fill-opacity:1;" d="M 11.789062 35.664062 C 11.734375 35.664062 11.675781 35.640625 11.636719 35.601562 C 11.59375 35.558594 11.574219 35.503906 11.574219 35.449219 L 11.574219 23.074219 L 10.722656 23.074219 C 10.5 23.074219 10.324219 22.902344 10.324219 22.695312 L 10.324219 21.425781 C 10.324219 21.253906 10.445312 21.105469 10.617188 21.0625 L 18.628906 18.972656 C 18.644531 18.96875 18.664062 18.964844 18.683594 18.964844 L 21.140625 18.964844 C 21.160156 18.964844 21.179688 18.96875 21.195312 18.972656 L 29.207031 21.0625 C 29.382812 21.105469 29.5 21.253906 29.5 21.425781 L 29.5 22.695312 C 29.5 22.902344 29.324219 23.074219 29.105469 23.074219 L 28.25 23.074219 L 28.25 35.449219 C 28.25 35.566406 28.15625 35.664062 28.035156 35.664062 Z M 10.757812 22.644531 L 11.789062 22.644531 C 11.910156 22.644531 12.007812 22.738281 12.007812 22.859375 L 12.007812 35.234375 L 27.816406 35.234375 L 27.816406 22.859375 C 27.816406 22.738281 27.914062 22.644531 28.035156 22.644531 L 29.066406 22.644531 L 29.066406 21.46875 L 21.113281 19.394531 L 18.710938 19.394531 L 10.757812 21.46875 Z M 10.757812 22.644531 "/></g><path style=" stroke:none;fill-rule:nonzero;fill:#ffe14d;fill-opacity:1;" d="M 15.382812 26.535156 L 20.847656 26.535156 L 20.847656 30.921875 L 15.382812 30.921875 Z M 15.382812 26.535156 "/><path style=" stroke:none;fill-rule:nonzero;fill:#403054;fill-opacity:1;" d="M 20.847656 31.136719 C 20.730469 31.136719 20.632812 31.039062 20.632812 30.921875 L 20.632812 26.75 L 15.601562 26.75 L 15.601562 30.921875 C 15.601562 31.039062 15.503906 31.136719 15.382812 31.136719 C 15.261719 31.136719 15.164062 31.039062 15.164062 30.921875 L 15.164062 26.535156 C 15.164062 26.417969 15.261719 26.320312 15.382812 26.320312 L 20.847656 26.320312 C 20.96875 26.320312 21.066406 26.417969 21.066406 26.535156 L 21.066406 30.921875 C 21.066406 31.039062 20.96875 31.136719 20.847656 31.136719 Z M 20.847656 31.136719 "/><path style=" stroke:none;fill-rule:nonzero;fill:#57dbff;fill-opacity:1;" d="M 20.847656 27.386719 L 24.910156 27.386719 L 24.910156 31.0625 L 20.847656 31.0625 Z M 20.847656 27.386719 "/><path style=" stroke:none;fill-rule:nonzero;fill:#403054;fill-opacity:1;" d="M 24.910156 31.277344 L 20.847656 31.277344 C 20.730469 31.277344 20.632812 31.183594 20.632812 31.0625 L 20.632812 27.386719 C 20.632812 27.265625 20.730469 27.171875 20.847656 27.171875 L 24.910156 27.171875 C 25.03125 27.171875 25.128906 27.265625 25.128906 27.386719 L 25.128906 31.0625 C 25.128906 31.183594 25.03125 31.277344 24.910156 31.277344 Z M 21.066406 30.847656 L 24.691406 30.847656 L 24.691406 27.601562 L 21.066406 27.601562 Z M 21.066406 30.847656 "/><path style=" stroke:none;fill-rule:nonzero;fill:#403054;fill-opacity:1;" d="M 20.832031 31.144531 C 20.773438 31.144531 20.714844 31.121094 20.671875 31.074219 C 20.59375 30.984375 20.597656 30.851562 20.6875 30.769531 L 22.039062 29.542969 C 22.128906 29.464844 22.265625 29.46875 22.347656 29.558594 C 22.425781 29.644531 22.421875 29.78125 22.332031 29.863281 L 20.980469 31.085938 C 20.9375 31.125 20.886719 31.144531 20.832031 31.144531 Z M 20.832031 31.144531 "/><path style=" stroke:none;fill-rule:nonzero;fill:#403054;fill-opacity:1;" d="M 23.371094 28.84375 C 23.3125 28.84375 23.253906 28.820312 23.210938 28.773438 C 23.128906 28.6875 23.136719 28.550781 23.222656 28.472656 L 24.601562 27.226562 C 24.6875 27.144531 24.824219 27.152344 24.90625 27.238281 C 24.988281 27.328125 24.980469 27.460938 24.894531 27.542969 L 23.519531 28.789062 C 23.476562 28.824219 23.421875 28.84375 23.371094 28.84375 Z M 23.371094 28.84375 "/><path style=" stroke:none;fill-rule:nonzero;fill:#403054;fill-opacity:1;" d="M 26.347656 23.960938 L 13.230469 23.960938 C 13.109375 23.960938 13.011719 23.863281 13.011719 23.746094 C 13.011719 23.628906 13.109375 23.53125 13.230469 23.53125 L 26.347656 23.53125 C 26.46875 23.53125 26.566406 23.628906 26.566406 23.746094 C 26.566406 23.863281 26.46875 23.960938 26.347656 23.960938 Z M 26.347656 23.960938 "/><path style=" stroke:none;fill-rule:nonzero;fill:#57dbff;fill-opacity:1;" d="M 13.707031 31.0625 L 19.175781 31.0625 L 19.175781 35.449219 L 13.707031 35.449219 Z M 13.707031 31.0625 "/><path style=" stroke:none;fill-rule:nonzero;fill:#403054;fill-opacity:1;" d="M 19.175781 35.664062 L 13.707031 35.664062 C 13.585938 35.664062 13.488281 35.566406 13.488281 35.449219 L 13.488281 31.0625 C 13.488281 30.945312 13.585938 30.847656 13.707031 30.847656 L 19.175781 30.847656 C 19.292969 30.847656 19.390625 30.945312 19.390625 31.0625 L 19.390625 35.449219 C 19.390625 35.566406 19.292969 35.664062 19.175781 35.664062 Z M 13.925781 35.234375 L 18.957031 35.234375 L 18.957031 31.277344 L 13.925781 31.277344 Z M 13.925781 35.234375 "/><path style=" stroke:none;fill-rule:nonzero;fill:#ffe14d;fill-opacity:1;" d="M 20.226562 31.0625 L 25.691406 31.0625 L 25.691406 35.449219 L 20.226562 35.449219 Z M 20.226562 31.0625 "/><path style=" stroke:none;fill-rule:nonzero;fill:#403054;fill-opacity:1;" d="M 25.691406 35.664062 L 20.226562 35.664062 C 20.105469 35.664062 20.007812 35.566406 20.007812 35.449219 L 20.007812 31.0625 C 20.007812 30.945312 20.105469 30.847656 20.226562 30.847656 L 25.691406 30.847656 C 25.8125 30.847656 25.910156 30.945312 25.910156 31.0625 L 25.910156 35.449219 C 25.910156 35.566406 25.8125 35.664062 25.691406 35.664062 Z M 20.441406 35.234375 L 25.472656 35.234375 L 25.472656 31.277344 L 20.441406 31.277344 Z M 20.441406 35.234375 "/><path style=" stroke:none;fill-rule:nonzero;fill:#ffffff;fill-opacity:1;" d="M 22.957031 48.734375 C 22.957031 48.734375 32.132812 48.734375 32.132812 48.734375 L 32.132812 39.75 C 32.132812 39.261719 31.660156 38.867188 31.082031 38.867188 L 26.742188 38.867188 C 26.324219 38.867188 25.941406 39.078125 25.777344 39.402344 L 23.332031 44.207031 C 23.085938 44.691406 22.957031 45.214844 22.957031 45.742188 Z M 22.957031 48.734375 "/><path style=" stroke:none;fill-rule:nonzero;fill:#403054;fill-opacity:1;" d="M 32.132812 48.949219 C 32.097656 48.949219 23.050781 48.949219 22.957031 48.949219 C 22.902344 48.949219 22.84375 48.929688 22.804688 48.886719 C 22.761719 48.847656 22.742188 48.792969 22.742188 48.734375 L 22.742188 45.742188 C 22.742188 45.179688 22.875 44.628906 23.136719 44.109375 L 25.585938 39.308594 C 25.785156 38.910156 26.242188 38.652344 26.742188 38.652344 L 31.082031 38.652344 C 31.78125 38.652344 32.347656 39.144531 32.347656 39.75 L 32.347656 48.734375 C 32.347656 48.855469 32.25 48.949219 32.132812 48.949219 Z M 26.742188 39.082031 C 26.402344 39.082031 26.101562 39.246094 25.972656 39.5 L 23.527344 44.304688 C 23.292969 44.761719 23.175781 45.246094 23.175781 45.742188 L 23.175781 48.519531 L 31.914062 48.519531 L 31.914062 39.75 C 31.914062 39.382812 31.539062 39.082031 31.082031 39.082031 Z M 26.742188 39.082031 "/><path style=" stroke:none;fill-rule:nonzero;fill:#ffffff;fill-opacity:1;" d="M 28.957031 40.324219 L 25.324219 40.292969 L 23.863281 43.164062 L 28.957031 43.164062 C 29.292969 43.164062 29.566406 42.910156 29.566406 42.597656 L 29.566406 40.890625 C 29.566406 40.578125 29.292969 40.324219 28.957031 40.324219 Z M 28.957031 40.324219 "/><path style=" stroke:none;fill-rule:nonzero;fill:#403054;fill-opacity:1;" d="M 28.957031 43.378906 L 23.863281 43.378906 C 23.789062 43.378906 23.71875 43.339844 23.679688 43.277344 C 23.636719 43.214844 23.636719 43.136719 23.667969 43.070312 L 25.132812 40.195312 C 25.167969 40.125 25.242188 40.078125 25.324219 40.078125 C 25.324219 40.078125 25.328125 40.078125 25.328125 40.078125 L 28.957031 40.109375 C 29.414062 40.109375 29.78125 40.460938 29.78125 40.890625 L 29.78125 42.597656 C 29.78125 43.03125 29.410156 43.378906 28.957031 43.378906 Z M 24.214844 42.949219 L 28.957031 42.949219 C 29.171875 42.949219 29.347656 42.792969 29.347656 42.597656 L 29.347656 40.890625 C 29.347656 40.695312 29.171875 40.539062 28.957031 40.539062 L 25.457031 40.507812 Z M 24.214844 42.949219 "/><path style=" stroke:none;fill-rule:nonzero;fill:#ffffff;fill-opacity:1;" d="M 24.390625 45.300781 L 22.984375 45.300781 L 22.957031 47.144531 L 24.390625 47.144531 C 24.90625 47.144531 25.324219 46.730469 25.324219 46.222656 C 25.324219 45.710938 24.90625 45.300781 24.390625 45.300781 Z M 24.390625 45.300781 "/><path style=" stroke:none;fill-rule:nonzero;fill:#403054;fill-opacity:1;" d="M 24.390625 47.359375 L 22.957031 47.359375 C 22.898438 47.359375 22.84375 47.335938 22.804688 47.292969 C 22.761719 47.253906 22.738281 47.199219 22.742188 47.140625 L 22.765625 45.296875 C 22.769531 45.179688 22.867188 45.085938 22.984375 45.085938 L 24.390625 45.085938 C 25.027344 45.085938 25.542969 45.59375 25.542969 46.222656 C 25.542969 46.847656 25.027344 47.359375 24.390625 47.359375 Z M 23.179688 46.929688 L 24.390625 46.929688 C 24.785156 46.929688 25.109375 46.613281 25.109375 46.222656 C 25.109375 45.832031 24.785156 45.515625 24.390625 45.515625 L 23.199219 45.515625 Z M 23.179688 46.929688 "/><path style=" stroke:none;fill-rule:nonzero;fill:#57dbff;fill-opacity:1;" d="M 39.0625 41.882812 L 45.996094 41.882812 L 45.996094 48.734375 L 39.0625 48.734375 Z M 39.0625 41.882812 "/><path style=" stroke:none;fill-rule:nonzero;fill:#403054;fill-opacity:1;" d="M 45.996094 48.949219 L 39.0625 48.949219 C 38.945312 48.949219 38.847656 48.855469 38.847656 48.734375 L 38.847656 41.882812 C 38.847656 41.765625 38.945312 41.667969 39.0625 41.667969 L 45.996094 41.667969 C 46.117188 41.667969 46.214844 41.765625 46.214844 41.882812 L 46.214844 48.734375 C 46.214844 48.855469 46.117188 48.949219 45.996094 48.949219 Z M 39.28125 48.519531 L 45.78125 48.519531 L 45.78125 42.097656 L 39.28125 42.097656 Z M 39.28125 48.519531 "/><path style=" stroke:none;fill-rule:nonzero;fill:#ffe14d;fill-opacity:1;" d="M 32.132812 41.882812 L 39.0625 41.882812 L 39.0625 48.734375 L 32.132812 48.734375 Z M 32.132812 41.882812 "/><path style=" stroke:none;fill-rule:nonzero;fill:#403054;fill-opacity:1;" d="M 39.0625 48.949219 L 32.132812 48.949219 C 32.011719 48.949219 31.914062 48.855469 31.914062 48.734375 L 31.914062 41.882812 C 31.914062 41.765625 32.011719 41.667969 32.132812 41.667969 L 39.0625 41.667969 C 39.183594 41.667969 39.28125 41.765625 39.28125 41.882812 L 39.28125 48.734375 C 39.28125 48.855469 39.183594 48.949219 39.0625 48.949219 Z M 32.347656 48.519531 L 38.847656 48.519531 L 38.847656 42.097656 L 32.347656 42.097656 Z M 32.347656 48.519531 "/><path style=" stroke:none;fill-rule:nonzero;fill:#ffe14d;fill-opacity:1;" d="M 45.359375 35.03125 C 45.710938 35.03125 45.996094 35.3125 45.996094 35.664062 L 45.996094 41.882812 L 39.0625 41.882812 L 39.0625 35.03125 Z M 45.359375 35.03125 "/><path style=" stroke:none;fill-rule:nonzero;fill:#403054;fill-opacity:1;" d="M 45.996094 42.097656 L 39.0625 42.097656 C 38.945312 42.097656 38.847656 42.003906 38.847656 41.882812 L 38.847656 35.03125 C 38.847656 34.914062 38.945312 34.816406 39.0625 34.816406 L 45.359375 34.816406 C 45.832031 34.816406 46.214844 35.195312 46.214844 35.664062 L 46.214844 41.882812 C 46.214844 42.003906 46.117188 42.097656 45.996094 42.097656 Z M 39.28125 41.667969 L 45.78125 41.667969 L 45.78125 35.664062 C 45.78125 35.433594 45.589844 35.246094 45.359375 35.246094 L 39.28125 35.246094 Z M 39.28125 41.667969 "/><path style=" stroke:none;fill-rule:nonzero;fill:#ffffff;fill-opacity:1;" d="M 32.769531 35.03125 L 39.066406 35.03125 L 39.066406 41.882812 L 32.132812 41.882812 L 32.132812 35.664062 C 32.132812 35.3125 32.417969 35.03125 32.769531 35.03125 Z M 32.769531 35.03125 "/><path style=" stroke:none;fill-rule:nonzero;fill:#403054;fill-opacity:1;" d="M 39.0625 42.097656 L 32.132812 42.097656 C 32.011719 42.097656 31.914062 42.003906 31.914062 41.882812 L 31.914062 35.664062 C 31.914062 35.195312 32.300781 34.816406 32.769531 34.816406 L 39.0625 34.816406 C 39.183594 34.816406 39.28125 34.914062 39.28125 35.03125 L 39.28125 41.882812 C 39.28125 41.941406 39.257812 41.996094 39.21875 42.035156 C 39.175781 42.074219 39.121094 42.097656 39.0625 42.097656 Z M 32.347656 41.667969 L 38.847656 41.667969 L 38.847656 35.246094 L 32.769531 35.246094 C 32.539062 35.246094 32.347656 35.433594 32.347656 35.664062 Z M 32.347656 41.667969 "/><g clip-rule="nonzero" clip-path="url(#01dfd75375)"><path style=" stroke:none;fill-rule:nonzero;fill:#ffffff;fill-opacity:1;" d="M 26.191406 48.917969 C 26.191406 49.898438 26.996094 50.691406 27.988281 50.691406 C 28.976562 50.691406 29.78125 49.898438 29.78125 48.917969 C 29.78125 47.9375 28.976562 47.144531 27.988281 47.144531 C 26.996094 47.144531 26.191406 47.9375 26.191406 48.917969 Z M 26.191406 48.917969 "/></g><g clip-rule="nonzero" clip-path="url(#32aca41588)"><path style=" stroke:none;fill-rule:nonzero;fill:#403054;fill-opacity:1;" d="M 27.988281 50.90625 C 26.878906 50.90625 25.976562 50.011719 25.976562 48.917969 C 25.976562 47.820312 26.878906 46.929688 27.988281 46.929688 C 29.09375 46.929688 30 47.820312 30 48.917969 C 30 50.011719 29.09375 50.90625 27.988281 50.90625 Z M 27.988281 47.359375 C 27.117188 47.359375 26.410156 48.058594 26.410156 48.917969 C 26.410156 49.777344 27.117188 50.476562 27.988281 50.476562 C 28.855469 50.476562 29.5625 49.777344 29.5625 48.917969 C 29.5625 48.058594 28.855469 47.359375 27.988281 47.359375 Z M 27.988281 47.359375 "/></g><g clip-rule="nonzero" clip-path="url(#e94849bc9d)"><path style=" stroke:none;fill-rule:nonzero;fill:#ffffff;fill-opacity:1;" d="M 39.433594 48.917969 C 39.433594 49.898438 40.234375 50.691406 41.226562 50.691406 C 42.21875 50.691406 43.019531 49.898438 43.019531 48.917969 C 43.019531 47.9375 42.21875 47.144531 41.226562 47.144531 C 40.234375 47.144531 39.433594 47.9375 39.433594 48.917969 Z M 39.433594 48.917969 "/></g><g clip-rule="nonzero" clip-path="url(#4b3486b227)"><path style=" stroke:none;fill-rule:nonzero;fill:#403054;fill-opacity:1;" d="M 41.226562 50.90625 C 40.117188 50.90625 39.214844 50.011719 39.214844 48.917969 C 39.214844 47.820312 40.117188 46.929688 41.226562 46.929688 C 42.335938 46.929688 43.238281 47.820312 43.238281 48.917969 C 43.238281 50.011719 42.335938 50.90625 41.226562 50.90625 Z M 41.226562 47.359375 C 40.355469 47.359375 39.648438 48.058594 39.648438 48.917969 C 39.648438 49.777344 40.355469 50.476562 41.226562 50.476562 C 42.097656 50.476562 42.804688 49.777344 42.804688 48.917969 C 42.804688 48.058594 42.097656 47.359375 41.226562 47.359375 Z M 41.226562 47.359375 "/></g><path style=" stroke:none;fill-rule:nonzero;fill:#ffffff;fill-opacity:1;" d="M 41.722656 35.03125 L 43.339844 35.03125 L 43.339844 37.457031 L 41.722656 37.457031 Z M 41.722656 35.03125 "/><path style=" stroke:none;fill-rule:nonzero;fill:#403054;fill-opacity:1;" d="M 43.335938 37.671875 L 41.722656 37.671875 C 41.605469 37.671875 41.507812 37.578125 41.507812 37.457031 L 41.507812 35.03125 C 41.507812 34.914062 41.605469 34.816406 41.722656 34.816406 L 43.335938 34.816406 C 43.457031 34.816406 43.554688 34.914062 43.554688 35.03125 L 43.554688 37.457031 C 43.554688 37.578125 43.457031 37.671875 43.335938 37.671875 Z M 41.941406 37.242188 L 43.121094 37.242188 L 43.121094 35.246094 L 41.941406 35.246094 Z M 41.941406 37.242188 "/><path style=" stroke:none;fill-rule:nonzero;fill:#ffffff;fill-opacity:1;" d="M 41.722656 41.882812 L 43.339844 41.882812 L 43.339844 44.324219 L 41.722656 44.324219 Z M 41.722656 41.882812 "/><path style=" stroke:none;fill-rule:nonzero;fill:#403054;fill-opacity:1;" d="M 43.335938 44.539062 L 41.722656 44.539062 C 41.605469 44.539062 41.507812 44.441406 41.507812 44.324219 L 41.507812 41.882812 C 41.507812 41.765625 41.605469 41.667969 41.722656 41.667969 L 43.335938 41.667969 C 43.457031 41.667969 43.554688 41.765625 43.554688 41.882812 L 43.554688 44.324219 C 43.554688 44.441406 43.457031 44.539062 43.335938 44.539062 Z M 41.941406 44.109375 L 43.121094 44.109375 L 43.121094 42.097656 L 41.941406 42.097656 Z M 41.941406 44.109375 "/><path style=" stroke:none;fill-rule:nonzero;fill:#ffffff;fill-opacity:1;" d="M 34.894531 35.03125 L 36.511719 35.03125 L 36.511719 37.457031 L 34.894531 37.457031 Z M 34.894531 35.03125 "/><path style=" stroke:none;fill-rule:nonzero;fill:#403054;fill-opacity:1;" d="M 36.511719 37.671875 L 34.894531 37.671875 C 34.777344 37.671875 34.679688 37.578125 34.679688 37.457031 L 34.679688 35.03125 C 34.679688 34.914062 34.777344 34.816406 34.894531 34.816406 L 36.511719 34.816406 C 36.628906 34.816406 36.726562 34.914062 36.726562 35.03125 L 36.726562 37.457031 C 36.726562 37.578125 36.628906 37.671875 36.511719 37.671875 Z M 35.113281 37.242188 L 36.292969 37.242188 L 36.292969 35.246094 L 35.113281 35.246094 Z M 35.113281 37.242188 "/><path style=" stroke:none;fill-rule:nonzero;fill:#ffffff;fill-opacity:1;" d="M 34.894531 41.882812 L 36.511719 41.882812 L 36.511719 44.324219 L 34.894531 44.324219 Z M 34.894531 41.882812 "/><path style=" stroke:none;fill-rule:nonzero;fill:#403054;fill-opacity:1;" d="M 36.511719 44.539062 L 34.894531 44.539062 C 34.777344 44.539062 34.679688 44.441406 34.679688 44.324219 L 34.679688 41.882812 C 34.679688 41.765625 34.777344 41.667969 34.894531 41.667969 L 36.511719 41.667969 C 36.628906 41.667969 36.726562 41.765625 36.726562 41.882812 L 36.726562 44.324219 C 36.726562 44.441406 36.628906 44.539062 36.511719 44.539062 Z M 35.113281 44.109375 L 36.292969 44.109375 L 36.292969 42.097656 L 35.113281 42.097656 Z M 35.113281 44.109375 "/></g></svg>