<svg xmlns="http://www.w3.org/2000/svg" xmlns:xlink="http://www.w3.org/1999/xlink" width="80" zoomAndPan="magnify" viewBox="0 0 60 60" height="80" preserveAspectRatio="xMidYMid meet" version="1.2"><defs><clipPath id="93f0732751"><path d="M 6 6 L 29 6 L 29 49.5 L 6 49.5 Z M 6 6 "/></clipPath></defs><g id="5a75dc0f7c"><path style=" stroke:none;fill-rule:nonzero;fill:#bae7e2;fill-opacity:1;" d="M 44.289062 28.277344 L 28.269531 36.859375 L 22.300781 25.894531 L 38.316406 17.3125 L 44.289062 28.277344 "/><path style=" stroke:none;fill-rule:nonzero;fill:#fbbf53;fill-opacity:1;" d="M 37.140625 31.210938 L 34.660156 32.539062 L 33.320312 30.078125 L 35.800781 28.746094 L 37.140625 31.210938 "/><path style=" stroke:none;fill-rule:nonzero;fill:#fbbf53;fill-opacity:1;" d="M 41.601562 28.820312 L 39.117188 30.152344 L 37.777344 27.6875 L 40.261719 26.359375 L 41.601562 28.820312 "/><path style=" stroke:none;fill-rule:nonzero;fill:#2a3064;fill-opacity:1;" d="M 39.203125 18.9375 L 23.183594 27.519531 L 22.300781 25.894531 L 38.316406 17.3125 L 39.203125 18.9375 "/><path style=" stroke:none;fill-rule:nonzero;fill:#ffffff;fill-opacity:1;" d="M 31.628906 29.691406 L 27.484375 31.910156 L 25.25 27.804688 L 29.390625 25.585938 L 31.628906 29.691406 "/><path style=" stroke:none;fill-rule:nonzero;fill:#8fd9e1;fill-opacity:1;" d="M 28.722656 28.144531 L 28.59375 30.027344 L 27.875 29.625 L 27.746094 31.507812 L 31.320312 29.59375 L 28.722656 28.144531 "/><path style=" stroke:none;fill-rule:nonzero;fill:#8fd9e1;fill-opacity:1;" d="M 27.890625 28.109375 C 28.109375 28.507812 27.957031 29.003906 27.554688 29.222656 C 27.152344 29.4375 26.652344 29.289062 26.433594 28.886719 C 26.21875 28.488281 26.367188 27.992188 26.769531 27.777344 C 27.171875 27.558594 27.675781 27.710938 27.890625 28.109375 "/><path style=" stroke:none;fill-rule:nonzero;fill:#2a3064;fill-opacity:1;" d="M 39.105469 20.835938 L 30.921875 25.222656 L 30.730469 24.867188 L 38.914062 20.484375 L 39.105469 20.835938 "/><path style=" stroke:none;fill-rule:nonzero;fill:#2a3064;fill-opacity:1;" d="M 39.789062 22.089844 L 31.605469 26.472656 L 31.410156 26.117188 L 39.59375 21.734375 L 39.789062 22.089844 "/><path style=" stroke:none;fill-rule:nonzero;fill:#ffffff;fill-opacity:1;" d="M 40.46875 23.339844 L 32.285156 27.722656 L 32.09375 27.371094 L 40.277344 22.984375 L 40.46875 23.339844 "/><path style=" stroke:none;fill-rule:nonzero;fill:#2a3064;fill-opacity:1;" d="M 41.148438 24.589844 L 32.96875 28.976562 L 32.773438 28.621094 L 40.957031 24.234375 L 41.148438 24.589844 "/><path style=" stroke:none;fill-rule:nonzero;fill:#fbbf53;fill-opacity:1;" d="M 32.683594 33.597656 L 30.199219 34.929688 L 28.859375 32.464844 L 31.34375 31.136719 L 32.683594 33.597656 "/><path style=" stroke:none;fill-rule:nonzero;fill:#ffffff;fill-opacity:1;" d="M 32.332031 33.496094 L 32.175781 33.578125 L 32.121094 33.476562 L 32.171875 33.449219 L 32.144531 33.394531 L 32.25 33.339844 L 32.332031 33.496094 "/><path style=" stroke:none;fill-rule:nonzero;fill:#ffffff;fill-opacity:1;" d="M 30.84375 34.292969 L 30.652344 34.394531 L 30.597656 34.292969 L 30.785156 34.191406 Z M 31.222656 34.089844 L 31.035156 34.191406 L 30.976562 34.089844 L 31.167969 33.984375 Z M 31.605469 33.886719 L 31.414062 33.988281 L 31.359375 33.882812 L 31.546875 33.78125 Z M 31.984375 33.683594 L 31.796875 33.785156 L 31.738281 33.679688 L 31.929688 33.578125 L 31.984375 33.683594 "/><path style=" stroke:none;fill-rule:nonzero;fill:#ffffff;fill-opacity:1;" d="M 30.460938 34.496094 L 30.304688 34.582031 L 30.21875 34.425781 L 30.324219 34.371094 L 30.355469 34.421875 L 30.40625 34.394531 L 30.460938 34.496094 "/><path style=" stroke:none;fill-rule:nonzero;fill:#ffffff;fill-opacity:1;" d="M 29.605469 33.046875 L 29.5 33.105469 L 29.398438 32.914062 L 29.503906 32.859375 Z M 29.8125 33.425781 L 29.707031 33.480469 L 29.601562 33.292969 L 29.707031 33.238281 Z M 30.015625 33.804688 L 29.910156 33.859375 L 29.808594 33.671875 L 29.914062 33.613281 Z M 30.222656 34.179688 L 30.117188 34.238281 L 30.015625 34.046875 L 30.121094 33.992188 L 30.222656 34.179688 "/><path style=" stroke:none;fill-rule:nonzero;fill:#ffffff;fill-opacity:1;" d="M 29.398438 32.671875 L 29.292969 32.726562 L 29.210938 32.570312 L 29.367188 32.484375 L 29.421875 32.589844 L 29.371094 32.617188 L 29.398438 32.671875 "/><path style=" stroke:none;fill-rule:nonzero;fill:#ffffff;fill-opacity:1;" d="M 29.804688 32.386719 L 29.613281 32.488281 L 29.558594 32.382812 L 29.746094 32.28125 Z M 30.183594 32.183594 L 29.996094 32.285156 L 29.9375 32.179688 L 30.128906 32.078125 Z M 30.566406 31.976562 L 30.375 32.078125 L 30.320312 31.976562 L 30.507812 31.875 Z M 30.945312 31.773438 L 30.757812 31.875 L 30.699219 31.773438 L 30.890625 31.667969 L 30.945312 31.773438 "/><path style=" stroke:none;fill-rule:nonzero;fill:#ffffff;fill-opacity:1;" d="M 31.324219 31.640625 L 31.21875 31.695312 L 31.191406 31.644531 L 31.136719 31.671875 L 31.082031 31.566406 L 31.238281 31.484375 L 31.324219 31.640625 "/><path style=" stroke:none;fill-rule:nonzero;fill:#ffffff;fill-opacity:1;" d="M 31.527344 32.015625 L 31.425781 32.074219 L 31.320312 31.882812 L 31.425781 31.828125 Z M 31.734375 32.394531 L 31.628906 32.453125 L 31.527344 32.261719 L 31.632812 32.207031 Z M 31.941406 32.773438 L 31.835938 32.828125 L 31.734375 32.640625 L 31.835938 32.585938 Z M 32.144531 33.152344 L 32.042969 33.207031 L 31.9375 33.019531 L 32.042969 32.960938 L 32.144531 33.152344 "/><path style=" stroke:none;fill-rule:nonzero;fill:#ffffff;fill-opacity:1;" d="M 36.792969 31.105469 L 36.636719 31.191406 L 36.578125 31.085938 L 36.632812 31.058594 L 36.601562 31.007812 L 36.707031 30.949219 L 36.792969 31.105469 "/><path style=" stroke:none;fill-rule:nonzero;fill:#ffffff;fill-opacity:1;" d="M 35.300781 31.90625 L 35.113281 32.007812 L 35.054688 31.902344 L 35.246094 31.800781 Z M 35.683594 31.699219 L 35.492188 31.804688 L 35.4375 31.699219 L 35.625 31.597656 Z M 36.0625 31.496094 L 35.875 31.597656 L 35.816406 31.496094 L 36.007812 31.394531 Z M 36.445312 31.292969 L 36.253906 31.394531 L 36.199219 31.292969 L 36.386719 31.1875 L 36.445312 31.292969 "/><path style=" stroke:none;fill-rule:nonzero;fill:#ffffff;fill-opacity:1;" d="M 34.921875 32.109375 L 34.765625 32.191406 L 34.679688 32.035156 L 34.785156 31.980469 L 34.8125 32.035156 L 34.863281 32.003906 L 34.921875 32.109375 "/><path style=" stroke:none;fill-rule:nonzero;fill:#ffffff;fill-opacity:1;" d="M 34.0625 30.660156 L 33.960938 30.714844 L 33.855469 30.527344 L 33.960938 30.46875 Z M 34.269531 31.035156 L 34.164062 31.09375 L 34.0625 30.902344 L 34.167969 30.847656 Z M 34.476562 31.414062 L 34.371094 31.46875 L 34.269531 31.28125 L 34.371094 31.226562 Z M 34.679688 31.792969 L 34.578125 31.847656 L 34.472656 31.660156 L 34.578125 31.601562 L 34.679688 31.792969 "/><path style=" stroke:none;fill-rule:nonzero;fill:#ffffff;fill-opacity:1;" d="M 33.859375 30.28125 L 33.753906 30.335938 L 33.667969 30.179688 L 33.824219 30.097656 L 33.882812 30.199219 L 33.828125 30.230469 L 33.859375 30.28125 "/><path style=" stroke:none;fill-rule:nonzero;fill:#ffffff;fill-opacity:1;" d="M 34.261719 29.996094 L 34.074219 30.097656 L 34.015625 29.996094 L 34.207031 29.894531 Z M 34.644531 29.792969 L 34.453125 29.894531 L 34.398438 29.792969 L 34.585938 29.6875 Z M 35.023438 29.589844 L 34.835938 29.691406 L 34.777344 29.585938 L 34.96875 29.484375 Z M 35.40625 29.386719 L 35.214844 29.488281 L 35.160156 29.382812 L 35.347656 29.28125 L 35.40625 29.386719 "/><path style=" stroke:none;fill-rule:nonzero;fill:#ffffff;fill-opacity:1;" d="M 35.78125 29.25 L 35.675781 29.308594 L 35.648438 29.253906 L 35.597656 29.28125 L 35.539062 29.179688 L 35.695312 29.09375 L 35.78125 29.25 "/><path style=" stroke:none;fill-rule:nonzero;fill:#ffffff;fill-opacity:1;" d="M 35.988281 29.628906 L 35.882812 29.683594 L 35.78125 29.496094 L 35.882812 29.4375 Z M 36.191406 30.007812 L 36.089844 30.0625 L 35.984375 29.875 L 36.089844 29.816406 Z M 36.398438 30.382812 L 36.292969 30.441406 L 36.191406 30.25 L 36.296875 30.195312 Z M 36.605469 30.761719 L 36.5 30.816406 L 36.398438 30.628906 L 36.5 30.574219 L 36.605469 30.761719 "/><path style=" stroke:none;fill-rule:nonzero;fill:#ffffff;fill-opacity:1;" d="M 41.25 28.71875 L 41.09375 28.800781 L 41.039062 28.699219 L 41.089844 28.667969 L 41.0625 28.617188 L 41.167969 28.5625 L 41.25 28.71875 "/><path style=" stroke:none;fill-rule:nonzero;fill:#ffffff;fill-opacity:1;" d="M 39.761719 29.515625 L 39.570312 29.617188 L 39.515625 29.515625 L 39.703125 29.414062 Z M 40.140625 29.3125 L 39.953125 29.414062 L 39.894531 29.308594 L 40.085938 29.207031 Z M 40.523438 29.109375 L 40.332031 29.210938 L 40.277344 29.105469 L 40.464844 29.003906 Z M 40.902344 28.902344 L 40.714844 29.003906 L 40.65625 28.902344 L 40.847656 28.800781 L 40.902344 28.902344 "/><path style=" stroke:none;fill-rule:nonzero;fill:#ffffff;fill-opacity:1;" d="M 39.378906 29.71875 L 39.222656 29.804688 L 39.136719 29.648438 L 39.242188 29.59375 L 39.269531 29.644531 L 39.324219 29.617188 L 39.378906 29.71875 "/><path style=" stroke:none;fill-rule:nonzero;fill:#ffffff;fill-opacity:1;" d="M 38.523438 28.269531 L 38.417969 28.324219 L 38.316406 28.136719 L 38.421875 28.082031 Z M 38.730469 28.648438 L 38.625 28.703125 L 38.519531 28.515625 L 38.625 28.457031 Z M 38.933594 29.023438 L 38.828125 29.082031 L 38.726562 28.894531 L 38.832031 28.835938 Z M 39.140625 29.402344 L 39.035156 29.460938 L 38.933594 29.269531 L 39.039062 29.214844 L 39.140625 29.402344 "/><path style=" stroke:none;fill-rule:nonzero;fill:#ffffff;fill-opacity:1;" d="M 38.316406 27.890625 L 38.210938 27.949219 L 38.128906 27.792969 L 38.285156 27.707031 L 38.339844 27.8125 L 38.289062 27.839844 L 38.316406 27.890625 "/><path style=" stroke:none;fill-rule:nonzero;fill:#ffffff;fill-opacity:1;" d="M 38.722656 27.609375 L 38.53125 27.710938 L 38.476562 27.605469 L 38.664062 27.503906 Z M 39.101562 27.402344 L 38.914062 27.503906 L 38.855469 27.402344 L 39.046875 27.300781 Z M 39.484375 27.199219 L 39.292969 27.300781 L 39.238281 27.199219 L 39.425781 27.097656 Z M 39.863281 26.996094 L 39.675781 27.097656 L 39.617188 26.992188 L 39.808594 26.890625 L 39.863281 26.996094 "/><path style=" stroke:none;fill-rule:nonzero;fill:#ffffff;fill-opacity:1;" d="M 40.242188 26.863281 L 40.136719 26.917969 L 40.105469 26.867188 L 40.054688 26.894531 L 40 26.789062 L 40.15625 26.707031 L 40.242188 26.863281 "/><path style=" stroke:none;fill-rule:nonzero;fill:#ffffff;fill-opacity:1;" d="M 40.445312 27.238281 L 40.339844 27.296875 L 40.238281 27.105469 L 40.34375 27.050781 Z M 40.652344 27.617188 L 40.546875 27.671875 L 40.445312 27.484375 L 40.550781 27.429688 Z M 40.859375 27.996094 L 40.753906 28.050781 L 40.648438 27.863281 L 40.753906 27.804688 Z M 41.0625 28.371094 L 40.957031 28.429688 L 40.855469 28.238281 L 40.960938 28.183594 L 41.0625 28.371094 "/><path style=" stroke:none;fill-rule:nonzero;fill:#fbbf53;fill-opacity:1;" d="M 39.003906 43.773438 L 17.636719 43.773438 L 17.636719 30.6875 L 39.003906 30.6875 L 39.003906 43.773438 "/><path style=" stroke:none;fill-rule:nonzero;fill:#f79450;fill-opacity:1;" d="M 42.421875 43.773438 L 39.003906 43.773438 L 39.003906 30.6875 L 42.421875 30.6875 L 42.421875 43.773438 "/><path style=" stroke:none;fill-rule:nonzero;fill:#ffffff;fill-opacity:1;" d="M 37.886719 42.859375 L 35.226562 42.859375 L 35.226562 40.28125 L 37.886719 40.28125 L 37.886719 42.859375 "/><path style=" stroke:none;fill-rule:nonzero;fill:#ffffff;fill-opacity:1;" d="M 22.738281 42.859375 L 18.691406 42.859375 L 18.691406 42.117188 L 22.738281 42.117188 L 22.738281 42.859375 "/><path style=" stroke:none;fill-rule:nonzero;fill:#f79450;fill-opacity:1;" d="M 36.558594 32.648438 L 15.191406 32.648438 L 17.636719 30.6875 L 39.003906 30.6875 L 36.558594 32.648438 "/><path style=" stroke:none;fill-rule:nonzero;fill:#d07542;fill-opacity:1;" d="M 41.449219 32.648438 L 44.871094 32.648438 L 42.421875 30.6875 L 39.003906 30.6875 L 41.449219 32.648438 "/><path style=" stroke:none;fill-rule:nonzero;fill:#ef2c4a;fill-opacity:1;" d="M 47.300781 44.996094 L 16.222656 44.996094 L 16.222656 43.773438 L 47.300781 43.773438 L 47.300781 44.996094 "/><path style=" stroke:none;fill-rule:nonzero;fill:#ef2c4a;fill-opacity:1;" d="M 27.558594 46.164062 L 16.222656 46.164062 L 16.222656 44.386719 L 27.558594 44.386719 L 27.558594 46.164062 "/><path style=" stroke:none;fill-rule:nonzero;fill:#ef2c4a;fill-opacity:1;" d="M 41.9375 46.398438 L 36.558594 46.398438 L 36.558594 44.5625 L 41.9375 44.5625 L 41.9375 46.398438 "/><path style=" stroke:none;fill-rule:nonzero;fill:#b82137;fill-opacity:1;" d="M 37.625 44.265625 L 37.382812 44.265625 L 37.382812 46.652344 L 37.625 46.652344 L 37.625 44.265625 "/><path style=" stroke:none;fill-rule:nonzero;fill:#b82137;fill-opacity:1;" d="M 38.304688 44.265625 L 38.066406 44.265625 L 38.066406 46.652344 L 38.304688 46.652344 L 38.304688 44.265625 "/><path style=" stroke:none;fill-rule:nonzero;fill:#b82137;fill-opacity:1;" d="M 40.492188 44.265625 L 40.253906 44.265625 L 40.253906 46.652344 L 40.492188 46.652344 L 40.492188 44.265625 "/><path style=" stroke:none;fill-rule:nonzero;fill:#b82137;fill-opacity:1;" d="M 41.175781 44.265625 L 40.933594 44.265625 L 40.933594 46.652344 L 41.175781 46.652344 L 41.175781 44.265625 "/><path style=" stroke:none;fill-rule:nonzero;fill:#881826;fill-opacity:1;" d="M 24.371094 46.164062 C 24.308594 44.671875 23.074219 43.484375 21.558594 43.484375 C 20.039062 43.484375 18.808594 44.671875 18.746094 46.164062 L 24.371094 46.164062 "/><path style=" stroke:none;fill-rule:nonzero;fill:#b82137;fill-opacity:1;" d="M 24.078125 46.164062 C 24.015625 44.832031 22.914062 43.773438 21.558594 43.773438 C 20.203125 43.773438 19.101562 44.832031 19.039062 46.164062 L 24.078125 46.164062 "/><path style=" stroke:none;fill-rule:nonzero;fill:#26160e;fill-opacity:1;" d="M 24.042969 46.398438 C 24.042969 47.757812 22.929688 48.863281 21.558594 48.863281 C 20.1875 48.863281 19.074219 47.757812 19.074219 46.398438 C 19.074219 45.039062 20.1875 43.933594 21.558594 43.933594 C 22.929688 43.933594 24.042969 45.039062 24.042969 46.398438 "/><path style=" stroke:none;fill-rule:nonzero;fill:#ffffff;fill-opacity:1;" d="M 22.972656 46.398438 C 22.972656 47.175781 22.339844 47.800781 21.558594 47.800781 C 20.777344 47.800781 20.144531 47.175781 20.144531 46.398438 C 20.144531 45.625 20.777344 44.996094 21.558594 44.996094 C 22.339844 44.996094 22.972656 45.625 22.972656 46.398438 "/><path style=" stroke:none;fill-rule:nonzero;fill:#881826;fill-opacity:1;" d="M 29.667969 46.164062 C 29.605469 44.671875 28.371094 43.484375 26.855469 43.484375 C 25.339844 43.484375 24.105469 44.671875 24.042969 46.164062 L 29.667969 46.164062 "/><path style=" stroke:none;fill-rule:nonzero;fill:#b82137;fill-opacity:1;" d="M 29.375 46.164062 C 29.3125 44.832031 28.210938 43.773438 26.855469 43.773438 C 25.5 43.773438 24.398438 44.832031 24.335938 46.164062 L 29.375 46.164062 "/><path style=" stroke:none;fill-rule:nonzero;fill:#26160e;fill-opacity:1;" d="M 29.339844 46.398438 C 29.339844 47.757812 28.226562 48.863281 26.855469 48.863281 C 25.484375 48.863281 24.371094 47.757812 24.371094 46.398438 C 24.371094 45.039062 25.484375 43.933594 26.855469 43.933594 C 28.226562 43.933594 29.339844 45.039062 29.339844 46.398438 "/><path style=" stroke:none;fill-rule:nonzero;fill:#ffffff;fill-opacity:1;" d="M 28.269531 46.398438 C 28.269531 47.175781 27.636719 47.800781 26.855469 47.800781 C 26.074219 47.800781 25.441406 47.175781 25.441406 46.398438 C 25.441406 45.625 26.074219 44.996094 26.855469 44.996094 C 27.636719 44.996094 28.269531 45.625 28.269531 46.398438 "/><path style=" stroke:none;fill-rule:nonzero;fill:#ef2c4a;fill-opacity:1;" d="M 53.996094 46.164062 L 43.289062 46.164062 L 43.289062 33.328125 L 51.308594 33.328125 C 51.308594 33.328125 53.996094 34.976562 53.996094 46.164062 "/><path style=" stroke:none;fill-rule:nonzero;fill:#26160e;fill-opacity:1;" d="M 47.898438 40.859375 L 53.277344 40.859375 C 52.984375 38.007812 52.472656 36.199219 51.992188 35.078125 L 47.898438 35.078125 L 47.898438 40.859375 "/><path style=" stroke:none;fill-rule:nonzero;fill:#ffffff;fill-opacity:1;" d="M 52.679688 39.160156 C 52.429688 37.410156 52.078125 36.230469 51.742188 35.449219 L 48.332031 35.449219 L 48.332031 39.160156 L 52.679688 39.160156 "/><path style=" stroke:none;fill-rule:nonzero;fill:#881826;fill-opacity:1;" d="M 50.878906 46.164062 C 50.816406 44.671875 49.582031 43.484375 48.066406 43.484375 C 46.550781 43.484375 45.316406 44.671875 45.253906 46.164062 L 50.878906 46.164062 "/><path style=" stroke:none;fill-rule:nonzero;fill:#b82137;fill-opacity:1;" d="M 50.585938 46.164062 C 50.523438 44.832031 49.421875 43.773438 48.066406 43.773438 C 46.710938 43.773438 45.609375 44.832031 45.546875 46.164062 L 50.585938 46.164062 "/><path style=" stroke:none;fill-rule:nonzero;fill:#26160e;fill-opacity:1;" d="M 50.550781 46.398438 C 50.550781 47.757812 49.4375 48.863281 48.066406 48.863281 C 46.695312 48.863281 45.582031 47.757812 45.582031 46.398438 C 45.582031 45.039062 46.695312 43.933594 48.066406 43.933594 C 49.4375 43.933594 50.550781 45.039062 50.550781 46.398438 "/><path style=" stroke:none;fill-rule:nonzero;fill:#ffffff;fill-opacity:1;" d="M 49.480469 46.398438 C 49.480469 47.175781 48.847656 47.800781 48.066406 47.800781 C 47.285156 47.800781 46.652344 47.175781 46.652344 46.398438 C 46.652344 45.625 47.285156 44.996094 48.066406 44.996094 C 48.847656 44.996094 49.480469 45.625 49.480469 46.398438 "/><path style=" stroke:none;fill-rule:nonzero;fill:#fbbf53;fill-opacity:1;" d="M 53.664062 44.265625 L 52.96875 44.265625 L 52.96875 42.078125 L 53.664062 42.078125 L 53.664062 44.265625 "/><path style=" stroke:none;fill-rule:nonzero;fill:#fbbf53;fill-opacity:1;" d="M 53.625 45.082031 L 52.929688 45.082031 L 52.929688 44.5625 L 53.625 44.5625 L 53.625 45.082031 "/><g clip-rule="nonzero" clip-path="url(#93f0732751)"><path style=" stroke:none;fill-rule:nonzero;fill:#323976;fill-opacity:1;" d="M 28.933594 47.410156 C 28.933594 48.566406 27.988281 49.5 26.824219 49.5 L 8.113281 49.5 C 6.949219 49.5 6.003906 48.566406 6.003906 47.410156 L 6.003906 8.089844 C 6.003906 6.9375 6.949219 6 8.113281 6 L 26.824219 6 C 27.988281 6 28.933594 6.9375 28.933594 8.089844 L 28.933594 47.410156 "/></g><path style=" stroke:none;fill-rule:nonzero;fill:#f0edd9;fill-opacity:1;" d="M 26.140625 6.898438 L 19.046875 6.898438 L 19.046875 8.191406 C 19.046875 9.054688 18.339844 9.757812 17.46875 9.757812 C 16.597656 9.757812 15.890625 9.054688 15.890625 8.191406 L 15.890625 6.898438 L 8.796875 6.898438 C 7.71875 6.898438 6.84375 7.765625 6.84375 8.835938 L 6.84375 46.664062 C 6.84375 47.734375 7.71875 48.601562 8.796875 48.601562 L 26.140625 48.601562 C 27.21875 48.601562 28.09375 47.734375 28.09375 46.664062 L 28.09375 8.835938 C 28.09375 7.765625 27.21875 6.898438 26.140625 6.898438 "/><path style=" stroke:none;fill-rule:nonzero;fill:#1e2246;fill-opacity:1;" d="M 18.152344 8.136719 C 18.152344 8.507812 17.847656 8.8125 17.46875 8.8125 C 17.089844 8.8125 16.785156 8.507812 16.785156 8.136719 C 16.785156 7.761719 17.089844 7.457031 17.46875 7.457031 C 17.847656 7.457031 18.152344 7.761719 18.152344 8.136719 "/><path style=" stroke:none;fill-rule:nonzero;fill:#ffffff;fill-opacity:1;" d="M 17.835938 8.136719 C 17.835938 8.335938 17.671875 8.5 17.46875 8.5 C 17.265625 8.5 17.101562 8.335938 17.101562 8.136719 C 17.101562 7.933594 17.265625 7.769531 17.46875 7.769531 C 17.671875 7.769531 17.835938 7.933594 17.835938 8.136719 "/><path style=" stroke:none;fill-rule:nonzero;fill:#a0d4f3;fill-opacity:1;" d="M 14.972656 16.03125 C 17.171875 12.867188 19.246094 10.308594 21.199219 8.246094 L 19.789062 6.898438 L 19.046875 6.898438 L 19.046875 8.191406 C 19.046875 9.054688 18.339844 9.757812 17.46875 9.757812 C 16.597656 9.757812 15.890625 9.054688 15.890625 8.191406 L 15.890625 6.898438 L 15.636719 6.898438 C 14.046875 8.757812 12.4375 10.851562 10.816406 13.183594 C 9.566406 14.976562 8.300781 16.546875 7.023438 17.917969 L 10.546875 21.507812 C 12.042969 19.921875 13.523438 18.109375 14.972656 16.03125 "/><path style=" stroke:none;fill-rule:nonzero;fill:#a0d4f3;fill-opacity:1;" d="M 6.84375 24.957031 C 7.800781 24.179688 8.757812 23.324219 9.707031 22.375 L 6.84375 19.460938 L 6.84375 24.957031 "/><path style=" stroke:none;fill-rule:nonzero;fill:#47bc4a;fill-opacity:1;" d="M 6.84375 33.695312 L 6.84375 46.664062 C 6.84375 47.734375 7.71875 48.601562 8.796875 48.601562 L 14.070312 48.601562 L 17.683594 45.273438 L 6.84375 33.695312 "/><path style=" stroke:none;fill-rule:nonzero;fill:#ffffff;fill-opacity:1;" d="M 19.910156 45.015625 L 12.683594 37.542969 L 19.015625 31.515625 L 26.261719 38.898438 Z M 28.09375 38.136719 L 28.09375 37.132812 L 26.785156 38.394531 L 19.542969 31.015625 L 26.074219 24.796875 L 28.09375 26.882812 L 28.09375 25.839844 L 26.601562 24.296875 L 28.09375 22.875 L 28.09375 21.871094 L 26.097656 23.773438 L 20.855469 18.355469 L 20.332031 18.859375 L 25.570312 24.273438 L 19.035156 30.5 L 13.785156 25.152344 L 13.261719 25.652344 L 18.507812 30.996094 L 12.179688 37.023438 L 7.003906 31.667969 L 6.84375 31.820312 L 6.84375 32.550781 L 19.390625 45.519531 L 16.1875 48.601562 L 17.234375 48.601562 L 19.894531 46.039062 L 22.375 48.601562 L 23.382812 48.601562 L 20.414062 45.535156 L 26.769531 39.414062 L 28.09375 40.765625 L 28.09375 39.726562 L 27.292969 38.910156 L 28.09375 38.136719 "/><path style=" stroke:none;fill-rule:nonzero;fill:#ffffff;fill-opacity:1;" d="M 10.550781 22.890625 L 11.074219 22.386719 L 6.84375 18.078125 L 6.84375 19.113281 L 10.550781 22.890625 "/><path style=" stroke:none;fill-rule:nonzero;fill:#ffffff;fill-opacity:1;" d="M 23.671875 10.28125 L 25.894531 8.144531 L 24.597656 6.898438 L 20.140625 6.898438 L 23.671875 10.28125 "/><path style=" stroke:none;fill-rule:nonzero;fill:#ffffff;fill-opacity:1;" d="M 28.09375 14.519531 L 28.09375 11.398438 L 26.46875 12.960938 L 28.09375 14.519531 "/><path style=" stroke:none;fill-rule:nonzero;fill:#dfdcda;fill-opacity:1;" d="M 20.15625 19.027344 L 25.226562 24.265625 L 19.039062 30.160156 L 13.960938 24.984375 L 13.785156 25.152344 L 19.035156 30.5 L 25.570312 24.273438 L 20.332031 18.859375 L 20.15625 19.027344 "/><path style=" stroke:none;fill-rule:nonzero;fill:#dfdcda;fill-opacity:1;" d="M 13.089844 25.820312 L 18.164062 30.992188 L 12.1875 36.683594 L 7.175781 31.503906 L 7.003906 31.667969 L 12.179688 37.023438 L 18.507812 30.996094 L 13.261719 25.652344 L 13.089844 25.820312 "/><path style=" stroke:none;fill-rule:nonzero;fill:#dfdcda;fill-opacity:1;" d="M 23.496094 10.449219 L 23.671875 10.28125 L 20.140625 6.898438 L 19.789062 6.898438 L 21.199219 8.246094 L 23.496094 10.449219 "/><path style=" stroke:none;fill-rule:nonzero;fill:#dfdcda;fill-opacity:1;" d="M 28.09375 38.136719 L 27.292969 38.910156 L 28.09375 39.726562 L 28.09375 39.382812 L 27.636719 38.917969 L 28.09375 38.472656 L 28.09375 38.136719 "/><path style=" stroke:none;fill-rule:nonzero;fill:#dfdcda;fill-opacity:1;" d="M 19.542969 31.015625 L 26.785156 38.394531 L 28.09375 37.132812 L 28.09375 36.796875 L 26.789062 38.054688 L 19.886719 31.019531 L 26.070312 25.136719 L 28.09375 27.230469 L 28.09375 26.882812 L 26.074219 24.796875 L 19.542969 31.015625 "/><path style=" stroke:none;fill-rule:nonzero;fill:#dfdcda;fill-opacity:1;" d="M 17.234375 48.601562 L 17.582031 48.601562 L 19.886719 46.378906 L 22.039062 48.601562 L 22.375 48.601562 L 19.894531 46.039062 L 17.234375 48.601562 "/><path style=" stroke:none;fill-rule:nonzero;fill:#dfdcda;fill-opacity:1;" d="M 20.414062 45.535156 L 23.382812 48.601562 L 23.71875 48.601562 L 20.757812 45.542969 L 26.765625 39.753906 L 28.09375 41.109375 L 28.09375 40.765625 L 26.769531 39.414062 L 20.414062 45.535156 "/><path style=" stroke:none;fill-rule:nonzero;fill:#dfdcda;fill-opacity:1;" d="M 6.84375 32.550781 L 6.84375 32.898438 L 19.046875 45.511719 L 15.839844 48.601562 L 16.1875 48.601562 L 19.390625 45.519531 L 6.84375 32.550781 "/><path style=" stroke:none;fill-rule:nonzero;fill:#dfdcda;fill-opacity:1;" d="M 19.917969 44.671875 L 13.027344 37.550781 L 19.011719 31.855469 L 25.917969 38.890625 Z M 12.683594 37.542969 L 19.910156 45.015625 L 26.261719 38.898438 L 19.015625 31.515625 L 12.683594 37.542969 "/><path style=" stroke:none;fill-rule:nonzero;fill:#dfdcda;fill-opacity:1;" d="M 20.855469 18.355469 L 26.097656 23.773438 L 28.09375 21.871094 L 28.09375 21.539062 L 26.101562 23.433594 L 21.03125 18.1875 L 20.855469 18.355469 "/><path style=" stroke:none;fill-rule:nonzero;fill:#dfdcda;fill-opacity:1;" d="M 26.070312 7.976562 L 24.945312 6.898438 L 24.597656 6.898438 L 25.894531 8.144531 L 26.070312 7.976562 "/><path style=" stroke:none;fill-rule:nonzero;fill:#dfdcda;fill-opacity:1;" d="M 26.292969 13.128906 L 28.09375 14.851562 L 28.09375 14.519531 L 26.46875 12.960938 L 26.292969 13.128906 "/><path style=" stroke:none;fill-rule:nonzero;fill:#dfdcda;fill-opacity:1;" d="M 28.09375 25.839844 L 28.09375 25.492188 L 26.945312 24.300781 L 28.09375 23.207031 L 28.09375 22.875 L 26.601562 24.296875 L 28.09375 25.839844 "/><path style=" stroke:none;fill-rule:nonzero;fill:#dfdcda;fill-opacity:1;" d="M 10.550781 22.890625 L 6.84375 19.113281 L 6.84375 19.460938 L 9.707031 22.375 L 10.375 23.058594 L 10.550781 22.890625 "/><path style=" stroke:none;fill-rule:nonzero;fill:#dfdcda;fill-opacity:1;" d="M 11.074219 22.386719 L 11.246094 22.21875 L 10.546875 21.507812 L 7.023438 17.917969 L 6.84375 17.734375 L 6.84375 18.078125 L 11.074219 22.386719 "/><path style=" stroke:none;fill-rule:nonzero;fill:#feee96;fill-opacity:1;" d="M 28.09375 10.640625 L 28.09375 8.835938 C 28.09375 8.265625 27.84375 7.761719 27.449219 7.40625 L 6.84375 27.210938 L 6.84375 31.0625 L 28.09375 10.640625 "/><path style=" stroke:none;fill-rule:nonzero;fill:#f2cc6d;fill-opacity:1;" d="M 7.175781 31.503906 L 13.089844 25.820312 L 13.261719 25.652344 L 13.785156 25.152344 L 13.960938 24.984375 L 20.15625 19.027344 L 20.332031 18.859375 L 20.855469 18.355469 L 21.03125 18.1875 L 26.292969 13.128906 L 26.46875 12.960938 L 28.09375 11.398438 L 28.09375 10.640625 L 6.84375 31.0625 L 6.84375 31.820312 L 7.003906 31.667969 L 7.175781 31.503906 "/><path style=" stroke:none;fill-rule:nonzero;fill:#f2cc6d;fill-opacity:1;" d="M 27.449219 7.40625 C 27.3125 7.28125 27.15625 7.179688 26.984375 7.097656 L 26.070312 7.976562 L 25.894531 8.144531 L 23.671875 10.28125 L 23.496094 10.449219 L 11.246094 22.21875 L 11.074219 22.386719 L 10.550781 22.890625 L 10.375 23.058594 L 6.84375 26.453125 L 6.84375 27.210938 L 27.449219 7.40625 "/><path style=" stroke:none;fill-rule:nonzero;fill:#ef2c4a;fill-opacity:1;" d="M 21.730469 16.335938 C 21.21875 16.335938 20.804688 15.921875 20.804688 15.417969 C 20.804688 14.910156 21.21875 14.5 21.730469 14.5 C 22.242188 14.5 22.65625 14.910156 22.65625 15.417969 C 22.65625 15.921875 22.242188 16.335938 21.730469 16.335938 M 21.730469 13.777344 C 20.832031 13.777344 20.105469 14.5 20.105469 15.390625 C 20.105469 16.285156 21.730469 19.753906 21.730469 19.753906 C 21.730469 19.753906 23.359375 16.285156 23.359375 15.390625 C 23.359375 14.5 22.628906 13.777344 21.730469 13.777344 "/><path style=" stroke:none;fill-rule:nonzero;fill:#88847a;fill-opacity:1;" d="M 22.523438 17.957031 C 22.550781 17.890625 22.582031 17.820312 22.609375 17.75 C 23.582031 17.394531 24.277344 16.46875 24.277344 15.382812 C 24.277344 15.28125 24.269531 15.183594 24.257812 15.085938 L 24.410156 14.941406 C 24.433594 15.082031 24.445312 15.230469 24.445312 15.382812 C 24.445312 16.59375 23.636719 17.621094 22.523438 17.957031 M 19.113281 14.660156 C 19.375 13.726562 20.132812 12.996094 21.089844 12.765625 L 20.816406 13.023438 C 20.171875 13.269531 19.652344 13.769531 19.386719 14.398438 L 19.113281 14.660156 "/><path style=" stroke:none;fill-rule:nonzero;fill:#8f8454;fill-opacity:1;" d="M 20.609375 17.835938 C 19.707031 17.425781 19.066406 16.542969 19.019531 15.511719 L 19.1875 15.351562 C 19.1875 15.359375 19.1875 15.371094 19.1875 15.382812 C 19.1875 16.425781 19.828125 17.324219 20.742188 17.707031 L 20.609375 17.835938 M 24.105469 14.472656 C 23.742188 13.542969 22.839844 12.875 21.78125 12.855469 L 21.945312 12.695312 C 22.980469 12.777344 23.855469 13.4375 24.238281 14.347656 L 24.105469 14.472656 "/><path style=" stroke:none;fill-rule:nonzero;fill:#88713c;fill-opacity:1;" d="M 20.9375 17.957031 C 20.824219 17.925781 20.714844 17.882812 20.609375 17.835938 L 20.742188 17.707031 C 20.777344 17.722656 20.816406 17.738281 20.851562 17.75 C 20.882812 17.820312 20.910156 17.890625 20.9375 17.957031 M 24.257812 15.085938 C 24.234375 14.871094 24.183594 14.667969 24.105469 14.472656 L 24.238281 14.347656 C 24.316406 14.535156 24.375 14.734375 24.410156 14.941406 L 24.257812 15.085938 "/><path style=" stroke:none;fill-rule:nonzero;fill:#88713c;fill-opacity:1;" d="M 19.019531 15.511719 C 19.015625 15.46875 19.015625 15.425781 19.015625 15.382812 C 19.015625 15.132812 19.050781 14.890625 19.113281 14.660156 L 19.386719 14.398438 C 19.261719 14.691406 19.191406 15.011719 19.1875 15.351562 L 19.019531 15.511719 M 20.816406 13.023438 L 21.089844 12.765625 C 21.292969 12.714844 21.507812 12.6875 21.730469 12.6875 C 21.804688 12.6875 21.875 12.691406 21.945312 12.695312 L 21.78125 12.855469 C 21.765625 12.855469 21.746094 12.855469 21.730469 12.855469 C 21.410156 12.855469 21.101562 12.917969 20.816406 13.023438 "/><path style=" stroke:none;fill-rule:nonzero;fill:#881826;fill-opacity:1;" d="M 21.730469 18.074219 C 21.457031 18.074219 21.1875 18.035156 20.9375 17.957031 C 20.910156 17.890625 20.882812 17.820312 20.851562 17.75 C 21.125 17.851562 21.421875 17.90625 21.730469 17.90625 C 22.039062 17.90625 22.335938 17.851562 22.609375 17.75 C 22.582031 17.820312 22.550781 17.890625 22.523438 17.957031 C 22.273438 18.035156 22.007812 18.074219 21.730469 18.074219 "/><path style=" stroke:none;fill-rule:nonzero;fill:#88847a;fill-opacity:1;" d="M 22.785156 17.316406 C 22.820312 17.230469 22.851562 17.144531 22.886719 17.058594 C 23.378906 16.722656 23.71875 16.179688 23.769531 15.554688 L 23.949219 15.382812 C 23.949219 16.21875 23.476562 16.945312 22.785156 17.316406 "/><path style=" stroke:none;fill-rule:nonzero;fill:#8f8454;fill-opacity:1;" d="M 20.675781 17.316406 C 19.984375 16.945312 19.511719 16.214844 19.511719 15.382812 C 19.511719 15.253906 19.523438 15.125 19.546875 15.003906 L 19.773438 14.785156 C 19.714844 14.972656 19.683594 15.171875 19.683594 15.382812 C 19.683594 16.078125 20.039062 16.691406 20.578125 17.058594 C 20.609375 17.144531 20.644531 17.230469 20.675781 17.316406 M 23.707031 14.855469 C 23.476562 13.992188 22.675781 13.351562 21.730469 13.351562 C 21.542969 13.351562 21.363281 13.375 21.191406 13.421875 L 21.417969 13.203125 C 21.519531 13.191406 21.625 13.183594 21.730469 13.183594 C 22.722656 13.183594 23.5625 13.832031 23.847656 14.722656 L 23.707031 14.855469 "/><path style=" stroke:none;fill-rule:nonzero;fill:#88713c;fill-opacity:1;" d="M 23.769531 15.554688 C 23.773438 15.496094 23.777344 15.441406 23.777344 15.382812 C 23.777344 15.199219 23.753906 15.023438 23.707031 14.855469 L 23.847656 14.722656 C 23.914062 14.929688 23.949219 15.152344 23.949219 15.382812 L 23.769531 15.554688 "/><path style=" stroke:none;fill-rule:nonzero;fill:#88713c;fill-opacity:1;" d="M 19.546875 15.003906 C 19.710938 14.070312 20.46875 13.335938 21.417969 13.203125 L 21.191406 13.421875 C 20.515625 13.605469 19.980469 14.125 19.773438 14.785156 L 19.546875 15.003906 "/><path style=" stroke:none;fill-rule:nonzero;fill:#881826;fill-opacity:1;" d="M 21.730469 17.582031 C 21.351562 17.582031 20.992188 17.484375 20.675781 17.316406 C 20.644531 17.230469 20.609375 17.144531 20.578125 17.058594 C 20.90625 17.28125 21.304688 17.410156 21.730469 17.410156 C 22.160156 17.410156 22.554688 17.28125 22.886719 17.058594 C 22.851562 17.144531 22.820312 17.230469 22.785156 17.316406 C 22.472656 17.484375 22.113281 17.582031 21.730469 17.582031 "/><path style=" stroke:none;fill-rule:nonzero;fill:#ef2c4a;fill-opacity:1;" d="M 22.5625 48.601562 L 19.636719 45.570312 L 26.425781 38.835938 L 18.714844 31.058594 L 25.808594 24.351562 L 21.730469 20.125 L 21.730469 19.492188 L 26.402344 24.363281 L 19.316406 31.066406 L 27.015625 38.839844 L 20.230469 45.570312 L 23.167969 48.601562 L 22.5625 48.601562 "/><path style=" stroke:none;fill-rule:nonzero;fill:#ffffff;fill-opacity:1;" d="M 26.601562 46.664062 L 8.769531 46.664062 L 8.769531 43.363281 L 26.601562 43.363281 L 26.601562 46.664062 "/><path style=" stroke:none;fill-rule:nonzero;fill:#f2cc6d;fill-opacity:1;" d="M 21.871094 45.882812 L 19.148438 45.882812 L 19.148438 44.144531 L 21.871094 44.144531 L 21.871094 45.882812 "/><path style=" stroke:none;fill-rule:nonzero;fill:#ef2c4a;fill-opacity:1;" d="M 25.308594 45.882812 L 22.585938 45.882812 L 22.585938 44.144531 L 25.308594 44.144531 L 25.308594 45.882812 "/><path style=" stroke:none;fill-rule:nonzero;fill:#ef2c4a;fill-opacity:1;" d="M 10.234375 44.824219 C 10.007812 44.824219 9.824219 44.644531 9.824219 44.421875 C 9.824219 44.199219 10.007812 44.015625 10.234375 44.015625 C 10.457031 44.015625 10.640625 44.199219 10.640625 44.421875 C 10.640625 44.644531 10.457031 44.824219 10.234375 44.824219 Z M 10.234375 43.699219 C 9.835938 43.699219 9.515625 44.019531 9.515625 44.410156 C 9.515625 44.800781 10.234375 46.328125 10.234375 46.328125 C 10.234375 46.328125 10.949219 44.800781 10.949219 44.410156 C 10.949219 44.019531 10.628906 43.699219 10.234375 43.699219 "/><path style=" stroke:none;fill-rule:nonzero;fill:#dfdcda;fill-opacity:1;" d="M 18.507812 44.4375 L 11.753906 44.4375 L 11.753906 44.300781 L 18.507812 44.300781 L 18.507812 44.4375 "/><path style=" stroke:none;fill-rule:nonzero;fill:#dfdcda;fill-opacity:1;" d="M 18.507812 44.742188 L 11.753906 44.742188 L 11.753906 44.605469 L 18.507812 44.605469 L 18.507812 44.742188 "/><path style=" stroke:none;fill-rule:nonzero;fill:#dfdcda;fill-opacity:1;" d="M 18.507812 45.046875 L 11.753906 45.046875 L 11.753906 44.90625 L 18.507812 44.90625 L 18.507812 45.046875 "/><path style=" stroke:none;fill-rule:nonzero;fill:#dfdcda;fill-opacity:1;" d="M 18.507812 45.347656 L 11.753906 45.347656 L 11.753906 45.210938 L 18.507812 45.210938 L 18.507812 45.347656 "/><path style=" stroke:none;fill-rule:nonzero;fill:#dfdcda;fill-opacity:1;" d="M 18.507812 45.652344 L 11.753906 45.652344 L 11.753906 45.515625 L 18.507812 45.515625 L 18.507812 45.652344 "/><path style=" stroke:none;fill-rule:nonzero;fill:#dfdcda;fill-opacity:1;" d="M 18.507812 45.957031 L 11.753906 45.957031 L 11.753906 45.820312 L 18.507812 45.820312 L 18.507812 45.957031 "/><path style=" stroke:none;fill-rule:nonzero;fill:#ffffff;fill-opacity:1;" d="M 11.371094 42.433594 L 9.09375 42.433594 L 9.09375 40.175781 L 11.371094 40.175781 L 11.371094 42.433594 "/><path style=" stroke:none;fill-rule:nonzero;fill:#ffffff;fill-opacity:1;" d="M 11.371094 39.523438 L 9.09375 39.523438 L 9.09375 37.265625 L 11.371094 37.265625 L 11.371094 39.523438 "/><path style=" stroke:none;fill-rule:nonzero;fill:#bab7b6;fill-opacity:1;" d="M 10.949219 41.433594 L 9.515625 41.433594 L 9.515625 41.175781 L 10.949219 41.175781 L 10.949219 41.433594 "/><path style=" stroke:none;fill-rule:nonzero;fill:#bab7b6;fill-opacity:1;" d="M 10.949219 38.265625 L 10.363281 38.265625 L 10.363281 37.683594 L 10.101562 37.683594 L 10.101562 38.265625 L 9.515625 38.265625 L 9.515625 38.523438 L 10.101562 38.523438 L 10.101562 39.105469 L 10.363281 39.105469 L 10.363281 38.523438 L 10.949219 38.523438 L 10.949219 38.265625 "/></g></svg>