<svg xmlns="http://www.w3.org/2000/svg" xmlns:xlink="http://www.w3.org/1999/xlink" width="80" zoomAndPan="magnify" viewBox="0 0 60 60" height="80" preserveAspectRatio="xMidYMid meet" version="1.2"><defs><clipPath id="f1333ca38b"><path d="M 6.75 7 L 29 7 L 29 30 L 6.75 30 Z M 6.75 7 "/></clipPath><clipPath id="b1b71119e2"><path d="M 30 31 L 53 31 L 53 53.25 L 30 53.25 Z M 30 31 "/></clipPath><clipPath id="cade964ccf"><path d="M 6.75 31 L 29 31 L 29 53.25 L 6.75 53.25 Z M 6.75 31 "/></clipPath></defs><g id="1b4146f189"><rect x="0" width="60" y="0" height="60" style="fill:#ffffff;fill-opacity:1;stroke:none;"/><rect x="0" width="60" y="0" height="60" style="fill:#fdfcfb;fill-opacity:1;stroke:none;"/><path style=" stroke:none;fill-rule:nonzero;fill:#b04190;fill-opacity:1;" d="M 33.332031 28.03125 L 52.550781 28.03125 C 53.359375 28.03125 54 27.335938 53.914062 26.535156 C 52.792969 15.757812 44.242188 7.207031 33.464844 6.085938 C 32.664062 6 31.96875 6.640625 31.96875 7.449219 L 31.96875 26.667969 C 31.96875 27.421875 32.578125 28.03125 33.332031 28.03125 Z M 33.332031 28.03125 "/><g clip-rule="nonzero" clip-path="url(#f1333ca38b)"><path style=" stroke:none;fill-rule:nonzero;fill:#f59f00;fill-opacity:1;" d="M 28.78125 28.03125 L 28.78125 8.808594 C 28.78125 7.996094 28.085938 7.355469 27.285156 7.441406 C 16.507812 8.570312 7.957031 17.125 6.835938 27.902344 C 6.75 28.703125 7.390625 29.398438 8.199219 29.398438 L 27.417969 29.398438 C 28.171875 29.398438 28.78125 28.785156 28.78125 28.03125 Z M 28.78125 28.03125 "/></g><g clip-rule="nonzero" clip-path="url(#b1b71119e2)"><path style=" stroke:none;fill-rule:nonzero;fill:#009ee2;fill-opacity:1;" d="M 30.601562 32.582031 L 30.601562 51.800781 C 30.601562 52.609375 31.296875 53.25 32.097656 53.164062 C 42.875 52.042969 51.429688 43.492188 52.550781 32.714844 C 52.632812 31.914062 51.992188 31.21875 51.183594 31.21875 L 31.96875 31.21875 C 31.214844 31.21875 30.601562 31.828125 30.601562 32.582031 Z M 30.601562 32.582031 "/></g><g clip-rule="nonzero" clip-path="url(#cade964ccf)"><path style=" stroke:none;fill-rule:nonzero;fill:#e5007e;fill-opacity:1;" d="M 27.417969 31.21875 L 8.199219 31.21875 C 7.390625 31.21875 6.75 31.914062 6.835938 32.714844 C 7.957031 43.492188 16.507812 52.042969 27.285156 53.164062 C 28.085938 53.25 28.78125 52.609375 28.78125 51.800781 L 28.78125 32.582031 C 28.78125 31.828125 28.171875 31.21875 27.417969 31.21875 Z M 27.417969 31.21875 "/></g><path style=" stroke:none;fill-rule:nonzero;fill:#ffffff;fill-opacity:1;" d="M 41.460938 17.066406 C 40.691406 17.066406 40.066406 17.679688 40.03125 18.445312 L 41.566406 18.027344 C 41.6875 18 41.8125 18.027344 41.894531 18.113281 C 41.980469 18.199219 42.019531 18.320312 41.980469 18.445312 L 41.585938 19.933594 C 42.328125 19.875 42.921875 19.261719 42.921875 18.507812 C 42.902344 17.71875 42.261719 17.066406 41.460938 17.066406 Z M 41.460938 17.066406 "/><path style=" stroke:none;fill-rule:nonzero;fill:#ffffff;fill-opacity:1;" d="M 41.046875 20.601562 L 41.652344 18.367188 L 39.410156 18.960938 L 39.871094 19.421875 L 37.316406 21.976562 L 36.582031 21.769531 L 34.8125 23.558594 L 35.914062 23.878906 L 36.074219 24.039062 L 36.402344 25.140625 L 38.183594 23.351562 L 37.996094 22.730469 L 40.585938 20.140625 Z M 41.046875 20.601562 "/><path style=" stroke:none;fill-rule:nonzero;fill:#ffffff;fill-opacity:1;" d="M 41.460938 14.96875 C 39.503906 14.96875 37.921875 16.558594 37.921875 18.519531 C 37.921875 19.195312 38.117188 19.828125 38.457031 20.375 L 39.203125 19.628906 C 39.03125 19.292969 38.9375 18.914062 38.9375 18.519531 C 38.9375 17.125 40.078125 15.984375 41.472656 15.984375 C 42.867188 15.984375 44.003906 17.125 44.003906 18.519531 C 44.003906 19.914062 42.867188 21.054688 41.472656 21.054688 C 41.085938 21.054688 40.726562 20.957031 40.40625 20.808594 L 39.664062 21.550781 C 40.191406 21.871094 40.8125 22.0625 41.472656 22.0625 C 43.429688 22.0625 45.011719 20.46875 45.011719 18.519531 C 45.003906 16.558594 43.410156 14.96875 41.460938 14.96875 Z M 41.460938 14.96875 "/><path style=" stroke:none;fill-rule:nonzero;fill:#ffffff;fill-opacity:1;" d="M 41.460938 13.054688 C 38.449219 13.054688 36 15.503906 36 18.519531 C 36 19.734375 36.402344 20.835938 37.082031 21.75 L 37.796875 21.035156 C 37.308594 20.316406 37.015625 19.453125 37.015625 18.519531 C 37.015625 16.058594 39.011719 14.0625 41.472656 14.0625 C 43.929688 14.0625 45.925781 16.058594 45.925781 18.519531 C 45.925781 20.976562 43.929688 22.972656 41.472656 22.972656 C 40.558594 22.972656 39.710938 22.691406 38.996094 22.222656 L 38.277344 22.9375 C 39.171875 23.585938 40.273438 23.984375 41.472656 23.984375 C 44.484375 23.984375 46.933594 21.535156 46.933594 18.519531 C 46.917969 15.503906 44.46875 13.054688 41.460938 13.054688 Z M 41.460938 13.054688 "/><path style=" stroke:none;fill-rule:nonzero;fill:#ffffff;fill-opacity:1;" d="M 38.117188 39.742188 L 34.832031 37.265625 L 34.886719 36.277344 L 37.949219 38.59375 L 40.671875 34.929688 L 41.332031 35.417969 Z M 38.117188 39.742188 "/><path style=" stroke:none;fill-rule:nonzero;fill:#ffffff;fill-opacity:1;" d="M 39.089844 39.167969 C 39.089844 39.75 38.617188 40.222656 38.035156 40.222656 C 37.449219 40.222656 36.976562 39.75 36.976562 39.167969 C 36.976562 38.582031 37.449219 38.113281 38.035156 38.113281 C 38.617188 38.113281 39.089844 38.582031 39.089844 39.167969 Z M 39.089844 39.167969 "/><path style=" stroke:none;fill-rule:nonzero;fill:#ffffff;fill-opacity:1;" d="M 42.261719 35.171875 C 42.261719 35.757812 41.792969 36.226562 41.207031 36.226562 C 40.625 36.226562 40.152344 35.757812 40.152344 35.171875 C 40.152344 34.589844 40.625 34.117188 41.207031 34.117188 C 41.792969 34.109375 42.261719 34.589844 42.261719 35.171875 Z M 42.261719 35.171875 "/><path style=" stroke:none;fill-rule:nonzero;fill:#ffffff;fill-opacity:1;" d="M 35.921875 36.773438 C 35.921875 37.359375 35.453125 37.828125 34.867188 37.828125 C 34.285156 37.828125 33.8125 37.359375 33.8125 36.773438 C 33.8125 36.191406 34.285156 35.71875 34.867188 35.71875 C 35.441406 35.710938 35.921875 36.191406 35.921875 36.773438 Z M 35.921875 36.773438 "/><path style=" stroke:none;fill-rule:nonzero;fill:#ffffff;fill-opacity:1;" d="M 33.792969 39.007812 L 35.921875 39.007812 L 35.921875 45.101562 L 33.792969 45.101562 Z M 33.792969 39.007812 "/><path style=" stroke:none;fill-rule:nonzero;fill:#ffffff;fill-opacity:1;" d="M 36.929688 41.144531 L 39.058594 41.144531 L 39.058594 45.035156 L 36.929688 45.035156 Z M 36.929688 41.144531 "/><path style=" stroke:none;fill-rule:nonzero;fill:#ffffff;fill-opacity:1;" d="M 40.144531 37.460938 L 42.273438 37.460938 L 42.273438 45.09375 L 40.144531 45.09375 Z M 40.144531 37.460938 "/><path style=" stroke:none;fill-rule:nonzero;fill:#ffffff;fill-opacity:1;" d="M 23.667969 35.898438 L 23.667969 34.777344 C 23.667969 34.484375 23.421875 34.242188 23.132812 34.242188 L 18.523438 34.242188 C 18.507812 34.242188 18.496094 34.25 18.488281 34.25 C 18.441406 34.25 18.394531 34.257812 18.347656 34.277344 C 18.328125 34.289062 18.308594 34.289062 18.289062 34.296875 C 18.242188 34.316406 18.203125 34.34375 18.167969 34.382812 C 18.15625 34.390625 18.148438 34.402344 18.136719 34.410156 C 18.136719 34.410156 18.128906 34.410156 18.128906 34.417969 L 15.671875 37.027344 C 15.652344 37.046875 15.640625 37.074219 15.625 37.09375 C 15.605469 37.125 15.578125 37.160156 15.558594 37.199219 C 15.539062 37.234375 15.539062 37.285156 15.53125 37.320312 C 15.53125 37.339844 15.511719 37.367188 15.511719 37.394531 L 15.511719 44.273438 C 15.511719 44.574219 15.753906 44.808594 16.046875 44.808594 L 23.121094 44.808594 C 23.414062 44.808594 23.660156 44.574219 23.660156 44.273438 L 23.660156 43.078125 C 23.300781 43.125 22.933594 43.105469 22.585938 43.039062 L 22.585938 43.734375 L 16.59375 43.734375 L 16.59375 37.933594 L 18.515625 37.933594 C 18.808594 37.933594 19.050781 37.6875 19.050781 37.394531 L 19.050781 35.324219 L 22.585938 35.324219 L 22.585938 35.957031 C 22.953125 35.871094 23.308594 35.859375 23.667969 35.898438 Z M 23.667969 35.898438 "/><path style=" stroke:none;fill-rule:nonzero;fill:#ffffff;fill-opacity:1;" d="M 19.769531 38.660156 C 19.683594 39.007812 19.65625 39.375 19.683594 39.734375 L 17.996094 39.734375 C 17.707031 39.734375 17.460938 39.488281 17.460938 39.195312 C 17.460938 38.902344 17.707031 38.660156 17.996094 38.660156 Z M 19.769531 38.660156 "/><path style=" stroke:none;fill-rule:nonzero;fill:#ffffff;fill-opacity:1;" d="M 20.183594 41.34375 L 17.996094 41.34375 C 17.707031 41.34375 17.460938 41.097656 17.460938 40.804688 C 17.460938 40.515625 17.707031 40.269531 17.996094 40.269531 L 19.757812 40.269531 C 19.84375 40.636719 19.984375 41.003906 20.183594 41.34375 Z M 20.183594 41.34375 "/><path style=" stroke:none;fill-rule:nonzero;fill:#ffffff;fill-opacity:1;" d="M 21.652344 42.710938 C 21.558594 42.851562 21.386719 42.953125 21.199219 42.953125 L 17.996094 42.953125 C 17.707031 42.953125 17.460938 42.710938 17.460938 42.417969 C 17.460938 42.125 17.707031 41.878906 17.996094 41.878906 L 20.570312 41.878906 C 20.878906 42.230469 21.257812 42.511719 21.652344 42.710938 Z M 21.652344 42.710938 "/><path style=" stroke:none;fill-rule:nonzero;fill:#ffffff;fill-opacity:1;" d="M 26.53125 42.671875 L 25.175781 40.757812 C 25.023438 40.984375 24.835938 41.183594 24.601562 41.351562 C 24.363281 41.523438 24.109375 41.625 23.855469 41.691406 L 25.214844 43.605469 C 25.375 43.832031 25.617188 43.941406 25.871094 43.941406 C 26.03125 43.941406 26.191406 43.894531 26.332031 43.792969 C 26.703125 43.546875 26.785156 43.039062 26.53125 42.671875 Z M 26.53125 42.671875 "/><path style=" stroke:none;fill-rule:nonzero;fill:#ffffff;fill-opacity:1;" d="M 23.292969 42.324219 C 23.132812 42.324219 22.972656 42.3125 22.8125 42.285156 C 22.066406 42.152344 21.417969 41.75 20.972656 41.125 C 20.539062 40.503906 20.363281 39.761719 20.492188 39.015625 C 20.625 38.273438 21.03125 37.621094 21.652344 37.179688 C 22.925781 36.277344 24.695312 36.578125 25.597656 37.859375 C 26.03125 38.480469 26.210938 39.222656 26.078125 39.96875 C 25.949219 40.710938 25.542969 41.363281 24.921875 41.804688 C 24.441406 42.144531 23.875 42.324219 23.292969 42.324219 Z M 23.28125 37.734375 C 22.933594 37.734375 22.574219 37.839844 22.273438 38.054688 C 21.886719 38.328125 21.632812 38.734375 21.558594 39.195312 C 21.484375 39.65625 21.585938 40.117188 21.859375 40.503906 C 22.132812 40.890625 22.539062 41.144531 23 41.222656 C 23.460938 41.304688 23.921875 41.191406 24.308594 40.917969 C 24.695312 40.644531 24.949219 40.242188 25.023438 39.78125 C 25.101562 39.316406 24.996094 38.855469 24.722656 38.46875 C 24.375 37.988281 23.828125 37.734375 23.28125 37.734375 Z M 23.28125 37.734375 "/><path style=" stroke:none;fill-rule:nonzero;fill:#ffffff;fill-opacity:1;" d="M 16.105469 16.992188 C 16 17.097656 15.820312 17.097656 15.71875 16.992188 L 14.878906 16.15625 C 14.777344 16.050781 14.777344 15.871094 14.878906 15.769531 C 14.984375 15.664062 15.160156 15.664062 15.265625 15.769531 L 16.105469 16.605469 C 16.21875 16.71875 16.21875 16.890625 16.105469 16.992188 Z M 16.105469 16.992188 "/><path style=" stroke:none;fill-rule:nonzero;fill:#ffffff;fill-opacity:1;" d="M 14.539062 20.007812 C 14.484375 20.0625 14.398438 20.101562 14.304688 20.082031 L 13.117188 19.914062 C 12.96875 19.894531 12.863281 19.753906 12.882812 19.601562 C 12.902344 19.453125 13.042969 19.347656 13.191406 19.367188 L 14.378906 19.535156 C 14.53125 19.554688 14.632812 19.695312 14.617188 19.847656 C 14.617188 19.914062 14.585938 19.96875 14.539062 20.007812 Z M 14.539062 20.007812 "/><path style=" stroke:none;fill-rule:nonzero;fill:#ffffff;fill-opacity:1;" d="M 15.03125 23.3125 C 15.011719 23.332031 14.992188 23.351562 14.964844 23.359375 L 13.890625 23.917969 C 13.757812 23.984375 13.589844 23.933594 13.523438 23.804688 C 13.457031 23.671875 13.503906 23.503906 13.636719 23.4375 L 14.710938 22.878906 C 14.839844 22.8125 15.011719 22.863281 15.078125 22.992188 C 15.132812 23.105469 15.113281 23.230469 15.03125 23.3125 Z M 15.03125 23.3125 "/><path style=" stroke:none;fill-rule:nonzero;fill:#ffffff;fill-opacity:1;" d="M 25.84375 17.726562 C 25.824219 17.746094 25.796875 17.765625 25.769531 17.773438 L 24.683594 18.3125 C 24.554688 18.378906 24.382812 18.320312 24.316406 18.1875 C 24.253906 18.058594 24.308594 17.886719 24.441406 17.820312 L 25.523438 17.285156 C 25.65625 17.21875 25.824219 17.277344 25.890625 17.40625 C 25.957031 17.511719 25.929688 17.644531 25.84375 17.726562 Z M 25.84375 17.726562 "/><path style=" stroke:none;fill-rule:nonzero;fill:#ffffff;fill-opacity:1;" d="M 22.425781 15.917969 C 22.339844 16.003906 22.207031 16.023438 22.105469 15.964844 C 21.972656 15.898438 21.914062 15.730469 21.992188 15.597656 L 22.566406 14.488281 C 22.632812 14.355469 22.800781 14.300781 22.933594 14.375 C 23.066406 14.441406 23.121094 14.609375 23.046875 14.742188 L 22.472656 15.851562 C 22.460938 15.882812 22.445312 15.898438 22.425781 15.917969 Z M 22.425781 15.917969 "/><path style=" stroke:none;fill-rule:nonzero;fill:#ffffff;fill-opacity:1;" d="M 16.839844 26.742188 C 16.753906 26.828125 16.632812 26.847656 16.519531 26.800781 C 16.386719 26.734375 16.320312 26.5625 16.394531 26.433594 L 16.921875 25.347656 C 16.988281 25.207031 17.160156 25.152344 17.289062 25.226562 C 17.421875 25.292969 17.488281 25.460938 17.414062 25.59375 L 16.886719 26.675781 C 16.875 26.695312 16.859375 26.722656 16.839844 26.742188 Z M 16.839844 26.742188 "/><path style=" stroke:none;fill-rule:nonzero;fill:#ffffff;fill-opacity:1;" d="M 19.117188 15.4375 C 19.082031 15.476562 19.023438 15.503906 18.96875 15.515625 C 18.816406 15.53125 18.675781 15.429688 18.65625 15.277344 L 18.488281 14.089844 C 18.46875 13.941406 18.570312 13.800781 18.722656 13.78125 C 18.875 13.761719 19.015625 13.867188 19.035156 14.015625 L 19.203125 15.203125 C 19.203125 15.289062 19.175781 15.371094 19.117188 15.4375 Z M 19.117188 15.4375 "/><path style=" stroke:none;fill-rule:nonzero;fill:#ffffff;fill-opacity:1;" d="M 16.441406 17.40625 C 15.519531 18.332031 14.964844 19.460938 14.871094 20.601562 C 14.765625 21.84375 15.210938 22.992188 16.140625 23.925781 C 17.195312 24.980469 18.828125 25.6875 20.410156 25.773438 L 20.605469 25.78125 C 20.796875 25.78125 20.984375 25.773438 21.179688 25.761719 C 21.398438 25.761719 21.558594 25.800781 21.707031 25.867188 L 21.707031 25.894531 L 21.964844 26.027344 C 22.140625 26.1875 22.367188 26.273438 22.59375 26.253906 C 22.820312 26.242188 23.035156 26.140625 23.1875 25.980469 L 25.042969 24.125 C 25.277344 23.839844 25.316406 23.453125 25.148438 23.105469 C 25.128906 23.070312 25.109375 23.03125 25.082031 23.003906 L 25.015625 22.910156 C 24.84375 22.65625 24.796875 22.445312 24.796875 22.210938 C 24.976562 20.429688 24.253906 18.386719 23 17.117188 C 21.152344 15.269531 18.46875 15.382812 16.441406 17.40625 Z M 22.160156 17.933594 C 23.179688 18.960938 23.78125 20.675781 23.628906 22.117188 L 23.628906 22.183594 C 23.640625 22.53125 23.6875 22.992188 24.015625 23.503906 L 22.519531 24.992188 C 22 24.652344 21.519531 24.605469 21.152344 24.605469 L 21.105469 24.605469 C 21.003906 24.613281 20.898438 24.625 20.796875 24.625 L 20.605469 24.625 C 19.277344 24.59375 17.847656 24 16.960938 23.117188 C 16.28125 22.429688 15.953125 21.597656 16.027344 20.703125 C 16.09375 19.835938 16.539062 18.960938 17.273438 18.226562 C 18.796875 16.691406 20.8125 16.578125 22.160156 17.933594 Z M 22.160156 17.933594 "/><path style=" stroke:none;fill-rule:nonzero;fill:#ffffff;fill-opacity:1;" d="M 23.714844 26.902344 L 25.917969 24.707031 C 26.0625 24.566406 26.050781 24.332031 25.902344 24.179688 L 25.835938 24.113281 C 25.683594 23.964844 25.449219 23.953125 25.308594 24.09375 L 23.101562 26.289062 C 22.960938 26.433594 22.972656 26.667969 23.121094 26.816406 L 23.1875 26.882812 C 23.339844 27.035156 23.574219 27.042969 23.714844 26.902344 Z M 23.714844 26.902344 "/><path style=" stroke:none;fill-rule:nonzero;fill:#ffffff;fill-opacity:1;" d="M 25.421875 25.472656 L 25.53125 25.582031 C 25.710938 25.761719 25.710938 26.035156 25.550781 26.195312 L 25.214844 26.535156 C 25.054688 26.695312 24.769531 26.6875 24.601562 26.515625 L 24.488281 26.402344 Z M 25.421875 25.472656 "/><path style=" stroke:none;fill-rule:nonzero;fill:#ffffff;fill-opacity:1;" d="M 21.257812 19.246094 C 20.90625 19.394531 20.796875 19.800781 20.851562 20.128906 C 20.898438 20.421875 21.003906 20.703125 21.117188 20.96875 C 20.972656 21.15625 20.832031 21.335938 20.683594 21.484375 L 20.652344 21.515625 C 20.636719 21.535156 20.625 21.542969 20.605469 21.5625 C 20.585938 21.582031 20.558594 21.609375 20.539062 21.628906 C 20.378906 21.777344 20.210938 21.917969 20.023438 22.0625 C 19.835938 21.984375 19.644531 21.929688 19.46875 21.871094 C 19.035156 21.730469 18.695312 21.769531 18.457031 21.996094 C 18.203125 22.230469 18.175781 22.605469 18.402344 22.878906 C 18.675781 23.210938 19.082031 23.265625 19.597656 23.039062 C 19.625 23.03125 19.664062 23.023438 19.703125 23.003906 C 19.730469 22.984375 19.769531 22.964844 19.796875 22.945312 L 19.835938 22.925781 C 19.929688 22.878906 20.023438 22.824219 20.125 22.75 C 20.511719 22.917969 20.917969 23.132812 21.378906 23.40625 C 22.074219 23.832031 22.734375 24.351562 23.328125 24.941406 C 23.339844 24.953125 23.355469 24.960938 23.367188 24.980469 L 23.414062 25.019531 L 24.09375 24.339844 L 24.054688 24.292969 C 24.042969 24.285156 24.035156 24.265625 24.015625 24.253906 C 23.414062 23.671875 22.894531 23.011719 22.472656 22.316406 C 22.199219 21.863281 21.980469 21.457031 21.8125 21.082031 C 22.246094 20.429688 22.339844 19.933594 22.09375 19.546875 C 21.925781 19.28125 21.585938 19.09375 21.257812 19.246094 Z M 21.59375 20.074219 C 21.585938 20.148438 21.558594 20.222656 21.519531 20.316406 C 21.5 20.253906 21.484375 20.1875 21.464844 20.121094 C 21.4375 20.027344 21.4375 19.855469 21.472656 19.808594 C 21.472656 19.808594 21.484375 19.800781 21.511719 19.800781 C 21.605469 19.828125 21.613281 19.988281 21.59375 20.074219 Z M 21.398438 21.617188 C 21.519531 21.882812 21.660156 22.144531 21.804688 22.398438 C 22.011719 22.75 22.234375 23.097656 22.480469 23.425781 C 21.90625 23.003906 21.304688 22.644531 20.671875 22.351562 C 20.738281 22.296875 20.804688 22.230469 20.878906 22.164062 C 20.925781 22.125 20.964844 22.078125 21.011719 22.042969 L 21.066406 21.984375 C 21.179688 21.863281 21.292969 21.742188 21.398438 21.617188 Z M 19.371094 22.484375 C 19.277344 22.523438 19.203125 22.550781 19.128906 22.558594 C 19.042969 22.578125 18.882812 22.570312 18.863281 22.484375 C 18.855469 22.457031 18.863281 22.445312 18.875 22.445312 C 18.921875 22.398438 19.082031 22.410156 19.183594 22.4375 C 19.242188 22.445312 19.308594 22.464844 19.371094 22.484375 Z M 19.371094 22.484375 "/></g></svg>