<svg xmlns="http://www.w3.org/2000/svg" xmlns:xlink="http://www.w3.org/1999/xlink" width="80" zoomAndPan="magnify" viewBox="0 0 60 60" height="80" preserveAspectRatio="xMidYMid meet" version="1.2"><defs><clipPath id="e8cfa5cd44"><path d="M 18 18 L 42 18 L 42 42 L 18 42 Z M 18 18 "/></clipPath><clipPath id="d30365c43a"><path d="M 42 30 C 42 30.789062 41.921875 31.566406 41.769531 32.339844 C 41.617188 33.113281 41.386719 33.863281 41.085938 34.59375 C 40.785156 35.320312 40.414062 36.011719 39.976562 36.667969 C 39.539062 37.320312 39.042969 37.929688 38.484375 38.484375 C 37.929688 39.042969 37.320312 39.539062 36.667969 39.976562 C 36.011719 40.414062 35.320312 40.785156 34.59375 41.085938 C 33.863281 41.386719 33.113281 41.617188 32.339844 41.769531 C 31.566406 41.921875 30.789062 42 30 42 C 29.210938 42 28.433594 41.921875 27.660156 41.769531 C 26.886719 41.617188 26.136719 41.386719 25.40625 41.085938 C 24.679688 40.785156 23.988281 40.414062 23.332031 39.976562 C 22.679688 39.539062 22.070312 39.042969 21.515625 38.484375 C 20.957031 37.929688 20.460938 37.320312 20.023438 36.667969 C 19.585938 36.011719 19.214844 35.320312 18.914062 34.59375 C 18.613281 33.863281 18.382812 33.113281 18.230469 32.339844 C 18.078125 31.566406 18 30.789062 18 30 C 18 29.210938 18.078125 28.433594 18.230469 27.660156 C 18.382812 26.886719 18.613281 26.136719 18.914062 25.40625 C 19.214844 24.679688 19.585938 23.988281 20.023438 23.332031 C 20.460938 22.679688 20.957031 22.070312 21.515625 21.515625 C 22.070312 20.957031 22.679688 20.460938 23.332031 20.023438 C 23.988281 19.585938 24.679688 19.214844 25.40625 18.914062 C 26.136719 18.613281 26.886719 18.382812 27.660156 18.230469 C 28.433594 18.078125 29.210938 18 30 18 C 30.789062 18 31.566406 18.078125 32.339844 18.230469 C 33.113281 18.382812 33.863281 18.613281 34.59375 18.914062 C 35.320312 19.214844 36.011719 19.585938 36.667969 20.023438 C 37.320312 20.460938 37.929688 20.957031 38.484375 21.515625 C 39.042969 22.070312 39.539062 22.679688 39.976562 23.332031 C 40.414062 23.988281 40.785156 24.679688 41.085938 25.40625 C 41.386719 26.136719 41.617188 26.886719 41.769531 27.660156 C 41.921875 28.433594 42 29.210938 42 30 Z M 42 30 "/></clipPath><linearGradient x1="2.874504" gradientTransform="matrix(0.5,0,0,0.5,17.499998,17.500002)" y1="-0.618889" x2="47.125391" gradientUnits="userSpaceOnUse" y2="50.618977" id="a49e27f136"><stop style="stop-color:#f2735d;stop-opacity:1;" offset="0"/><stop style="stop-color:#f2735d;stop-opacity:1;" offset="0.125"/><stop style="stop-color:#f2735d;stop-opacity:1;" offset="0.15625"/><stop style="stop-color:#f2735d;stop-opacity:1;" offset="0.171875"/><stop style="stop-color:#f2725d;stop-opacity:1;" offset="0.179687"/><stop style="stop-color:#f2725c;stop-opacity:1;" offset="0.1875"/><stop style="stop-color:#f2715c;stop-opacity:1;" offset="0.195312"/><stop style="stop-color:#f2715b;stop-opacity:1;" offset="0.203125"/><stop style="stop-color:#f2705b;stop-opacity:1;" offset="0.210937"/><stop style="stop-color:#f2705a;stop-opacity:1;" offset="0.21875"/><stop style="stop-color:#f26f5a;stop-opacity:1;" offset="0.226562"/><stop style="stop-color:#f26f59;stop-opacity:1;" offset="0.234375"/><stop style="stop-color:#f26e59;stop-opacity:1;" offset="0.242187"/><stop style="stop-color:#f26e58;stop-opacity:1;" offset="0.25"/><stop style="stop-color:#f26d58;stop-opacity:1;" offset="0.257812"/><stop style="stop-color:#f26d58;stop-opacity:1;" offset="0.265625"/><stop style="stop-color:#f26c57;stop-opacity:1;" offset="0.273437"/><stop style="stop-color:#f16c57;stop-opacity:1;" offset="0.28125"/><stop style="stop-color:#f16b56;stop-opacity:1;" offset="0.289062"/><stop style="stop-color:#f16a56;stop-opacity:1;" offset="0.296875"/><stop style="stop-color:#f16a55;stop-opacity:1;" offset="0.304687"/><stop style="stop-color:#f16955;stop-opacity:1;" offset="0.3125"/><stop style="stop-color:#f16954;stop-opacity:1;" offset="0.320312"/><stop style="stop-color:#f16854;stop-opacity:1;" offset="0.328125"/><stop style="stop-color:#f16853;stop-opacity:1;" offset="0.335937"/><stop style="stop-color:#f16753;stop-opacity:1;" offset="0.34375"/><stop style="stop-color:#f16753;stop-opacity:1;" offset="0.351562"/><stop style="stop-color:#f16652;stop-opacity:1;" offset="0.359375"/><stop style="stop-color:#f16652;stop-opacity:1;" offset="0.367187"/><stop style="stop-color:#f16551;stop-opacity:1;" offset="0.375"/><stop style="stop-color:#f16551;stop-opacity:1;" offset="0.382812"/><stop style="stop-color:#f16450;stop-opacity:1;" offset="0.390625"/><stop style="stop-color:#f16450;stop-opacity:1;" offset="0.398438"/><stop style="stop-color:#f1634f;stop-opacity:1;" offset="0.40625"/><stop style="stop-color:#f1634f;stop-opacity:1;" offset="0.414062"/><stop style="stop-color:#f1624e;stop-opacity:1;" offset="0.421875"/><stop style="stop-color:#f1614e;stop-opacity:1;" offset="0.429687"/><stop style="stop-color:#f1614e;stop-opacity:1;" offset="0.4375"/><stop style="stop-color:#f1604d;stop-opacity:1;" offset="0.445313"/><stop style="stop-color:#f1604d;stop-opacity:1;" offset="0.453125"/><stop style="stop-color:#f15f4c;stop-opacity:1;" offset="0.460938"/><stop style="stop-color:#f15f4c;stop-opacity:1;" offset="0.463415"/><stop style="stop-color:#f15f4c;stop-opacity:1;" offset="0.46875"/><stop style="stop-color:#f15e4b;stop-opacity:1;" offset="0.476562"/><stop style="stop-color:#f15e4b;stop-opacity:1;" offset="0.484375"/><stop style="stop-color:#f05d4a;stop-opacity:1;" offset="0.492187"/><stop style="stop-color:#f05d4a;stop-opacity:1;" offset="0.5"/><stop style="stop-color:#f05c49;stop-opacity:1;" offset="0.507812"/><stop style="stop-color:#f05c49;stop-opacity:1;" offset="0.515625"/><stop style="stop-color:#f05b49;stop-opacity:1;" offset="0.523438"/><stop style="stop-color:#f05b48;stop-opacity:1;" offset="0.53125"/><stop style="stop-color:#f05a48;stop-opacity:1;" offset="0.536585"/><stop style="stop-color:#f05a47;stop-opacity:1;" offset="0.539062"/><stop style="stop-color:#f05a47;stop-opacity:1;" offset="0.546875"/><stop style="stop-color:#f05947;stop-opacity:1;" offset="0.554688"/><stop style="stop-color:#f05846;stop-opacity:1;" offset="0.5625"/><stop style="stop-color:#f05846;stop-opacity:1;" offset="0.570312"/><stop style="stop-color:#f05745;stop-opacity:1;" offset="0.578125"/><stop style="stop-color:#f05745;stop-opacity:1;" offset="0.585937"/><stop style="stop-color:#f05644;stop-opacity:1;" offset="0.59375"/><stop style="stop-color:#f05644;stop-opacity:1;" offset="0.625"/><stop style="stop-color:#f05644;stop-opacity:1;" offset="0.75"/><stop style="stop-color:#f05644;stop-opacity:1;" offset="1"/></linearGradient></defs><g id="196713223f"><g clip-rule="nonzero" clip-path="url(#e8cfa5cd44)"><g clip-rule="nonzero" clip-path="url(#d30365c43a)"><path style=" stroke:none;fill-rule:nonzero;fill:url(#linear0);" d="M 18 18 L 18 42 L 42 42 L 42 18 Z M 18 18 "/></g></g><path style=" stroke:none;fill-rule:nonzero;fill:#eaa736;fill-opacity:1;" d="M 31.9375 29.347656 C 31.9375 29.605469 31.886719 29.851562 31.789062 30.089844 C 31.691406 30.328125 31.550781 30.539062 31.367188 30.71875 C 31.1875 30.902344 30.976562 31.042969 30.738281 31.140625 C 30.5 31.238281 30.253906 31.289062 29.996094 31.289062 C 29.738281 31.289062 29.492188 31.238281 29.253906 31.140625 C 29.015625 31.042969 28.808594 30.902344 28.625 30.71875 C 28.441406 30.539062 28.304688 30.328125 28.203125 30.089844 C 28.105469 29.851562 28.058594 29.605469 28.058594 29.347656 C 28.058594 29.089844 28.105469 28.84375 28.203125 28.605469 C 28.304688 28.367188 28.441406 28.15625 28.625 27.976562 C 28.808594 27.792969 29.015625 27.652344 29.253906 27.554688 C 29.492188 27.457031 29.738281 27.40625 29.996094 27.40625 C 30.253906 27.40625 30.5 27.457031 30.738281 27.554688 C 30.976562 27.652344 31.1875 27.792969 31.367188 27.976562 C 31.550781 28.15625 31.691406 28.367188 31.789062 28.605469 C 31.886719 28.84375 31.9375 29.089844 31.9375 29.347656 Z M 31.9375 29.347656 "/><path style=" stroke:none;fill-rule:nonzero;fill:#f3cd4c;fill-opacity:1;" d="M 30.003906 28.019531 C 29.273438 28.019531 28.679688 28.613281 28.679688 29.339844 C 28.679688 30.070312 29.273438 30.664062 30.003906 30.664062 C 30.734375 30.664062 31.328125 30.070312 31.328125 29.339844 C 31.328125 28.613281 30.734375 28.019531 30.003906 28.019531 Z M 30.003906 28.019531 "/><path style=" stroke:none;fill-rule:nonzero;fill:#ffffff;fill-opacity:1;" d="M 29.960938 30.140625 L 29.960938 30 C 29.785156 29.980469 29.625 29.910156 29.488281 29.789062 L 29.628906 29.621094 C 29.734375 29.714844 29.847656 29.773438 29.960938 29.789062 L 29.960938 29.417969 C 29.816406 29.382812 29.707031 29.335938 29.640625 29.28125 C 29.574219 29.222656 29.539062 29.140625 29.539062 29.027344 C 29.539062 28.917969 29.578125 28.824219 29.65625 28.753906 C 29.734375 28.683594 29.835938 28.644531 29.960938 28.640625 L 29.960938 28.542969 L 30.082031 28.542969 L 30.082031 28.640625 C 30.222656 28.652344 30.359375 28.699219 30.484375 28.785156 L 30.359375 28.964844 C 30.273438 28.902344 30.183594 28.867188 30.082031 28.851562 L 30.082031 29.214844 L 30.089844 29.214844 C 30.238281 29.25 30.34375 29.296875 30.414062 29.355469 C 30.484375 29.414062 30.519531 29.5 30.519531 29.613281 C 30.519531 29.722656 30.480469 29.816406 30.398438 29.886719 C 30.320312 29.957031 30.214844 29.996094 30.082031 30 L 30.082031 30.140625 Z M 29.824219 28.898438 C 29.792969 28.925781 29.773438 28.960938 29.773438 29.003906 C 29.773438 29.046875 29.789062 29.082031 29.8125 29.105469 C 29.839844 29.132812 29.886719 29.15625 29.960938 29.179688 L 29.960938 28.847656 C 29.902344 28.851562 29.855469 28.867188 29.824219 28.898438 Z M 30.230469 29.742188 C 30.265625 29.710938 30.285156 29.675781 30.285156 29.628906 C 30.285156 29.585938 30.269531 29.550781 30.242188 29.523438 C 30.214844 29.496094 30.160156 29.472656 30.082031 29.449219 L 30.082031 29.796875 C 30.144531 29.789062 30.195312 29.769531 30.230469 29.742188 Z M 30.230469 29.742188 "/><path style=" stroke:none;fill-rule:nonzero;fill:#464c56;fill-opacity:1;" d="M 32.960938 26.492188 C 32.960938 26.730469 32.878906 26.933594 32.710938 27.101562 C 32.542969 27.269531 32.339844 27.351562 32.101562 27.351562 C 31.863281 27.351562 31.660156 27.269531 31.492188 27.101562 C 31.324219 26.933594 31.238281 26.730469 31.238281 26.492188 C 31.238281 26.253906 31.324219 26.050781 31.492188 25.882812 C 31.660156 25.714844 31.863281 25.632812 32.101562 25.632812 C 32.339844 25.632812 32.542969 25.714844 32.710938 25.882812 C 32.878906 26.050781 32.960938 26.253906 32.960938 26.492188 Z M 32.960938 26.492188 "/><path style=" stroke:none;fill-rule:nonzero;fill:#464c56;fill-opacity:1;" d="M 28.761719 26.492188 C 28.761719 26.730469 28.675781 26.933594 28.507812 27.101562 C 28.339844 27.269531 28.136719 27.351562 27.898438 27.351562 C 27.664062 27.351562 27.460938 27.269531 27.292969 27.101562 C 27.125 26.933594 27.039062 26.730469 27.039062 26.492188 C 27.039062 26.253906 27.125 26.050781 27.292969 25.882812 C 27.460938 25.714844 27.664062 25.632812 27.898438 25.632812 C 28.136719 25.632812 28.339844 25.714844 28.507812 25.882812 C 28.675781 26.050781 28.761719 26.253906 28.761719 26.492188 Z M 28.761719 26.492188 "/><path style=" stroke:none;fill-rule:nonzero;fill:#f0f1ee;fill-opacity:1;" d="M 36.589844 32.019531 L 36.5 32.277344 L 35.121094 36.226562 C 34.933594 36.769531 34.421875 37.128906 33.847656 37.128906 L 26.152344 37.128906 C 25.578125 37.128906 25.066406 36.769531 24.878906 36.226562 L 23.5 32.277344 L 23.410156 32.019531 Z M 36.589844 32.019531 "/><path style=" stroke:none;fill-rule:nonzero;fill:#f0f1ee;fill-opacity:1;" d="M 36.710938 30.441406 L 23.289062 30.441406 C 22.851562 30.441406 22.5 30.796875 22.5 31.230469 C 22.5 31.664062 22.851562 32.019531 23.289062 32.019531 L 36.710938 32.019531 C 37.148438 32.019531 37.5 31.664062 37.5 31.230469 C 37.5 30.796875 37.148438 30.441406 36.710938 30.441406 Z M 36.710938 30.441406 "/><path style=" stroke:none;fill-rule:nonzero;fill:#dbdfe5;fill-opacity:1;" d="M 26.480469 33.640625 C 26.410156 33.3125 26.066406 33.035156 25.71875 33.035156 C 25.371094 33.035156 25.171875 33.3125 25.265625 33.640625 L 25.867188 35.683594 C 25.9375 35.925781 26.226562 36.117188 26.507812 36.117188 C 26.792969 36.117188 26.980469 35.925781 26.929688 35.683594 Z M 26.480469 33.640625 "/><path style=" stroke:none;fill-rule:nonzero;fill:#dbdfe5;fill-opacity:1;" d="M 29.230469 33.640625 C 29.214844 33.3125 28.921875 33.035156 28.574219 33.035156 C 28.226562 33.035156 27.976562 33.3125 28.015625 33.640625 L 28.269531 35.683594 C 28.296875 35.925781 28.550781 36.117188 28.835938 36.117188 C 29.121094 36.117188 29.339844 35.925781 29.328125 35.683594 Z M 29.230469 33.640625 "/><path style=" stroke:none;fill-rule:nonzero;fill:#dbdfe5;fill-opacity:1;" d="M 31.394531 33.035156 C 31.046875 33.035156 30.753906 33.3125 30.738281 33.640625 L 30.640625 35.683594 C 30.628906 35.925781 30.847656 36.117188 31.132812 36.117188 C 31.417969 36.117188 31.671875 35.925781 31.699219 35.683594 L 31.953125 33.640625 C 31.992188 33.3125 31.742188 33.035156 31.394531 33.035156 Z M 31.394531 33.035156 "/><path style=" stroke:none;fill-rule:nonzero;fill:#dbdfe5;fill-opacity:1;" d="M 34.25 33.035156 C 33.902344 33.035156 33.558594 33.3125 33.488281 33.640625 L 33.039062 35.683594 C 32.988281 35.925781 33.175781 36.117188 33.460938 36.117188 C 33.742188 36.117188 34.03125 35.925781 34.101562 35.683594 L 34.703125 33.640625 C 34.796875 33.3125 34.597656 33.035156 34.25 33.035156 Z M 34.25 33.035156 "/><path style=" stroke:none;fill-rule:nonzero;fill:#dbdfe5;fill-opacity:1;" d="M 36.589844 32.019531 L 36.5 32.277344 L 23.5 32.277344 L 23.410156 32.019531 Z M 36.589844 32.019531 "/><path style=" stroke:none;fill-rule:nonzero;fill:#dbdfe5;fill-opacity:1;" d="M 28.066406 26.203125 C 27.921875 26.121094 27.738281 26.175781 27.65625 26.320312 L 24.976562 31.058594 C 24.894531 31.207031 24.949219 31.390625 25.09375 31.46875 C 25.238281 31.550781 25.421875 31.5 25.503906 31.351562 L 28.183594 26.613281 C 28.265625 26.464844 28.210938 26.28125 28.066406 26.203125 Z M 28.066406 26.203125 "/><path style=" stroke:none;fill-rule:nonzero;fill:#dbdfe5;fill-opacity:1;" d="M 35.023438 31.058594 L 32.34375 26.320312 C 32.261719 26.175781 32.078125 26.121094 31.933594 26.203125 C 31.789062 26.28125 31.734375 26.464844 31.816406 26.613281 L 34.496094 31.351562 C 34.578125 31.496094 34.761719 31.550781 34.90625 31.46875 C 35.050781 31.390625 35.105469 31.207031 35.023438 31.058594 Z M 35.023438 31.058594 "/><path style=" stroke:none;fill-rule:nonzero;fill:#eaa736;fill-opacity:1;" d="M 26.816406 26.25 C 26.816406 26.511719 26.722656 26.734375 26.539062 26.917969 C 26.355469 27.101562 26.132812 27.195312 25.871094 27.195312 C 25.609375 27.195312 25.386719 27.101562 25.203125 26.917969 C 25.019531 26.734375 24.925781 26.511719 24.925781 26.25 C 24.925781 25.988281 25.019531 25.765625 25.203125 25.582031 C 25.386719 25.398438 25.609375 25.304688 25.871094 25.304688 C 26.132812 25.304688 26.355469 25.398438 26.539062 25.582031 C 26.722656 25.765625 26.816406 25.988281 26.816406 26.25 Z M 26.816406 26.25 "/><path style=" stroke:none;fill-rule:nonzero;fill:#f3cd4c;fill-opacity:1;" d="M 26.515625 26.246094 C 26.515625 26.425781 26.453125 26.578125 26.328125 26.703125 C 26.203125 26.828125 26.050781 26.890625 25.871094 26.890625 C 25.695312 26.890625 25.542969 26.828125 25.417969 26.703125 C 25.292969 26.578125 25.230469 26.425781 25.230469 26.246094 C 25.230469 26.070312 25.292969 25.917969 25.417969 25.792969 C 25.542969 25.667969 25.695312 25.605469 25.871094 25.605469 C 26.050781 25.605469 26.203125 25.667969 26.328125 25.792969 C 26.453125 25.917969 26.515625 26.070312 26.515625 26.246094 Z M 26.515625 26.246094 "/><path style=" stroke:none;fill-rule:nonzero;fill:#ffffff;fill-opacity:1;" d="M 25.851562 26.636719 L 25.851562 26.566406 C 25.765625 26.558594 25.691406 26.523438 25.621094 26.464844 L 25.691406 26.382812 C 25.742188 26.429688 25.796875 26.457031 25.851562 26.464844 L 25.851562 26.285156 C 25.78125 26.265625 25.730469 26.246094 25.699219 26.21875 C 25.664062 26.191406 25.648438 26.148438 25.648438 26.09375 C 25.648438 26.042969 25.667969 25.996094 25.703125 25.960938 C 25.742188 25.929688 25.792969 25.910156 25.851562 25.90625 L 25.851562 25.859375 L 25.914062 25.859375 L 25.914062 25.90625 C 25.980469 25.914062 26.046875 25.9375 26.105469 25.976562 L 26.046875 26.0625 C 26.003906 26.035156 25.960938 26.015625 25.914062 26.007812 L 25.914062 26.1875 C 25.988281 26.203125 26.039062 26.226562 26.074219 26.253906 C 26.105469 26.28125 26.125 26.324219 26.125 26.378906 C 26.125 26.433594 26.105469 26.476562 26.066406 26.511719 C 26.027344 26.546875 25.976562 26.566406 25.914062 26.570312 L 25.914062 26.636719 Z M 25.785156 26.03125 C 25.769531 26.046875 25.761719 26.0625 25.761719 26.082031 C 25.761719 26.105469 25.769531 26.121094 25.78125 26.132812 C 25.792969 26.144531 25.816406 26.15625 25.851562 26.167969 L 25.851562 26.007812 C 25.824219 26.007812 25.800781 26.015625 25.785156 26.03125 Z M 25.984375 26.441406 C 26 26.429688 26.011719 26.410156 26.011719 26.386719 C 26.011719 26.367188 26.003906 26.347656 25.988281 26.335938 C 25.976562 26.324219 25.949219 26.3125 25.914062 26.300781 L 25.914062 26.46875 C 25.941406 26.464844 25.964844 26.457031 25.984375 26.441406 Z M 25.984375 26.441406 "/><path style=" stroke:none;fill-rule:nonzero;fill:#eaa736;fill-opacity:1;" d="M 30.691406 23.8125 C 30.691406 24.074219 30.597656 24.296875 30.414062 24.480469 C 30.230469 24.664062 30.007812 24.757812 29.746094 24.757812 C 29.484375 24.757812 29.261719 24.664062 29.078125 24.480469 C 28.894531 24.296875 28.800781 24.074219 28.800781 23.8125 C 28.800781 23.550781 28.894531 23.328125 29.078125 23.144531 C 29.261719 22.960938 29.484375 22.867188 29.746094 22.867188 C 30.007812 22.867188 30.230469 22.960938 30.414062 23.144531 C 30.597656 23.328125 30.691406 23.550781 30.691406 23.8125 Z M 30.691406 23.8125 "/><path style=" stroke:none;fill-rule:nonzero;fill:#f3cd4c;fill-opacity:1;" d="M 30.390625 23.808594 C 30.390625 23.988281 30.328125 24.140625 30.203125 24.265625 C 30.078125 24.390625 29.925781 24.453125 29.746094 24.453125 C 29.570312 24.453125 29.417969 24.390625 29.292969 24.265625 C 29.167969 24.140625 29.105469 23.988281 29.105469 23.808594 C 29.105469 23.632812 29.167969 23.480469 29.292969 23.355469 C 29.417969 23.230469 29.570312 23.167969 29.746094 23.167969 C 29.925781 23.167969 30.078125 23.230469 30.203125 23.355469 C 30.328125 23.480469 30.390625 23.632812 30.390625 23.808594 Z M 30.390625 23.808594 "/><path style=" stroke:none;fill-rule:nonzero;fill:#ffffff;fill-opacity:1;" d="M 29.726562 24.199219 L 29.726562 24.128906 C 29.640625 24.121094 29.566406 24.085938 29.496094 24.027344 L 29.566406 23.945312 C 29.617188 23.992188 29.671875 24.019531 29.726562 24.027344 L 29.726562 23.847656 C 29.65625 23.828125 29.605469 23.808594 29.574219 23.78125 C 29.539062 23.753906 29.523438 23.710938 29.523438 23.65625 C 29.523438 23.605469 29.542969 23.558594 29.578125 23.523438 C 29.617188 23.492188 29.667969 23.472656 29.726562 23.46875 L 29.726562 23.421875 L 29.789062 23.421875 L 29.789062 23.46875 C 29.855469 23.476562 29.921875 23.5 29.980469 23.539062 L 29.921875 23.625 C 29.878906 23.597656 29.835938 23.578125 29.789062 23.570312 L 29.789062 23.75 C 29.863281 23.765625 29.914062 23.789062 29.949219 23.816406 C 29.980469 23.84375 30 23.886719 30 23.941406 C 30 23.996094 29.980469 24.039062 29.941406 24.074219 C 29.902344 24.109375 29.851562 24.128906 29.789062 24.132812 L 29.789062 24.199219 Z M 29.660156 23.59375 C 29.644531 23.609375 29.636719 23.625 29.636719 23.644531 C 29.636719 23.667969 29.644531 23.683594 29.65625 23.695312 C 29.667969 23.707031 29.691406 23.71875 29.726562 23.730469 L 29.726562 23.570312 C 29.699219 23.570312 29.675781 23.578125 29.660156 23.59375 Z M 29.859375 24.003906 C 29.875 23.992188 29.886719 23.972656 29.886719 23.949219 C 29.886719 23.929688 29.878906 23.910156 29.863281 23.898438 C 29.851562 23.886719 29.824219 23.875 29.789062 23.863281 L 29.789062 24.03125 C 29.816406 24.027344 29.839844 24.019531 29.859375 24.003906 Z M 29.859375 24.003906 "/></g></svg>