<svg xmlns="http://www.w3.org/2000/svg" xmlns:xlink="http://www.w3.org/1999/xlink" width="80" zoomAndPan="magnify" viewBox="0 0 60 60" height="80" preserveAspectRatio="xMidYMid meet" version="1.2"><defs><clipPath id="68c1550ccd"><path d="M 15.976562 14.445312 L 43.726562 14.445312 L 43.726562 42.195312 L 15.976562 42.195312 Z M 15.976562 14.445312 "/></clipPath></defs><g id="6d98e0072a"><g clip-rule="nonzero" clip-path="url(#68c1550ccd)"><path style=" stroke:none;fill-rule:nonzero;fill:#fc8c06;fill-opacity:1;" d="M 29.851562 14.445312 C 30.761719 14.445312 31.664062 14.535156 32.558594 14.710938 C 33.453125 14.890625 34.320312 15.152344 35.164062 15.5 C 36.003906 15.851562 36.804688 16.277344 37.5625 16.785156 C 38.320312 17.289062 39.019531 17.863281 39.664062 18.507812 C 40.308594 19.152344 40.882812 19.855469 41.390625 20.613281 C 41.898438 21.371094 42.324219 22.167969 42.671875 23.011719 C 43.023438 23.851562 43.285156 24.722656 43.460938 25.613281 C 43.640625 26.507812 43.730469 27.410156 43.730469 28.320312 C 43.730469 29.234375 43.640625 30.136719 43.460938 31.03125 C 43.285156 31.921875 43.023438 32.789062 42.671875 33.632812 C 42.324219 34.472656 41.898438 35.273438 41.390625 36.03125 C 40.882812 36.789062 40.308594 37.492188 39.664062 38.136719 C 39.019531 38.777344 38.320312 39.355469 37.5625 39.859375 C 36.804688 40.367188 36.003906 40.792969 35.164062 41.144531 C 34.320312 41.492188 33.453125 41.753906 32.558594 41.933594 C 31.664062 42.109375 30.761719 42.199219 29.851562 42.199219 C 28.941406 42.199219 28.039062 42.109375 27.144531 41.933594 C 26.25 41.753906 25.382812 41.492188 24.542969 41.144531 C 23.699219 40.792969 22.898438 40.367188 22.140625 39.859375 C 21.386719 39.355469 20.683594 38.777344 20.039062 38.136719 C 19.394531 37.492188 18.820312 36.789062 18.3125 36.03125 C 17.808594 35.273438 17.378906 34.472656 17.03125 33.632812 C 16.683594 32.789062 16.417969 31.921875 16.242188 31.03125 C 16.0625 30.136719 15.976562 29.234375 15.976562 28.320312 C 15.976562 27.410156 16.0625 26.507812 16.242188 25.613281 C 16.417969 24.722656 16.683594 23.851562 17.03125 23.011719 C 17.378906 22.167969 17.808594 21.371094 18.3125 20.613281 C 18.820312 19.855469 19.394531 19.152344 20.039062 18.507812 C 20.683594 17.863281 21.386719 17.289062 22.140625 16.785156 C 22.898438 16.277344 23.699219 15.851562 24.542969 15.5 C 25.382812 15.152344 26.25 14.890625 27.144531 14.710938 C 28.039062 14.535156 28.941406 14.445312 29.851562 14.445312 Z M 29.851562 14.445312 "/></g><path style=" stroke:none;fill-rule:nonzero;fill:#ffffff;fill-opacity:1;" d="M 34.121094 23.03125 L 21.316406 23.03125 C 21.050781 23.03125 20.808594 23.253906 20.777344 23.523438 C 20.746094 23.792969 20.941406 24.011719 21.207031 24.011719 L 26.039062 24.011719 C 26.308594 24.011719 26.503906 24.230469 26.472656 24.5 C 26.445312 24.769531 26.207031 24.992188 25.9375 24.992188 L 22.027344 24.992188 C 21.757812 24.992188 21.515625 25.210938 21.488281 25.480469 C 21.457031 25.75 21.652344 25.96875 21.917969 25.96875 L 23.820312 25.96875 L 23.820312 25.976562 L 24.625 25.976562 C 24.890625 25.976562 25.085938 26.195312 25.058594 26.464844 C 25.03125 26.707031 24.832031 26.910156 24.597656 26.949219 L 19.632812 26.949219 C 19.363281 26.949219 19.121094 27.167969 19.089844 27.4375 C 19.058594 27.707031 19.253906 27.925781 19.523438 27.925781 L 25.390625 27.925781 C 25.65625 27.925781 25.851562 28.144531 25.824219 28.414062 C 25.796875 28.6875 25.554688 28.90625 25.285156 28.90625 L 22.742188 28.90625 C 22.472656 28.90625 22.230469 29.125 22.199219 29.394531 C 22.171875 29.664062 22.367188 29.882812 22.636719 29.882812 L 24.179688 29.882812 C 24.449219 29.882812 24.644531 30.101562 24.617188 30.371094 C 24.589844 30.644531 24.347656 30.863281 24.078125 30.863281 L 21.488281 30.863281 C 21.21875 30.863281 20.976562 31.082031 20.945312 31.351562 C 20.917969 31.621094 21.113281 31.839844 21.382812 31.839844 L 25.515625 31.839844 C 25.515625 30.601562 26.519531 29.59375 27.761719 29.59375 C 29 29.59375 30.007812 30.601562 30.007812 31.839844 L 34.410156 31.839844 L 35.128906 24.164062 C 35.1875 23.539062 34.738281 23.035156 34.121094 23.035156 Z M 34.121094 23.03125 "/><path style=" stroke:none;fill-rule:nonzero;fill:#ffffff;fill-opacity:1;" d="M 27.761719 30.054688 C 26.777344 30.054688 25.976562 30.855469 25.976562 31.839844 C 25.976562 32.824219 26.777344 33.621094 27.761719 33.621094 C 28.746094 33.621094 29.542969 32.824219 29.542969 31.839844 C 29.542969 30.855469 28.746094 30.054688 27.761719 30.054688 Z M 27.761719 32.628906 C 27.324219 32.628906 26.96875 32.273438 26.96875 31.839844 C 26.96875 31.402344 27.324219 31.046875 27.761719 31.046875 C 28.195312 31.046875 28.550781 31.402344 28.550781 31.839844 C 28.550781 32.273438 28.195312 32.628906 27.761719 32.628906 Z M 27.761719 32.628906 "/><path style=" stroke:none;fill-rule:nonzero;fill:#ffffff;fill-opacity:1;" d="M 40.496094 27.71875 L 39.0625 25.25 C 38.769531 24.746094 38.238281 24.441406 37.652344 24.441406 L 35.617188 24.441406 L 35.019531 30.644531 C 35.417969 30.015625 36.121094 29.59375 36.921875 29.59375 C 38.160156 29.59375 39.164062 30.597656 39.164062 31.839844 L 39.9375 31.839844 C 40.300781 31.839844 40.605469 31.546875 40.617188 31.183594 L 40.722656 28.636719 C 40.734375 28.3125 40.65625 27.996094 40.496094 27.71875 Z M 36.128906 27.148438 L 36.316406 25.324219 L 37.722656 25.324219 C 37.972656 25.324219 38.191406 25.453125 38.304688 25.667969 L 39.097656 27.148438 Z M 36.128906 27.148438 "/><path style=" stroke:none;fill-rule:nonzero;fill:#ffffff;fill-opacity:1;" d="M 36.921875 30.054688 C 35.9375 30.054688 35.136719 30.855469 35.136719 31.839844 C 35.136719 32.824219 35.9375 33.621094 36.921875 33.621094 C 37.90625 33.621094 38.703125 32.824219 38.703125 31.839844 C 38.703125 30.855469 37.90625 30.054688 36.921875 30.054688 Z M 36.921875 32.628906 C 36.484375 32.628906 36.128906 32.273438 36.128906 31.839844 C 36.128906 31.402344 36.484375 31.046875 36.921875 31.046875 C 37.355469 31.046875 37.710938 31.402344 37.710938 31.839844 C 37.710938 32.273438 37.355469 32.628906 36.921875 32.628906 Z M 36.921875 32.628906 "/></g></svg>