<svg xmlns="http://www.w3.org/2000/svg" xmlns:xlink="http://www.w3.org/1999/xlink" width="80" zoomAndPan="magnify" viewBox="0 0 60 60" height="80" preserveAspectRatio="xMidYMid meet" version="1.2"><g id="2e02890cd1"><path style=" stroke:none;fill-rule:nonzero;fill:#e52d27;fill-opacity:1;" d="M 54 46.707031 C 54 50.726562 50.726562 54 46.707031 54 L 13.292969 54 C 9.273438 54 6 50.726562 6 46.707031 L 6 13.292969 C 6 9.273438 9.273438 6 13.292969 6 L 46.707031 6 C 50.726562 6 54 9.273438 54 13.292969 Z M 54 46.707031 "/><path style=" stroke:none;fill-rule:nonzero;fill:#ffffff;fill-opacity:1;" d="M 47.015625 30.378906 C 47.015625 33.035156 47.015625 35.847656 46.421875 38.417969 C 46.003906 40.226562 44.527344 41.554688 42.742188 41.757812 C 38.527344 42.222656 34.253906 42.230469 30.003906 42.222656 C 25.746094 42.222656 21.492188 42.222656 17.269531 41.757812 C 15.488281 41.554688 14.003906 40.226562 13.585938 38.417969 C 12.996094 35.847656 12.996094 33.035156 12.996094 30.378906 C 12.996094 27.726562 13.003906 24.914062 13.585938 22.34375 C 14.003906 20.53125 15.480469 19.203125 17.269531 19.003906 C 21.492188 18.527344 25.757812 18.527344 30.003906 18.527344 C 34.253906 18.527344 38.515625 18.527344 42.742188 19.003906 C 44.519531 19.203125 46.003906 20.53125 46.421875 22.34375 C 47.015625 24.914062 47.015625 27.726562 47.015625 30.378906 Z M 47.015625 30.378906 "/><path style=" stroke:none;fill-rule:nonzero;fill:#e52d27;fill-opacity:1;" d="M 26.421875 24.054688 L 26.421875 36.765625 L 36.296875 30.40625 Z M 26.421875 24.054688 "/></g></svg>