<svg xmlns="http://www.w3.org/2000/svg" xmlns:xlink="http://www.w3.org/1999/xlink" width="80" zoomAndPan="magnify" viewBox="0 0 60 60" height="80" preserveAspectRatio="xMidYMid meet" version="1.2"><defs><clipPath id="9c745e1c84"><path d="M 11 10.289062 L 54 10.289062 L 54 48 L 11 48 Z M 11 10.289062 "/></clipPath></defs><g id="8ce5174235"><g clip-rule="nonzero" clip-path="url(#9c745e1c84)"><path style=" stroke:none;fill-rule:nonzero;fill:#262662;fill-opacity:1;" d="M 13.128906 27.515625 C 12.429688 26.816406 11.875 26.140625 11.449219 25.480469 C 11.96875 22.742188 13.070312 20.21875 14.625 18.039062 C 15.011719 18.542969 15.480469 19.058594 16.054688 19.589844 C 16.171875 19.695312 16.296875 19.800781 16.421875 19.90625 C 14.921875 22.328125 13.992188 25.144531 13.800781 28.160156 C 13.5625 27.949219 13.332031 27.734375 13.121094 27.523438 Z M 13.773438 29.273438 C 13.773438 29.179688 13.773438 29.082031 13.773438 28.984375 C 13.53125 28.828125 13.285156 28.664062 13.054688 28.511719 C 12.382812 28.035156 11.765625 27.570312 11.210938 27.105469 C 11.152344 27.71875 11.113281 28.335938 11.113281 28.964844 C 11.113281 31.625 11.671875 34.160156 12.667969 36.453125 C 12.6875 36.464844 12.707031 36.484375 12.726562 36.492188 L 12.746094 36.320312 L 16.265625 38.378906 C 14.683594 35.71875 13.773438 32.601562 13.773438 29.273438 Z M 17.09375 18.902344 C 20.285156 14.429688 25.484375 11.527344 31.367188 11.527344 C 37.246094 11.527344 39.464844 13.027344 42.496094 15.523438 C 39.167969 12.285156 34.636719 10.289062 29.640625 10.289062 C 24.640625 10.289062 19.605469 12.515625 16.238281 16.085938 C 16.121094 16.8125 16.335938 17.625 16.832031 18.484375 C 16.910156 18.621094 16.996094 18.757812 17.09375 18.890625 Z M 16.957031 39.453125 C 16.59375 39.28125 16.226562 39.117188 15.875 38.941406 C 14.914062 38.476562 14.023438 37.992188 13.179688 37.507812 C 17.695312 46.363281 28.238281 50.039062 37.152344 46.042969 C 34.179688 47.089844 23.703125 49.160156 16.949219 39.453125 Z M 53.96875 33.453125 C 53.96875 33.453125 53.949219 35.546875 53.949219 35.613281 C 53.949219 36.28125 53.539062 36.210938 53.539062 36.210938 L 53.453125 42.222656 C 53.363281 42.871094 52.320312 42.957031 52.320312 42.957031 L 50.351562 43.082031 C 49.765625 44.089844 49.046875 44.136719 49.046875 44.136719 L 47.378906 44.136719 C 46.488281 44.136719 45.816406 43.054688 45.816406 43.054688 L 37.410156 43.082031 C 37.046875 44.59375 35.914062 44.601562 35.914062 44.601562 L 35.886719 44.601562 C 35.886719 44.601562 34.265625 44.613281 34.265625 44.613281 L 21.667969 40.277344 L 32.769531 42.375 C 32.652344 42.039062 32.574219 41.707031 32.546875 41.476562 C 32.460938 40.519531 32.414062 38.816406 33.152344 37.722656 C 33.351562 37.421875 33.984375 36.898438 34.648438 36.859375 C 34.648438 36.859375 33.542969 36.453125 32.835938 37.519531 C 32.835938 37.519531 32.363281 37.992188 32.222656 39.996094 C 32.222656 39.996094 32.210938 40.867188 32.25 41.476562 C 31.992188 41.4375 31.394531 41.292969 31.394531 41.292969 C 31.15625 37.140625 32.664062 36.445312 32.664062 36.445312 L 32.664062 35.195312 C 32.527344 35.15625 32.546875 35.03125 32.546875 35.03125 L 32.546875 34.199219 C 32.46875 34.199219 32.402344 34.179688 32.335938 34.152344 C 32.308594 34.933594 32.296875 35.59375 32.296875 36.058594 C 30.773438 36.910156 30.933594 40.75 30.933594 40.75 L 17.601562 37.0625 L 29.554688 37.539062 L 29.535156 35.527344 L 17.515625 33.601562 L 29.507812 32.390625 L 29.488281 30.550781 L 17.199219 30.328125 L 29.457031 27.753906 L 29.4375 25.964844 L 17.640625 27.222656 L 29.417969 23.632812 L 29.402344 21.515625 L 17.128906 24.019531 L 30.628906 18.320312 C 31.050781 18.214844 31.480469 18.15625 31.914062 18.167969 L 43.175781 18.300781 C 43.894531 18.320312 44.425781 18.5625 44.511719 19.277344 L 33.640625 19.414062 C 33.410156 19.414062 33.21875 19.550781 33.132812 19.753906 C 33.34375 19.648438 33.535156 19.675781 33.535156 19.675781 L 47.703125 19.820312 C 51.648438 20.652344 52.097656 23.160156 52.097656 23.160156 C 52.875 25.925781 53.335938 29.605469 53.335938 29.605469 C 53.574219 29.769531 53.671875 30.136719 53.671875 30.136719 L 53.644531 32.914062 C 53.84375 33.175781 53.96875 33.4375 53.96875 33.4375 Z M 39.808594 23.515625 C 39.992188 25.355469 40.183594 29.625 40.183594 29.625 C 43.300781 29.855469 52.40625 29.625 52.40625 29.625 C 52.070312 25.839844 51.523438 23.566406 51.523438 23.566406 L 39.820312 23.527344 Z M 52.320312 32.390625 L 51.917969 32.59375 L 43.648438 32.632812 L 42.34375 32.292969 L 43.542969 33.144531 L 51.886719 33.058594 L 52.320312 32.398438 Z M 51.6875 34.25 L 44.105469 34.382812 L 42.898438 34.035156 L 43.945312 34.847656 L 51.648438 34.703125 L 52.078125 34.046875 L 51.675781 34.25 Z M 41.257812 34.074219 L 40.988281 33.878906 C 40.902344 33.824219 40.796875 33.929688 40.808594 34.035156 L 40.84375 35.632812 C 40.84375 35.75 40.902344 35.84375 41 35.902344 L 41.304688 36.097656 C 41.304688 36.097656 41.257812 34.121094 41.257812 34.082031 Z M 34.410156 21.523438 L 38.109375 21.648438 L 38.09375 22.296875 L 35.289062 22.539062 L 37.8125 22.675781 C 38.246094 22.742188 38.429688 22.40625 38.429688 22.40625 L 38.445312 21.535156 C 38.390625 21.273438 38.09375 21.300781 38.09375 21.300781 L 34.410156 21.515625 Z M 34.761719 39.152344 C 34.8125 39.152344 34.847656 39.152344 34.886719 39.171875 C 34.695312 38.835938 34.457031 38.632812 34.1875 38.640625 C 33.640625 38.660156 33.226562 39.609375 33.277344 40.761719 C 33.316406 41.902344 33.792969 42.820312 34.351562 42.800781 C 34.542969 42.800781 34.707031 42.6875 34.847656 42.484375 C 34.425781 42.453125 34.0625 41.746094 34.035156 40.847656 C 33.996094 39.929688 34.332031 39.171875 34.761719 39.152344 Z M 33.332031 35.082031 L 33.332031 35.75 C 33.332031 35.75 35.828125 35.3125 36.699219 37.5 C 36.738281 37.597656 36.644531 34.839844 33.332031 35.082031 Z M 38.3125 31.585938 L 32.480469 30.5625 L 37.441406 31.867188 L 37.421875 33.289062 L 32.960938 33.542969 L 38.285156 33.871094 L 38.304688 31.566406 Z M 38.761719 29.421875 L 38.707031 23.574219 L 33.621094 23.625 L 33.59375 26.902344 C 33.59375 26.902344 33.542969 27.96875 34.332031 28.09375 L 38.765625 29.421875 Z M 41.949219 38.097656 L 39.242188 38.070312 C 39.128906 38.070312 39.03125 38.167969 39.03125 38.285156 L 39.03125 39.453125 C 39.023438 39.578125 39.117188 39.675781 39.242188 39.675781 L 43.292969 39.714844 C 43.292969 39.714844 43.359375 38.167969 41.949219 38.089844 Z M 51.972656 35.621094 L 51.570312 35.824219 L 44.460938 35.980469 L 43.253906 35.632812 L 44.367188 36.414062 L 51.523438 36.191406 L 51.972656 35.613281 Z M 53.25 37.847656 L 52.921875 37.914062 C 52.921875 37.914062 52.023438 38.011719 52.011719 39.464844 L 53.019531 39.464844 C 53.125 39.464844 53.203125 39.375 53.210938 39.269531 Z M 53.480469 33.878906 C 53.480469 33.785156 53.382812 33.726562 53.296875 33.773438 L 53.046875 33.917969 C 52.972656 33.96875 52.921875 34.046875 52.921875 34.132812 L 52.90625 35.941406 C 53.421875 35.921875 53.453125 35.652344 53.453125 35.652344 L 53.46875 33.871094 Z M 53.480469 33.878906 "/></g><path style=" stroke:none;fill-rule:nonzero;fill:#4699d3;fill-opacity:1;" d="M 15.789062 38.070312 C 16.6875 38.632812 17.675781 39.183594 18.722656 39.714844 C 17.800781 39.320312 16.910156 38.914062 16.054688 38.496094 C 14.695312 37.828125 13.425781 37.132812 12.3125 36.433594 C 8.292969 33.917969 6.03125 31.316406 6.636719 29.402344 C 7.007812 28.210938 8.457031 27.457031 10.644531 27.125 C 10.597656 27.589844 10.585938 28.054688 10.585938 28.539062 L 10.585938 28.625 C 10.023438 29.023438 9.636719 29.515625 9.445312 30.078125 C 8.996094 31.492188 9.867188 33.230469 11.71875 35.003906 C 12.773438 36.019531 14.148438 37.0625 15.777344 38.0625 Z M 10.875 26.101562 C 11.585938 26.757812 12.429688 27.40625 13.371094 28.074219 C 13.636719 28.257812 13.9375 28.453125 14.222656 28.636719 C 14.761719 28.964844 15.777344 29.535156 17.023438 29.992188 C 17.023438 29.992188 17.023438 29.992188 17.035156 29.992188 C 15.613281 29.023438 14.394531 28.035156 13.4375 27.078125 C 12.382812 26.035156 11.632812 25.015625 11.238281 24.070312 C 10.875 23.199219 10.789062 22.386719 11.046875 21.667969 C 11.316406 20.925781 11.929688 20.324219 12.8125 19.890625 L 13.582031 18.554688 C 10.644531 18.679688 8.660156 19.433594 8.152344 20.855469 C 7.640625 22.277344 8.699219 24.136719 10.867188 26.101562 Z M 17.148438 18.050781 C 16.554688 17.023438 16.363281 16.066406 16.652344 15.246094 C 16.707031 15.070312 16.804688 14.894531 16.917969 14.742188 C 17.199219 14.304688 17.640625 13.949219 18.214844 13.667969 C 18.808594 13.210938 19.433594 12.785156 20.085938 12.417969 C 16.824219 12.371094 14.570312 13.058594 14.050781 14.519531 C 13.773438 15.292969 14.011719 16.203125 14.664062 17.199219 C 15.078125 17.816406 15.652344 18.464844 16.371094 19.144531 C 16.527344 19.289062 16.699219 19.425781 16.863281 19.570312 C 17.351562 19.957031 19.066406 21.261719 20.890625 21.929688 C 20.890625 21.929688 20.902344 21.929688 20.910156 21.929688 C 19.164062 20.605469 17.851562 19.277344 17.140625 18.050781 Z M 17.148438 18.050781 "/></g></svg>