<svg xmlns="http://www.w3.org/2000/svg" xmlns:xlink="http://www.w3.org/1999/xlink" width="80" zoomAndPan="magnify" viewBox="0 0 60 60" height="80" preserveAspectRatio="xMidYMid meet" version="1.2"><defs><clipPath id="7f97580375"><path d="M 17 21.125 L 35 21.125 L 35 32 L 17 32 Z M 17 21.125 "/></clipPath><clipPath id="d2aacd70a0"><path d="M 40 28 L 44.382812 28 L 44.382812 36 L 40 36 Z M 40 28 "/></clipPath><clipPath id="3e6746f54f"><path d="M 33 23 L 44.382812 23 L 44.382812 30 L 33 30 Z M 33 23 "/></clipPath><clipPath id="94ed48e355"><path d="M 36 23 L 44.382812 23 L 44.382812 30 L 36 30 Z M 36 23 "/></clipPath><clipPath id="db8dabfb66"><path d="M 16 21.125 L 35 21.125 L 35 36 L 16 36 Z M 16 21.125 "/></clipPath><clipPath id="ae1e541cb7"><path d="M 18 32 L 25 32 L 25 38.375 L 18 38.375 Z M 18 32 "/></clipPath><clipPath id="7efe4f2cca"><path d="M 35 32 L 42 32 L 42 38.375 L 35 38.375 Z M 35 32 "/></clipPath><clipPath id="9572ec14de"><path d="M 14.382812 24 L 19 24 L 19 26 L 14.382812 26 Z M 14.382812 24 "/></clipPath><clipPath id="a5ab9cfa5e"><path d="M 14.382812 27 L 19 27 L 19 29 L 14.382812 29 Z M 14.382812 27 "/></clipPath></defs><g id="19009f0cca"><path style=" stroke:none;fill-rule:nonzero;fill:#fecc49;fill-opacity:1;" d="M 33.796875 31.726562 L 34.238281 23.90625 L 37.378906 23.90625 L 37.378906 26.816406 C 37.378906 28.085938 38.410156 29.125 39.671875 29.125 L 43.800781 29.125 C 43.890625 29.339844 43.914062 29.523438 43.914062 29.726562 L 43.203125 34.542969 C 43.203125 35.027344 43.070312 35.195312 42.546875 35.195312 L 41.125 35.195312 C 41.054688 33.839844 39.941406 32.757812 38.574219 32.757812 C 37.207031 32.757812 36.09375 33.839844 36.023438 35.195312 L 33.597656 35.195312 Z M 33.796875 31.726562 "/><path style=" stroke:none;fill-rule:nonzero;fill:#bde5ed;fill-opacity:1;" d="M 43.800781 29.125 L 39.671875 29.125 C 38.410156 29.125 37.378906 28.085938 37.378906 26.816406 L 37.378906 23.90625 L 39.804688 23.90625 C 40.160156 23.90625 40.25 24.234375 40.449219 24.503906 L 43.320312 28.332031 C 43.566406 28.664062 43.714844 28.910156 43.800781 29.125 Z M 43.800781 29.125 "/><path style=" stroke:none;fill-rule:nonzero;fill:#8f8f8f;fill-opacity:1;" d="M 41.125 35.195312 C 41.125 35.242188 41.125 35.285156 41.125 35.328125 C 41.125 36.746094 39.984375 37.898438 38.574219 37.898438 C 37.164062 37.898438 36.023438 36.746094 36.023438 35.328125 C 36.023438 35.285156 36.023438 35.242188 36.023438 35.195312 C 36.09375 33.839844 37.207031 32.757812 38.574219 32.757812 C 39.941406 32.757812 41.054688 33.839844 41.125 35.195312 Z M 39.800781 35.328125 C 39.800781 34.644531 39.253906 34.089844 38.574219 34.089844 C 37.894531 34.089844 37.347656 34.644531 37.347656 35.328125 C 37.347656 36.011719 37.894531 36.566406 38.574219 36.566406 C 39.253906 36.566406 39.800781 36.011719 39.800781 35.328125 Z M 39.800781 35.328125 "/><path style=" stroke:none;fill-rule:nonzero;fill:#fecc49;fill-opacity:1;" d="M 38.574219 34.089844 C 39.253906 34.089844 39.800781 34.644531 39.800781 35.328125 C 39.800781 36.011719 39.253906 36.566406 38.574219 36.566406 C 37.894531 36.566406 37.347656 36.011719 37.347656 35.328125 C 37.347656 34.644531 37.894531 34.089844 38.574219 34.089844 Z M 38.574219 34.089844 "/><g clip-rule="nonzero" clip-path="url(#7f97580375)"><path style=" stroke:none;fill-rule:nonzero;fill:#fb992d;fill-opacity:1;" d="M 23.421875 26.578125 L 23.425781 26.582031 L 25.269531 26.582031 L 24.703125 24.855469 L 24.214844 24.855469 Z M 17.398438 26.550781 L 17.515625 25.019531 L 17.699219 22.644531 C 17.742188 22.070312 18.167969 21.597656 18.738281 21.597656 L 33.269531 21.597656 C 33.84375 21.597656 34.339844 22.070312 34.308594 22.644531 L 34.238281 23.90625 L 33.796875 31.726562 L 17 31.726562 L 17.28125 28.082031 Z M 17.398438 26.550781 "/></g><path style=" stroke:none;fill-rule:nonzero;fill:#4a494e;fill-opacity:1;" d="M 33.796875 31.726562 L 33.597656 35.195312 L 24.402344 35.195312 C 24.335938 33.839844 23.21875 32.757812 21.855469 32.757812 C 20.488281 32.757812 19.371094 33.839844 19.304688 35.195312 L 17.851562 35.195312 C 17.28125 35.195312 16.769531 34.726562 16.8125 34.152344 L 17 31.726562 Z M 33.796875 31.726562 "/><path style=" stroke:none;fill-rule:nonzero;fill:#fb992d;fill-opacity:1;" d="M 25.269531 26.582031 L 23.425781 26.582031 L 23.421875 26.578125 L 24.214844 24.855469 L 24.703125 24.855469 Z M 25.269531 26.582031 "/><path style=" stroke:none;fill-rule:nonzero;fill:#8f8f8f;fill-opacity:1;" d="M 19.304688 35.195312 C 19.371094 33.839844 20.488281 32.757812 21.855469 32.757812 C 23.21875 32.757812 24.335938 33.839844 24.402344 35.195312 C 24.402344 35.242188 24.40625 35.285156 24.40625 35.328125 C 24.40625 36.746094 23.261719 37.898438 21.855469 37.898438 C 20.445312 37.898438 19.300781 36.746094 19.300781 35.328125 C 19.300781 35.285156 19.300781 35.242188 19.304688 35.195312 Z M 23.082031 35.328125 C 23.082031 34.644531 22.53125 34.089844 21.855469 34.089844 C 21.175781 34.089844 20.625 34.644531 20.625 35.328125 C 20.625 36.011719 21.175781 36.566406 21.855469 36.566406 C 22.53125 36.566406 23.082031 36.011719 23.082031 35.328125 Z M 23.082031 35.328125 "/><path style=" stroke:none;fill-rule:nonzero;fill:#fecc49;fill-opacity:1;" d="M 21.855469 34.089844 C 22.53125 34.089844 23.082031 34.644531 23.082031 35.328125 C 23.082031 36.011719 22.53125 36.566406 21.855469 36.566406 C 21.175781 36.566406 20.625 36.011719 20.625 35.328125 C 20.625 34.644531 21.175781 34.089844 21.855469 34.089844 Z M 21.855469 34.089844 "/><path style=" stroke:none;fill-rule:nonzero;fill:#333333;fill-opacity:1;" d="M 36.023438 35.671875 L 33.597656 35.671875 C 33.339844 35.671875 33.128906 35.460938 33.128906 35.195312 C 33.128906 34.933594 33.339844 34.722656 33.597656 34.722656 L 36.023438 34.722656 C 36.28125 34.722656 36.492188 34.933594 36.492188 35.195312 C 36.492188 35.460938 36.28125 35.671875 36.023438 35.671875 Z M 36.023438 35.671875 "/><g clip-rule="nonzero" clip-path="url(#d2aacd70a0)"><path style=" stroke:none;fill-rule:nonzero;fill:#333333;fill-opacity:1;" d="M 42.546875 35.671875 L 41.125 35.671875 C 40.863281 35.671875 40.65625 35.460938 40.65625 35.195312 C 40.65625 34.933594 40.863281 34.722656 41.125 34.722656 L 42.546875 34.722656 C 42.636719 34.722656 42.691406 34.714844 42.722656 34.710938 C 42.726562 34.679688 42.734375 34.628906 42.734375 34.542969 C 42.734375 34.519531 42.734375 34.496094 42.738281 34.472656 L 43.445312 29.695312 C 43.441406 29.539062 43.421875 29.429688 43.367188 29.300781 C 43.269531 29.058594 43.386719 28.785156 43.625 28.683594 C 43.863281 28.585938 44.136719 28.703125 44.234375 28.945312 C 44.339844 29.195312 44.382812 29.429688 44.382812 29.726562 C 44.382812 29.75 44.378906 29.773438 44.375 29.796875 L 43.671875 34.578125 C 43.667969 34.835938 43.628906 35.148438 43.40625 35.382812 C 43.160156 35.636719 42.816406 35.671875 42.546875 35.671875 Z M 43.914062 29.726562 Z M 43.914062 29.726562 "/></g><g clip-rule="nonzero" clip-path="url(#3e6746f54f)"><path style=" stroke:none;fill-rule:nonzero;fill:#333333;fill-opacity:1;" d="M 43.800781 29.597656 C 43.617188 29.597656 43.441406 29.488281 43.367188 29.304688 C 43.296875 29.125 43.164062 28.910156 42.945312 28.621094 L 40.078125 24.789062 C 40.015625 24.707031 39.964844 24.628906 39.921875 24.554688 C 39.886719 24.496094 39.832031 24.410156 39.804688 24.382812 L 34.238281 24.382812 C 33.976562 24.382812 33.765625 24.167969 33.765625 23.90625 C 33.765625 23.644531 33.976562 23.433594 34.234375 23.433594 L 39.804688 23.433594 C 40.335938 23.433594 40.574219 23.824219 40.71875 24.054688 C 40.753906 24.113281 40.789062 24.171875 40.824219 24.21875 L 43.695312 28.046875 C 43.964844 28.410156 44.132812 28.683594 44.234375 28.945312 C 44.332031 29.1875 44.21875 29.464844 43.980469 29.5625 C 43.921875 29.585938 43.859375 29.597656 43.800781 29.597656 Z M 39.8125 24.382812 Z M 39.8125 24.382812 "/></g><g clip-rule="nonzero" clip-path="url(#94ed48e355)"><path style=" stroke:none;fill-rule:nonzero;fill:#333333;fill-opacity:1;" d="M 43.800781 29.597656 L 39.671875 29.597656 C 38.152344 29.597656 36.910156 28.347656 36.910156 26.816406 L 36.910156 23.90625 C 36.910156 23.644531 37.121094 23.433594 37.378906 23.433594 C 37.640625 23.433594 37.847656 23.644531 37.847656 23.90625 L 37.847656 26.816406 C 37.847656 27.828125 38.667969 28.648438 39.671875 28.648438 L 43.800781 28.648438 C 44.0625 28.648438 44.269531 28.863281 44.269531 29.125 C 44.269531 29.386719 44.0625 29.597656 43.800781 29.597656 Z M 43.800781 29.597656 "/></g><g clip-rule="nonzero" clip-path="url(#db8dabfb66)"><path style=" stroke:none;fill-rule:nonzero;fill:#333333;fill-opacity:1;" d="M 33.597656 35.671875 L 24.402344 35.671875 C 24.144531 35.671875 23.933594 35.460938 23.933594 35.195312 C 23.933594 34.933594 24.144531 34.722656 24.402344 34.722656 L 33.15625 34.722656 L 33.839844 22.617188 C 33.847656 22.445312 33.757812 22.320312 33.703125 22.261719 C 33.59375 22.140625 33.433594 22.070312 33.269531 22.070312 L 18.738281 22.070312 C 18.398438 22.070312 18.1875 22.386719 18.167969 22.679688 L 17.984375 25.054688 L 17.75 28.117188 L 17.28125 34.1875 C 17.269531 34.339844 17.34375 34.457031 17.40625 34.527344 C 17.519531 34.648438 17.683594 34.722656 17.851562 34.722656 L 19.304688 34.722656 C 19.5625 34.722656 19.773438 34.933594 19.773438 35.195312 C 19.773438 35.460938 19.5625 35.671875 19.304688 35.671875 L 17.851562 35.671875 C 17.421875 35.671875 17.007812 35.488281 16.71875 35.171875 C 16.449219 34.875 16.316406 34.5 16.347656 34.117188 L 16.8125 28.042969 L 17.050781 24.984375 L 17.230469 22.605469 C 17.296875 21.761719 17.945312 21.125 18.738281 21.125 L 33.269531 21.125 C 33.691406 21.125 34.097656 21.300781 34.386719 21.609375 C 34.660156 21.902344 34.796875 22.28125 34.777344 22.671875 L 34.066406 35.222656 C 34.054688 35.476562 33.847656 35.671875 33.597656 35.671875 Z M 33.597656 35.671875 "/></g><g clip-rule="nonzero" clip-path="url(#ae1e541cb7)"><path style=" stroke:none;fill-rule:nonzero;fill:#333333;fill-opacity:1;" d="M 21.855469 38.371094 C 20.1875 38.371094 18.832031 37.007812 18.832031 35.328125 C 18.832031 35.277344 18.832031 35.226562 18.835938 35.171875 C 18.914062 33.554688 20.242188 32.285156 21.855469 32.285156 C 23.464844 32.285156 24.789062 33.554688 24.871094 35.171875 C 24.871094 35.226562 24.875 35.277344 24.875 35.328125 C 24.875 37.007812 23.519531 38.371094 21.855469 38.371094 Z M 21.855469 33.234375 C 20.742188 33.234375 19.828125 34.105469 19.773438 35.222656 C 19.769531 35.257812 19.769531 35.292969 19.769531 35.328125 C 19.769531 36.484375 20.703125 37.425781 21.855469 37.425781 C 23.003906 37.425781 23.9375 36.484375 23.9375 35.328125 C 23.9375 35.292969 23.933594 35.257812 23.933594 35.222656 C 23.878906 34.105469 22.964844 33.234375 21.855469 33.234375 Z M 19.304688 35.195312 Z M 19.304688 35.195312 "/></g><g clip-rule="nonzero" clip-path="url(#7efe4f2cca)"><path style=" stroke:none;fill-rule:nonzero;fill:#333333;fill-opacity:1;" d="M 38.574219 38.371094 C 36.90625 38.371094 35.554688 37.007812 35.554688 35.328125 C 35.554688 35.277344 35.554688 35.226562 35.558594 35.171875 C 35.636719 33.554688 36.960938 32.285156 38.574219 32.285156 C 40.183594 32.285156 41.511719 33.554688 41.589844 35.171875 C 41.59375 35.226562 41.59375 35.277344 41.59375 35.328125 C 41.59375 37.007812 40.238281 38.371094 38.574219 38.371094 Z M 38.574219 33.234375 C 37.460938 33.234375 36.546875 34.105469 36.492188 35.222656 C 36.492188 35.257812 36.492188 35.292969 36.492188 35.328125 C 36.492188 36.484375 37.425781 37.425781 38.574219 37.425781 C 39.722656 37.425781 40.65625 36.484375 40.65625 35.328125 C 40.65625 35.292969 40.65625 35.257812 40.65625 35.222656 C 40.601562 34.105469 39.683594 33.234375 38.574219 33.234375 Z M 36.023438 35.195312 Z M 36.023438 35.195312 "/></g><path style=" stroke:none;fill-rule:nonzero;fill:#333333;fill-opacity:1;" d="M 38.574219 37.039062 C 37.636719 37.039062 36.878906 36.269531 36.878906 35.328125 C 36.878906 34.382812 37.636719 33.617188 38.574219 33.617188 C 39.507812 33.617188 40.269531 34.382812 40.269531 35.328125 C 40.269531 36.269531 39.507812 37.039062 38.574219 37.039062 Z M 38.574219 34.566406 C 38.15625 34.566406 37.816406 34.90625 37.816406 35.328125 C 37.816406 35.75 38.15625 36.089844 38.574219 36.089844 C 38.992188 36.089844 39.332031 35.75 39.332031 35.328125 C 39.332031 34.90625 38.992188 34.566406 38.574219 34.566406 Z M 38.574219 34.566406 "/><path style=" stroke:none;fill-rule:nonzero;fill:#333333;fill-opacity:1;" d="M 21.855469 37.039062 C 20.917969 37.039062 20.15625 36.269531 20.15625 35.328125 C 20.15625 34.382812 20.917969 33.617188 21.855469 33.617188 C 22.789062 33.617188 23.550781 34.382812 23.550781 35.328125 C 23.550781 36.269531 22.789062 37.039062 21.855469 37.039062 Z M 21.855469 34.566406 C 21.433594 34.566406 21.09375 34.90625 21.09375 35.328125 C 21.09375 35.75 21.433594 36.089844 21.855469 36.089844 C 22.273438 36.089844 22.613281 35.75 22.613281 35.328125 C 22.613281 34.90625 22.273438 34.566406 21.855469 34.566406 Z M 21.855469 34.566406 "/><path style=" stroke:none;fill-rule:nonzero;fill:#333333;fill-opacity:1;" d="M 37.289062 31.417969 L 36.46875 31.417969 C 36.210938 31.417969 36 31.203125 36 30.941406 C 36 30.679688 36.210938 30.46875 36.46875 30.46875 L 37.289062 30.46875 C 37.550781 30.46875 37.757812 30.679688 37.757812 30.941406 C 37.757812 31.203125 37.550781 31.417969 37.289062 31.417969 Z M 37.289062 31.417969 "/><path style=" stroke:none;fill-rule:nonzero;fill:#333333;fill-opacity:1;" d="M 33.804688 32.199219 L 17 32.199219 C 16.742188 32.199219 16.53125 31.988281 16.53125 31.726562 C 16.53125 31.464844 16.742188 31.25 17 31.25 L 33.804688 31.25 C 34.0625 31.25 34.273438 31.464844 34.273438 31.726562 C 34.273438 31.988281 34.0625 32.199219 33.804688 32.199219 Z M 33.804688 32.199219 "/><path style=" stroke:none;fill-rule:nonzero;fill:#333333;fill-opacity:1;" d="M 32.65625 25.332031 L 29.945312 25.332031 C 29.683594 25.332031 29.476562 25.117188 29.476562 24.855469 C 29.476562 24.59375 29.683594 24.382812 29.945312 24.382812 L 32.65625 24.382812 C 32.914062 24.382812 33.125 24.59375 33.125 24.855469 C 33.125 25.117188 32.914062 25.332031 32.65625 25.332031 Z M 32.65625 25.332031 "/><path style=" stroke:none;fill-rule:nonzero;fill:#333333;fill-opacity:1;" d="M 27.761719 28.777344 C 27.640625 28.777344 27.523438 28.769531 27.410156 28.75 C 26.941406 28.671875 26.574219 28.4375 26.378906 28.09375 C 26.328125 28.003906 26.285156 27.910156 26.253906 27.800781 C 26.179688 27.546875 26.320312 27.285156 26.566406 27.207031 C 26.816406 27.132812 27.078125 27.273438 27.152344 27.527344 C 27.164062 27.5625 27.175781 27.589844 27.1875 27.617188 C 27.308594 27.828125 27.820312 27.898438 28.183594 27.753906 C 28.316406 27.699219 28.417969 27.597656 28.457031 27.476562 C 28.484375 27.402344 28.484375 27.324219 28.453125 27.269531 C 28.378906 27.136719 28.085938 27.074219 27.804688 27.015625 C 27.359375 26.917969 26.808594 26.800781 26.527344 26.289062 C 26.304688 25.878906 26.351562 25.351562 26.648438 24.941406 C 26.933594 24.550781 27.4375 24.324219 28.027344 24.324219 C 28.816406 24.324219 29.371094 24.679688 29.550781 25.304688 C 29.621094 25.554688 29.476562 25.816406 29.230469 25.890625 C 28.980469 25.964844 28.71875 25.816406 28.648438 25.566406 C 28.59375 25.371094 28.382812 25.273438 28.027344 25.273438 C 27.808594 25.273438 27.527344 25.332031 27.40625 25.5 C 27.324219 25.613281 27.300781 25.746094 27.347656 25.832031 C 27.421875 25.964844 27.714844 26.027344 27.996094 26.085938 C 28.441406 26.179688 28.992188 26.296875 29.273438 26.808594 C 29.433594 27.101562 29.460938 27.460938 29.34375 27.796875 C 29.210938 28.171875 28.914062 28.480469 28.53125 28.632812 C 28.296875 28.730469 28.027344 28.777344 27.761719 28.777344 Z M 27.761719 28.777344 "/><path style=" stroke:none;fill-rule:nonzero;fill:#333333;fill-opacity:1;" d="M 25.835938 28.777344 C 25.636719 28.777344 25.457031 28.652344 25.390625 28.453125 L 24.425781 25.523438 L 23.054688 28.503906 C 22.945312 28.742188 22.667969 28.84375 22.433594 28.734375 C 22.199219 28.621094 22.097656 28.339844 22.207031 28.101562 L 23.789062 24.65625 C 23.867188 24.488281 24.035156 24.382812 24.214844 24.382812 L 24.703125 24.382812 C 24.90625 24.382812 25.082031 24.511719 25.148438 24.707031 L 26.28125 28.152344 C 26.363281 28.402344 26.230469 28.671875 25.984375 28.753906 C 25.933594 28.769531 25.882812 28.777344 25.835938 28.777344 Z M 25.835938 28.777344 "/><path style=" stroke:none;fill-rule:nonzero;fill:#333333;fill-opacity:1;" d="M 25.269531 27.054688 L 23.425781 27.054688 C 23.164062 27.054688 22.957031 26.84375 22.957031 26.582031 C 22.957031 26.316406 23.164062 26.105469 23.425781 26.105469 L 25.269531 26.105469 C 25.527344 26.105469 25.738281 26.316406 25.738281 26.582031 C 25.738281 26.84375 25.527344 27.054688 25.269531 27.054688 Z M 25.269531 27.054688 "/><path style=" stroke:none;fill-rule:nonzero;fill:#333333;fill-opacity:1;" d="M 20.238281 28.777344 C 20.226562 28.777344 20.210938 28.777344 20.199219 28.777344 C 19.941406 28.753906 19.75 28.527344 19.769531 28.265625 L 20.039062 24.820312 C 20.058594 24.574219 20.261719 24.382812 20.507812 24.382812 L 22.816406 24.382812 C 23.074219 24.382812 23.285156 24.59375 23.285156 24.855469 C 23.285156 25.117188 23.074219 25.332031 22.816406 25.332031 L 20.941406 25.332031 L 20.703125 28.339844 C 20.683594 28.589844 20.480469 28.777344 20.238281 28.777344 Z M 20.238281 28.777344 "/><path style=" stroke:none;fill-rule:nonzero;fill:#333333;fill-opacity:1;" d="M 22.246094 27.054688 L 20.371094 27.054688 C 20.113281 27.054688 19.902344 26.84375 19.902344 26.582031 C 19.902344 26.316406 20.113281 26.105469 20.371094 26.105469 L 22.246094 26.105469 C 22.503906 26.105469 22.714844 26.316406 22.714844 26.582031 C 22.714844 26.84375 22.503906 27.054688 22.246094 27.054688 Z M 22.246094 27.054688 "/><path style=" stroke:none;fill-rule:nonzero;fill:#333333;fill-opacity:1;" d="M 31.03125 28.777344 C 31.019531 28.777344 31.007812 28.777344 30.996094 28.777344 C 30.738281 28.753906 30.542969 28.527344 30.566406 28.265625 L 30.832031 24.820312 C 30.851562 24.558594 31.078125 24.363281 31.335938 24.382812 C 31.59375 24.40625 31.789062 24.632812 31.765625 24.894531 L 31.5 28.339844 C 31.480469 28.589844 31.273438 28.777344 31.03125 28.777344 Z M 31.03125 28.777344 "/><path style=" stroke:none;fill-rule:nonzero;fill:#333333;fill-opacity:1;" d="M 19.136719 27.027344 L 15.628906 27.027344 C 15.367188 27.027344 15.160156 26.8125 15.160156 26.550781 C 15.160156 26.289062 15.367188 26.078125 15.628906 26.078125 L 19.136719 26.078125 C 19.394531 26.078125 19.605469 26.289062 19.605469 26.550781 C 19.605469 26.8125 19.394531 27.027344 19.136719 27.027344 Z M 19.136719 27.027344 "/><g clip-rule="nonzero" clip-path="url(#9572ec14de)"><path style=" stroke:none;fill-rule:nonzero;fill:#333333;fill-opacity:1;" d="M 18.359375 25.492188 L 14.851562 25.492188 C 14.589844 25.492188 14.382812 25.28125 14.382812 25.019531 C 14.382812 24.757812 14.589844 24.546875 14.851562 24.546875 L 18.359375 24.546875 C 18.617188 24.546875 18.828125 24.757812 18.828125 25.019531 C 18.828125 25.28125 18.617188 25.492188 18.359375 25.492188 Z M 18.359375 25.492188 "/></g><g clip-rule="nonzero" clip-path="url(#a5ab9cfa5e)"><path style=" stroke:none;fill-rule:nonzero;fill:#333333;fill-opacity:1;" d="M 18.359375 28.554688 L 14.851562 28.554688 C 14.589844 28.554688 14.382812 28.34375 14.382812 28.082031 C 14.382812 27.820312 14.589844 27.605469 14.851562 27.605469 L 18.359375 27.605469 C 18.617188 27.605469 18.828125 27.820312 18.828125 28.082031 C 18.828125 28.34375 18.617188 28.554688 18.359375 28.554688 Z M 18.359375 28.554688 "/></g></g></svg>