<svg xmlns="http://www.w3.org/2000/svg" xmlns:xlink="http://www.w3.org/1999/xlink" width="80" zoomAndPan="magnify" viewBox="0 0 60 60" height="80" preserveAspectRatio="xMidYMid meet" version="1.2"><defs><clipPath id="75e8935ade"><path d="M 15.3125 17.304688 L 44.5625 17.304688 L 44.5625 39.804688 L 15.3125 39.804688 Z M 15.3125 17.304688 "/></clipPath></defs><g id="99e2181390"><g clip-rule="nonzero" clip-path="url(#75e8935ade)"><path style=" stroke:none;fill-rule:nonzero;fill:#fc8c06;fill-opacity:1;" d="M 19.816406 17.378906 L 19.769531 17.378906 L 19.65625 17.351562 L 16 17.34375 L 15.917969 17.34375 C 15.757812 17.359375 15.625 17.425781 15.511719 17.539062 C 15.378906 17.671875 15.3125 17.832031 15.3125 18.023438 C 15.3125 18.082031 15.320312 18.136719 15.335938 18.195312 L 15.355469 18.253906 C 15.460938 18.554688 15.675781 18.703125 16 18.703125 L 18.261719 18.703125 C 18.542969 18.699219 18.792969 18.78125 19.007812 18.957031 C 19.175781 19.09375 19.292969 19.261719 19.359375 19.464844 L 20.242188 22.332031 L 22.894531 31.070312 C 22.921875 31.15625 22.953125 31.246094 22.984375 31.324219 L 24.347656 35.746094 C 24.347656 35.746094 24.347656 35.746094 24.347656 35.757812 L 24.347656 35.777344 L 24.378906 35.882812 C 24.40625 35.933594 24.4375 35.980469 24.476562 36.023438 C 24.5 36.054688 24.523438 36.082031 24.554688 36.105469 L 24.574219 36.125 C 24.585938 36.128906 24.59375 36.140625 24.605469 36.148438 L 24.628906 36.148438 L 24.679688 36.183594 L 24.746094 36.210938 L 24.785156 36.226562 L 24.921875 36.226562 L 25.042969 36.242188 L 25.59375 36.242188 C 25.671875 36.242188 25.734375 36.273438 25.78125 36.339844 C 25.824219 36.40625 25.832031 36.476562 25.796875 36.550781 C 25.726562 36.71875 25.675781 36.894531 25.648438 37.074219 C 25.621094 37.257812 25.617188 37.4375 25.632812 37.621094 C 25.652344 37.804688 25.691406 37.980469 25.753906 38.152344 C 25.816406 38.328125 25.898438 38.488281 26 38.640625 C 26.101562 38.792969 26.222656 38.929688 26.359375 39.054688 C 26.496094 39.179688 26.644531 39.28125 26.808594 39.371094 C 26.972656 39.457031 27.144531 39.523438 27.324219 39.566406 C 27.503906 39.609375 27.6875 39.632812 27.871094 39.632812 C 28.054688 39.632812 28.238281 39.609375 28.417969 39.566406 C 28.597656 39.523438 28.769531 39.457031 28.933594 39.371094 C 29.097656 39.28125 29.246094 39.179688 29.382812 39.054688 C 29.519531 38.929688 29.640625 38.792969 29.742188 38.640625 C 29.84375 38.488281 29.925781 38.328125 29.988281 38.152344 C 30.050781 37.980469 30.089844 37.804688 30.109375 37.621094 C 30.125 37.4375 30.121094 37.257812 30.09375 37.074219 C 30.066406 36.894531 30.015625 36.71875 29.945312 36.550781 C 29.910156 36.476562 29.917969 36.410156 29.960938 36.34375 C 30.007812 36.273438 30.070312 36.242188 30.148438 36.242188 L 34.945312 36.242188 C 35.023438 36.242188 35.085938 36.273438 35.132812 36.34375 C 35.175781 36.410156 35.183594 36.476562 35.148438 36.550781 C 35.019531 36.859375 34.960938 37.179688 34.972656 37.511719 C 34.988281 37.84375 35.074219 38.15625 35.230469 38.453125 C 35.386719 38.746094 35.601562 38.992188 35.871094 39.195312 C 36.140625 39.394531 36.4375 39.527344 36.769531 39.59375 C 37.097656 39.660156 37.429688 39.65625 37.753906 39.574219 C 38.082031 39.496094 38.375 39.351562 38.636719 39.140625 C 38.898438 38.929688 39.101562 38.675781 39.25 38.375 C 39.394531 38.074219 39.464844 37.757812 39.46875 37.425781 C 39.46875 37.117188 39.40625 36.824219 39.28125 36.542969 C 39.253906 36.46875 39.257812 36.402344 39.304688 36.335938 C 39.347656 36.269531 39.410156 36.234375 39.488281 36.234375 L 39.902344 36.234375 C 40.09375 36.234375 40.253906 36.167969 40.390625 36.035156 C 40.523438 35.902344 40.589844 35.742188 40.589844 35.554688 C 40.589844 35.367188 40.523438 35.207031 40.390625 35.074219 C 40.253906 34.941406 40.09375 34.875 39.902344 34.875 L 27.015625 34.894531 L 26.421875 34.894531 C 26.175781 34.898438 25.949219 34.832031 25.746094 34.691406 C 25.546875 34.550781 25.40625 34.363281 25.328125 34.128906 L 25.328125 34.117188 L 24.972656 33.058594 C 24.953125 32.988281 24.964844 32.921875 25.007812 32.863281 C 25.050781 32.800781 25.113281 32.773438 25.1875 32.773438 L 39.945312 32.773438 C 40.714844 32.773438 41.230469 32.261719 41.59375 31.085938 L 44.425781 21.75 C 44.582031 21.25 44.507812 20.78125 44.207031 20.347656 C 43.933594 19.949219 43.554688 19.726562 43.070312 19.683594 L 21.054688 19.683594 C 20.941406 19.683594 20.871094 19.632812 20.835938 19.527344 L 20.335938 17.898438 L 20.335938 17.875 C 20.335938 17.871094 20.335938 17.867188 20.335938 17.863281 L 20.304688 17.757812 C 20.277344 17.703125 20.242188 17.65625 20.203125 17.613281 C 20.179688 17.582031 20.152344 17.554688 20.125 17.53125 L 20.101562 17.515625 L 20.070312 17.488281 L 20.046875 17.488281 C 20.027344 17.476562 20.011719 17.464844 19.992188 17.453125 L 19.929688 17.414062 L 19.882812 17.394531 L 19.898438 17.304688 L 19.871094 17.390625 Z M 37.195312 36.332031 C 37.351562 36.332031 37.5 36.363281 37.644531 36.421875 C 37.789062 36.480469 37.914062 36.5625 38.023438 36.671875 C 38.136719 36.78125 38.21875 36.90625 38.277344 37.046875 C 38.339844 37.1875 38.367188 37.335938 38.367188 37.492188 C 38.367188 37.644531 38.339844 37.792969 38.277344 37.933594 C 38.21875 38.074219 38.136719 38.199219 38.023438 38.308594 C 37.914062 38.417969 37.789062 38.5 37.644531 38.558594 C 37.5 38.621094 37.351562 38.648438 37.195312 38.648438 C 37.042969 38.648438 36.890625 38.621094 36.75 38.558594 C 36.605469 38.5 36.476562 38.417969 36.367188 38.308594 C 36.257812 38.199219 36.175781 38.074219 36.113281 37.933594 C 36.054688 37.792969 36.023438 37.644531 36.023438 37.492188 C 36.023438 37.335938 36.054688 37.1875 36.113281 37.046875 C 36.175781 36.90625 36.257812 36.78125 36.367188 36.671875 C 36.476562 36.5625 36.605469 36.480469 36.75 36.421875 C 36.890625 36.363281 37.042969 36.332031 37.195312 36.332031 Z M 27.847656 36.332031 C 28.003906 36.332031 28.152344 36.363281 28.296875 36.421875 C 28.441406 36.480469 28.566406 36.5625 28.675781 36.671875 C 28.785156 36.78125 28.871094 36.90625 28.929688 37.046875 C 28.988281 37.1875 29.019531 37.335938 29.019531 37.492188 C 29.019531 37.644531 28.988281 37.792969 28.929688 37.933594 C 28.871094 38.074219 28.785156 38.199219 28.675781 38.308594 C 28.566406 38.417969 28.441406 38.5 28.296875 38.558594 C 28.152344 38.621094 28.003906 38.648438 27.847656 38.648438 C 27.691406 38.648438 27.542969 38.621094 27.398438 38.558594 C 27.257812 38.5 27.128906 38.417969 27.019531 38.308594 C 26.910156 38.199219 26.824219 38.074219 26.765625 37.933594 C 26.707031 37.792969 26.675781 37.644531 26.675781 37.492188 C 26.675781 37.335938 26.707031 37.1875 26.765625 37.042969 C 26.828125 36.902344 26.914062 36.777344 27.023438 36.667969 C 27.132812 36.558594 27.261719 36.476562 27.40625 36.417969 C 27.550781 36.359375 27.703125 36.332031 27.859375 36.332031 Z M 27.847656 36.332031 "/></g></g></svg>